<?xml version="1.0" encoding="UTF-8" standalone="no"?>
<svg
   height="480"
   width="480"
   version="1.1"
   id="svg1097"
   sodipodi:docname="faltaparkingspace.svg"
   inkscape:version="1.1.2 (b8e25be833, 2022-02-05)"
   xmlns:inkscape="http://www.inkscape.org/namespaces/inkscape"
   xmlns:sodipodi="http://sodipodi.sourceforge.net/DTD/sodipodi-0.dtd"
   xmlns="http://www.w3.org/2000/svg"
   xmlns:svg="http://www.w3.org/2000/svg">
  <defs
     id="defs1101" />
  <sodipodi:namedview
     id="namedview1099"
     pagecolor="#ffffff"
     bordercolor="#666666"
     borderopacity="1.0"
     inkscape:pageshadow="2"
     inkscape:pageopacity="0.0"
     inkscape:pagecheckerboard="0"
     showgrid="false"
     inkscape:zoom="1"
     inkscape:cx="230"
     inkscape:cy="230.5"
     inkscape:window-width="1448"
     inkscape:window-height="1012"
     inkscape:window-x="78"
     inkscape:window-y="0"
     inkscape:window-maximized="0"
     inkscape:current-layer="svg1097" />
  <path
     d="m30.856274 5.7720243h420.004816c10.81582.7906802 23.07189 11.8437647 23.66646 24.8647647v418.806511c.04967 10.31854-11.79351 24.19224-25.16434 24.86477h-419.405663c-9.523815-.58318-24.4313132-15.37852-24.8647639-25.16434l.5991509-418.207366c-1.0815617-6.302442 14.286068-25.2982414 25.16434-25.1643397z"
     fill="#fff"
     fill-rule="evenodd"
     stroke="#000"
     stroke-width="2"
     id="path1067" />
  <path
     d="m35.1875 16.78125c-11.760613-.514916-18.473169 7.51921-18.03125 20.375v406.40625c.046553 8.6672 3.728171 19.07043 15.6875 19.28125l414.4375-.03125c11.95933-.2108 15.6722-10.61405 15.71875-19.28125v-406.4375c.44191-12.855791-6.27063-20.88992-18.03125-20.375z"
     fill="#039"
     fill-rule="evenodd"
     id="path1069" />
  <path
     d="M 135.58483,70.357735 V 158.2439 h 61.33336 c 15.33316,1.4e-4 26.77082,-4.6123 34.31301,-13.8374 7.54182,-9.22475 11.31282,-19.25997 11.31301,-30.10569 -1.9e-4,-16.455079 -5.92161,-28.547207 -17.76424,-36.276417 -7.60449,-5.110884 -17.39038,-7.666429 -29.35772,-7.666658 z M 94.259645,303.72359 V 31.276422 h 98.918675 c 10.59609,2.7e-4 20.78712,1.122229 30.57317,3.365858 9.78576,2.244168 19.97679,7.47993 30.57318,15.707307 8.22746,6.357971 15.20847,15.115434 20.94309,26.272372 5.7342,11.157393 8.60141,24.090981 8.60164,38.800821 -2.3e-4,19.44733 -7.26174,37.9595 -21.78455,55.53659 -14.52324,17.57733 -35.74679,26.36594 -63.67075,26.36585 h -62.82927 v 106.39837 z"
     fill="#ffffff"
     id="path1071-9"
     style="stroke-width:0.999998" />
  <text
     xml:space="preserve"
     style="font-size:42.6667px;line-height:25px;font-family:Arial;-inkscape-font-specification:Arial;letter-spacing:0px;word-spacing:0px;fill:#ffffff;stroke:none;stroke-width:1px;stroke-linecap:butt;stroke-linejoin:miter;stroke-opacity:1;font-weight:normal;font-style:normal;font-stretch:normal;font-variant:normal;fill-opacity:1"
     x="33"
     y="83"
     id="text24607"><tspan
       sodipodi:role="line"
       id="tspan24605"
       x="33"
       y="83" /></text>
  <text
     xml:space="preserve"
     style="font-size:477.31px;line-height:279.674px;font-family:Arial;-inkscape-font-specification:Arial;letter-spacing:0px;word-spacing:0px;fill:none;stroke:#000000;stroke-width:0.999999px;stroke-linecap:butt;stroke-linejoin:miter;stroke-opacity:1"
     x="-5.4499154"
     y="376.51837"
     id="text27581"
     transform="scale(1.0761661,0.92922462)"><tspan
       sodipodi:role="line"
       id="tspan27579"
       x="-5.4499154"
       y="376.51837"
       style="fill:#ffffff;stroke:none;stroke-width:0.999999px">|</tspan></text>
  <text
     xml:space="preserve"
     style="font-size:477.31px;line-height:279.674px;font-family:Arial;-inkscape-font-specification:Arial;letter-spacing:0px;word-spacing:0px;fill:none;stroke:#000000;stroke-width:0.999999px;stroke-linecap:butt;stroke-linejoin:miter;stroke-opacity:1"
     x="337.45569"
     y="377.4978"
     id="text27581-3"
     transform="scale(1.0761661,0.92922459)"><tspan
       sodipodi:role="line"
       id="tspan27579-4"
       x="337.45569"
       y="377.4978"
       style="fill:#ffffff;stroke:none;stroke-width:0.999999px">|</tspan></text>
  <text
     xml:space="preserve"
     style="font-size:373.699px;line-height:218.963px;font-family:Arial;-inkscape-font-specification:Arial;letter-spacing:0px;word-spacing:0px;fill:#ffffff;fill-opacity:1;stroke:none;stroke-width:0.999998px;stroke-linecap:butt;stroke-linejoin:miter;stroke-opacity:1"
     x="189.27432"
     y="457"
     id="text35206"><tspan
       sodipodi:role="line"
       id="tspan35204"
       x="189.27432"
       y="457"
       style="font-style:normal;font-variant:normal;font-weight:bold;font-stretch:normal;font-family:Arial;-inkscape-font-specification:'Arial Bold';stroke-width:0.999998px">?</tspan></text>
</svg>
