<?xml version="1.0" encoding="iso-8859-1"?>
<!-- Generator: Adobe Illustrator 19.0.0, SVG Export Plug-In . SVG Version: 6.00 Build 0)  -->
<svg version="1.1" id="Layer_1" xmlns="http://www.w3.org/2000/svg" xmlns:xlink="http://www.w3.org/1999/xlink" x="0px" y="0px"
	 viewBox="0 0 512 512" style="enable-background:new 0 0 512 512;" xml:space="preserve">
<g>
	<g>
		<path d="M136.956,121.164c-21.208,0-38.401,17.193-38.401,38.401c0,12.585,6.055,23.756,15.41,30.759
			c3.407-3.011,7.47-5.392,12.071-6.886l48.446-15.728c0.567-2.627,0.874-5.35,0.874-8.145
			C175.358,138.357,158.165,121.164,136.956,121.164z"/>
	</g>
</g>
<g>
	<g>
		<path d="M175.599,337.126H97.588l0.007,156.498c0,9.761,7.913,17.674,17.674,17.674c9.761,0,17.674-7.913,17.674-17.674V352.356
			h7.631v141.268c0,9.761,7.913,17.674,17.674,17.674s17.674-7.913,17.674-17.674C175.92,335.887,175.599,337.126,175.599,337.126z"
			/>
	</g>
</g>
<g>
	<g>
		<path d="M211.615,324.43c-3.695,1.56-7.751,2.424-12.004,2.424h-4.367c-2.367,5.205-7.216,9.045-13.024,10.022l0.087,17.365
			c0.04,8.109,6.627,14.654,14.726,14.654c0.025,0,0.05,0,0.076,0c8.134-0.041,14.695-6.668,14.654-14.802L211.615,324.43z"/>
	</g>
</g>
<g>
	<g>
		<path d="M211.22,245.893c-0.03-6.087-1.64-11.807-4.43-16.785l-14.969,4.86c3.077,3.153,4.983,7.456,4.983,12.201v18.809h2.807
			v-0.001c4.145,0,8.1,0.825,11.717,2.311L211.22,245.893z"/>
	</g>
</g>
<g>
	<g>
		<path d="M78.649,326.855h-5.345c-3.971,0-7.764-0.76-11.255-2.129l-0.148,29.368c-0.04,8.134,6.52,14.761,14.654,14.802
			c0.025,0,0.05,0,0.076,0c8.099,0,14.686-6.545,14.726-14.654l0.087-17.409C85.739,335.795,80.985,331.991,78.649,326.855z"/>
	</g>
</g>
<g>
	<g>
		<path d="M104.078,226.511c-1.601-4.932-2.073-10.136-1.334-15.324l-5.446,0.027c-19.102,0-34.757,15.561-34.854,34.679
			l-0.106,21.099c3.411-1.297,7.105-2.014,10.965-2.014h3.787v-18.809c0-9.643,7.846-17.488,17.488-17.488h10.302
			C104.596,227.968,104.318,227.251,104.078,226.511z"/>
	</g>
</g>
<g>
	<g>
		<path d="M199.61,279.409h-10.024c-3.985,0-7.216-3.232-7.216-7.216v-26.025c0-1.685-1.371-3.055-3.055-3.055h-15.664
			l-16.501,5.357c-10.948,3.555-22.512,1.327-31.286-5.357H94.579c-1.685,0-3.055,1.371-3.055,3.055v26.025
			c0,3.985-3.232,7.216-7.216,7.216H73.305c-9.102,0-16.506,7.404-16.506,16.506c0,9.102,7.404,16.506,16.506,16.506h11.002
			c3.985,0,7.216,3.231,7.216,7.216c0,1.685,1.371,3.055,3.055,3.055h84.737c1.685,0,3.055-1.371,3.055-3.055
			c0-3.985,3.232-7.216,7.216-7.216h10.024c9.101,0,16.506-7.404,16.506-16.506C216.116,286.814,208.713,279.409,199.61,279.409z
			 M159.666,301.494h-45.418c-3.985,0-7.216-3.231-7.216-7.216s3.232-7.216,7.216-7.216h45.417c3.985,0,7.216,3.232,7.216,7.216
			S163.65,301.494,159.666,301.494z"/>
	</g>
</g>
<g>
	<g>
		<circle cx="351.537" cy="42.295" r="42.295"/>
	</g>
</g>
<g>
	<g>
		<path d="M454.444,144.25c-0.133-26.497-21.798-48.053-48.293-48.053c-13.358,0-94.381,0-106.081,0
			c-17.202,0-33.178,7.745-43.831,21.251c-3.861,4.895-35.542,45.05-40.522,51.363l-85.423,27.733
			c-10.721,3.48-16.589,14.992-13.109,25.712c3.481,10.721,14.991,16.589,25.712,13.109l91.31-29.644
			c3.838-1.247,7.22-3.602,9.72-6.771c5.031-6.376,39.683-50.3,44.355-56.222c1.288-1.633,3.47-2.27,5.434-1.588
			c1.965,0.682,3.28,2.535,3.28,4.614l0.01,341.758c0,13.525,10.964,24.488,24.489,24.488c13.525,0,24.489-10.964,24.489-24.488
			V291.769h10.574v195.743c0,13.525,10.964,24.488,24.489,24.488c13.525,0,24.489-10.964,24.489-24.488
			c0-91.664-0.422-248.127-0.443-343.114c0-2.358,1.91-4.271,4.268-4.272c2.358-0.001,4.271,1.91,4.272,4.267c0,0.02,0,0.04,0,0.06
			l0.754,149.926c0.057,11.236,9.182,20.305,20.406,20.305c0.035,0,0.07,0,0.105,0c11.271-0.057,20.361-9.24,20.305-20.51
			L454.444,144.25z"/>
	</g>
</g>
<g>
</g>
<g>
</g>
<g>
</g>
<g>
</g>
<g>
</g>
<g>
</g>
<g>
</g>
<g>
</g>
<g>
</g>
<g>
</g>
<g>
</g>
<g>
</g>
<g>
</g>
<g>
</g>
<g>
</g>
</svg>
