<?xml version="1.0" encoding="UTF-8" standalone="no"?>
<svg
   height="480"
   width="480"
   version="1.1"
   id="svg1097"
   sodipodi:docname="park_ride.svg"
   inkscape:version="1.1.2 (b8e25be833, 2022-02-05)"
   xmlns:inkscape="http://www.inkscape.org/namespaces/inkscape"
   xmlns:sodipodi="http://sodipodi.sourceforge.net/DTD/sodipodi-0.dtd"
   xmlns="http://www.w3.org/2000/svg"
   xmlns:svg="http://www.w3.org/2000/svg">
  <defs
     id="defs1101" />
  <sodipodi:namedview
     id="namedview1099"
     pagecolor="#ffffff"
     bordercolor="#666666"
     borderopacity="1.0"
     inkscape:pageshadow="2"
     inkscape:pageopacity="0.0"
     inkscape:pagecheckerboard="0"
     showgrid="false"
     inkscape:zoom="1"
     inkscape:cx="147"
     inkscape:cy="281"
     inkscape:window-width="1920"
     inkscape:window-height="1027"
     inkscape:window-x="-8"
     inkscape:window-y="-8"
     inkscape:window-maximized="1"
     inkscape:current-layer="svg1097" />
  <path
     d="m30.856274 5.7720243h420.004816c10.81582.7906802 23.07189 11.8437647 23.66646 24.8647647v418.806511c.04967 10.31854-11.79351 24.19224-25.16434 24.86477h-419.405663c-9.523815-.58318-24.4313132-15.37852-24.8647639-25.16434l.5991509-418.207366c-1.0815617-6.302442 14.286068-25.2982414 25.16434-25.1643397z"
     fill="#fff"
     fill-rule="evenodd"
     stroke="#000"
     stroke-width="2"
     id="path1067" />
  <path
     d="m35.1875 16.78125c-11.760613-.514916-18.473169 7.51921-18.03125 20.375v406.40625c.046553 8.6672 3.728171 19.07043 15.6875 19.28125l414.4375-.03125c11.95933-.2108 15.6722-10.61405 15.71875-19.28125v-406.4375c.44191-12.855791-6.27063-20.88992-18.03125-20.375z"
     fill="#039"
     fill-rule="evenodd"
     id="path1069" />
  <path
     style="fill:#003399;fill-opacity:1;fill-rule:evenodd;stroke:none;stroke-width:2;stroke-linecap:butt;stroke-linejoin:miter;stroke-miterlimit:4;stroke-dasharray:none;stroke-opacity:1"
     d="m 138.68707,237.5375 244.90212,0.33356 -23.52863,-63.40548 c -5.7464,-12.77582 -11.48808,-13.05163 -25.001,-12.73637 L 187.4121,161.2575 c -12.17477,-0.49383 -21.32877,0.51154 -25.47273,14.62323 z"
     id="path3253"
     sodipodi:nodetypes="ccccccc" />
  <ellipse
     style="fill:#003399;fill-opacity:1;stroke:none;stroke-width:2.00608;stroke-miterlimit:4;stroke-dasharray:none;stroke-dashoffset:0;stroke-opacity:1"
     id="path4224"
     cx="391.88199"
     cy="296.08105"
     rx="26.514458"
     ry="26.51446" />
  <ellipse
     style="fill:#003399;fill-opacity:1;stroke:none;stroke-width:2.00608;stroke-miterlimit:4;stroke-dasharray:none;stroke-dashoffset:0;stroke-opacity:1"
     id="path4226"
     cx="131.56807"
     cy="296.08102"
     rx="26.514458"
     ry="26.51446" />
  <g
     aria-label="P+R++"
     id="text10875"
     style="font-size:216.718px;line-height:126.983px;font-family:Ccrige;-inkscape-font-specification:Ccrige;letter-spacing:0px;word-spacing:0px;fill:#ffffff;stroke-width:1px">
    <path
       d="M 38.339318,323.58923 V 168.45809 h 50.264185 q 28.571217,0 37.248407,2.32802 13.33324,3.49204 22.32788,15.23799 8.99464,11.64012 8.99464,30.15851 0,14.28561 -5.18514,24.02099 -5.18515,9.73537 -13.22742,15.3438 -7.93645,5.50261 -16.19036,7.30153 -11.21685,2.22221 -32.486536,2.22221 H 69.661842 v 58.51809 z M 69.661842,194.70128 v 44.02085 h 17.142733 q 18.518385,0 24.761725,-2.43385 6.24334,-2.43384 9.73538,-7.61899 3.59786,-5.18515 3.59786,-12.06341 0,-8.46554 -4.97351,-13.96815 -4.97351,-5.5026 -12.5925,-6.87826 -5.60843,-1.05819 -22.539523,-1.05819 z"
       style="font-weight:bold;font-family:Arial;-inkscape-font-specification:'Arial Bold'"
       id="path20128" />
    <path
       d="M 216.75072,301.26135 V 260.94419 H 176.11609 V 233.1137 h 40.63463 v -40.31717 h 27.08975 v 40.31717 h 40.74044 v 27.83049 h -40.74044 v 40.31716 z"
       style="font-weight:bold;font-family:Arial;-inkscape-font-specification:'Arial Bold'"
       id="path20130" />
    <path
       d="M 309.55427,323.58923 V 168.45809 h 65.92545 q 24.86754,0 36.08439,4.23277 11.32267,4.12695 18.09511,14.81471 6.77243,10.68775 6.77243,24.44426 0,17.46019 -10.26447,28.88868 -10.26448,11.32267 -30.68761,14.28561 10.15866,5.92589 16.71946,13.01578 6.66661,7.0899 17.88346,25.185 l 18.94166,30.26433 h -37.46004 l -22.64534,-33.75637 q -12.0634,-18.0951 -16.50782,-22.75115 -4.44441,-4.76187 -9.41792,-6.45498 -4.97351,-1.79893 -15.76708,-1.79893 h -6.34916 v 64.76143 z m 31.32252,-89.52316 h 23.17444 q 22.53952,0 28.14794,-1.90474 5.60843,-1.90475 8.78301,-6.5608 3.17458,-4.65605 3.17458,-11.64013 0,-7.83063 -4.23278,-12.5925 -4.12695,-4.86769 -11.74594,-6.13752 -3.8095,-0.5291 -22.85698,-0.5291 h -24.44427 z"
       style="font-weight:bold;font-family:Arial;-inkscape-font-specification:'Arial Bold'"
       id="path20132" />
  </g>
</svg>
