<?xml version="1.0" encoding="UTF-8" standalone="no"?>
<svg
   height="480"
   width="480"
   version="1.1"
   id="svg1097"
   sodipodi:docname="bicycle.svg"
   inkscape:version="1.1.2 (b8e25be833, 2022-02-05)"
   xmlns:inkscape="http://www.inkscape.org/namespaces/inkscape"
   xmlns:sodipodi="http://sodipodi.sourceforge.net/DTD/sodipodi-0.dtd"
   xmlns="http://www.w3.org/2000/svg"
   xmlns:svg="http://www.w3.org/2000/svg">
  <defs
     id="defs1101" />
  <sodipodi:namedview
     id="namedview1099"
     pagecolor="#ffffff"
     bordercolor="#666666"
     borderopacity="1.0"
     inkscape:pageshadow="2"
     inkscape:pageopacity="0.0"
     inkscape:pagecheckerboard="0"
     showgrid="false"
     inkscape:zoom="0.047786458"
     inkscape:cx="230.19074"
     inkscape:cy="230.19074"
     inkscape:window-width="1920"
     inkscape:window-height="1027"
     inkscape:window-x="-8"
     inkscape:window-y="-8"
     inkscape:window-maximized="1"
     inkscape:current-layer="svg1097" />
  <path
     d="m30.856274 5.7720243h420.004816c10.81582.7906802 23.07189 11.8437647 23.66646 24.8647647v418.806511c.04967 10.31854-11.79351 24.19224-25.16434 24.86477h-419.405663c-9.523815-.58318-24.4313132-15.37852-24.8647639-25.16434l.5991509-418.207366c-1.0815617-6.302442 14.286068-25.2982414 25.16434-25.1643397z"
     fill="#fff"
     fill-rule="evenodd"
     stroke="#000"
     stroke-width="2"
     id="path1067" />
  <path
     d="m35.1875 16.78125c-11.760613-.514916-18.473169 7.51921-18.03125 20.375v406.40625c.046553 8.6672 3.728171 19.07043 15.6875 19.28125l414.4375-.03125c11.95933-.2108 15.6722-10.61405 15.71875-19.28125v-406.4375c.44191-12.855791-6.27063-20.88992-18.03125-20.375z"
     fill="#039"
     fill-rule="evenodd"
     id="path1069" />
  <path
     d="m 71.265846,63.862977 v 42.402303 h 29.591404 c 7.39777,7e-5 12.91608,-2.22529 16.55494,-6.676107 3.63869,-4.450656 5.45808,-9.292333 5.45817,-14.525043 -9e-5,-7.939057 -2.85698,-13.773127 -8.57068,-17.502232 -3.66893,-2.465836 -8.39031,-3.698813 -14.16418,-3.698921 z M 51.327737,176.45464 V 45.00748 h 47.725156 c 5.112267,1.31e-4 10.029127,0.541437 14.750587,1.623918 4.72132,1.082741 9.63817,3.608833 14.75059,7.578285 3.96949,3.067521 7.33761,7.292712 10.10438,12.675586 2.76657,5.383091 4.14991,11.623138 4.15002,18.720167 -1.1e-4,9.38272 -3.50356,18.314264 -10.51036,26.794654 -7.007,8.48051 -17.24669,12.72074 -30.71912,12.72069 H 71.265846 v 51.33386 z"
     fill="#ffffff"
     id="path1071"
     style="stroke-width:0.999999" />
  <g
     transform="matrix(1.0150432,0,0,0.99877819,-598.362,250.89489)"
     id="g1095"
     style="stroke-width:0.778855">
    <path
       d="m 278.91286,461.96271 a 78.380615,78.380615 0 1 1 -156.76123,0 78.380615,78.380615 0 1 1 156.76123,0 z"
       fill="none"
       stroke="#ffffff"
       stroke-width="20.2502"
       transform="matrix(-0.7941975,0,0,0.7941975,844.6956,-247.27632)"
       id="path1073" />
    <path
       d="m 278.91286,461.96271 a 78.380615,78.380615 0 1 1 -156.76123,0 78.380615,78.380615 0 1 1 156.76123,0 z"
       fill="none"
       stroke="#feffff"
       stroke-width="20.2501"
       transform="matrix(-0.7941975,0,0,0.7941975,1111.4801,-248.48899)"
       id="path1075" />
    <path
       d="M 902.90325,12.49531 742.83259,13.303766 686.24197,118.40065 H 794.57261 L 907.75387,41.599088"
       fill="none"
       stroke="#ffffff"
       stroke-linejoin="round"
       stroke-width="12.9126"
       id="path1077" />
    <g
       fill-rule="evenodd"
       id="g1093"
       style="stroke-width:0.606615">
      <path
         d="m 896.75233,-50.489179 c 8.69476,0 15.26685,-0.193997 22.00318,10.097112 1.93902,3.430606 2.82555,7.619347 2.10958,11.788871 -0.8589,4.741161 -3.66584,9.399295 -6.97487,12.156796 -4.38172,3.65146 -8.54009,3.369768 -7.86805,6.6522174 0.86229,4.211756 3.49387,10.06454804 6.33775,19.5683052 2.88674,9.6469374 6.31457,21.4538704 9.67929,33.0832904 3.36472,11.629395 6.66766,23.087549 9.28217,32.016084 1.30728,4.464256 2.44897,8.297569 3.32572,11.168398 0.8542,2.797045 1.60838,4.969726 1.53874,4.814826 2.72395,4.792567 3.09473,7.9154 7.66364,11.994539 5.12274,4.48336 9.2936,7.79542 10.74114,8.80717 3.67667,2.67084 5.3859,8.30735 3.44437,11.09239 -2.4468,3.79556 -7.5001,4.37779 -11.19339,3.24227 -3.50689,-1.11323 -9.05823,-3.02544 -15.49539,-8.35704 l -0.0496,-0.0744 -0.0745,-0.0496 c -8.95698,-7.6828 -12.27067,-17.0073 -12.60787,-17.546795 l -0.47156,-0.719747 -0.32265,-0.79419 c -0.77613,-1.910537 -1.24102,-3.59515 -2.15922,-6.601779 -0.9182,-3.006628 -2.0822,-6.890946 -3.40016,-11.391775 -2.63592,-9.001611 -5.9221,-20.477191 -9.28218,-32.090528 -3.3601,-11.613337 -6.77952,-23.360164 -9.62965,-32.884743 -2.85012,-9.5245782 -4.65075,-17.3470474 -5.31636,-19.011098 -1.62007,-4.050159 -2.44772,-8.42264 -1.34022,-12.806439 1.10748,-4.383799 4.41698,-7.921884 7.38779,-8.744348 6.78111,-1.897143 4.98184,-6.774717 1.51254,-6.781792 l -29.07237,-0.05919 -0.0717,-18.568328 c 1.9e-4,-4e-4 18.8708,-4e-4 30.30379,-4e-4 z"
         fill="#ffffff"
         stroke-linecap="round"
         stroke-width="19.4714"
         id="path1079" />
      <path
         d="M 792.49843,115.11004 737.61984,-19.228118"
         fill="#ffffff"
         stroke="#ffffff"
         stroke-width="15.4641"
         id="path1081" />
      <path
         d="M 817.07944,72.236162 772.49063,166.5587"
         fill="#fffffd"
         stroke="#ffffff"
         stroke-linecap="round"
         stroke-width="5.6444"
         id="path1083" />
      <path
         d="m 278.91286,461.96271 a 78.380615,78.380615 0 1 1 -156.76123,0 78.380615,78.380615 0 1 1 156.76123,0 z"
         fill="#fffeff"
         stroke="#ffffff"
         stroke-width="24.3821"
         transform="matrix(-0.3120051,0,0,0.3223192,856.53347,-30.297359)"
         id="path1085" />
      <path
         d="m 828.98308,75.129086 -29.28997,0.268487"
         fill="#ffffff"
         stroke="#ffffff"
         stroke-width="7.88669"
         id="path1087" />
      <path
         d="m 787.42188,162.59237 -29.28997,0.26849"
         fill="#ffffff"
         stroke="#ffffff"
         stroke-width="7.88669"
         id="path1089" />
      <path
         d="m 710.75194,-31.233245 h 68.88409 c 2.57244,0 5.89267,4.550466 2.57244,7.574403 -3.59097,3.417612 -35.87118,10.432639 -35.87118,10.432639 0,0 -8.8606,2.42952 -13.57675,1.857882 -4.71611,-0.571661 -21.0082,-2.00078 -22.0086,-19.864924 z"
         fill="#ffffff"
         stroke="#ffffff"
         stroke-width="0.618565pt"
         id="path1091" />
    </g>
  </g>
</svg>
