<?xml version="1.0" encoding="UTF-8" standalone="no"?>
<svg
   height="480"
   width="480"
   version="1.1"
   id="svg1097"
   sodipodi:docname="bus.svg"
   inkscape:version="1.1.2 (b8e25be833, 2022-02-05)"
   xmlns:inkscape="http://www.inkscape.org/namespaces/inkscape"
   xmlns:sodipodi="http://sodipodi.sourceforge.net/DTD/sodipodi-0.dtd"
   xmlns="http://www.w3.org/2000/svg"
   xmlns:svg="http://www.w3.org/2000/svg">
  <defs
     id="defs1101" />
  <sodipodi:namedview
     id="namedview1099"
     pagecolor="#ffffff"
     bordercolor="#666666"
     borderopacity="1.0"
     inkscape:pageshadow="2"
     inkscape:pageopacity="0.0"
     inkscape:pagecheckerboard="0"
     showgrid="false"
     inkscape:zoom="1"
     inkscape:cx="329"
     inkscape:cy="126"
     inkscape:window-width="1920"
     inkscape:window-height="1027"
     inkscape:window-x="-8"
     inkscape:window-y="-8"
     inkscape:window-maximized="1"
     inkscape:current-layer="svg1097" />
  <path
     d="m30.856274 5.7720243h420.004816c10.81582.7906802 23.07189 11.8437647 23.66646 24.8647647v418.806511c.04967 10.31854-11.79351 24.19224-25.16434 24.86477h-419.405663c-9.523815-.58318-24.4313132-15.37852-24.8647639-25.16434l.5991509-418.207366c-1.0815617-6.302442 14.286068-25.2982414 25.16434-25.1643397z"
     fill="#fff"
     fill-rule="evenodd"
     stroke="#000"
     stroke-width="2"
     id="path1067" />
  <path
     d="m35.1875 16.78125c-11.760613-.514916-18.473169 7.51921-18.03125 20.375v406.40625c.046553 8.6672 3.728171 19.07043 15.6875 19.28125l414.4375-.03125c11.95933-.2108 15.6722-10.61405 15.71875-19.28125v-406.4375c.44191-12.855791-6.27063-20.88992-18.03125-20.375z"
     fill="#039"
     fill-rule="evenodd"
     id="path1069" />
  <path
     d="m 71.265846,63.862977 v 42.402303 h 29.591404 c 7.39777,7e-5 12.91608,-2.22529 16.55494,-6.676107 3.63869,-4.450656 5.45808,-9.292333 5.45817,-14.525043 -9e-5,-7.939057 -2.85698,-13.773127 -8.57068,-17.502232 -3.66893,-2.465836 -8.39031,-3.698813 -14.16418,-3.698921 z M 51.327737,176.45464 V 45.00748 h 47.725156 c 5.112267,1.31e-4 10.029127,0.541437 14.750587,1.623918 4.72132,1.082741 9.63817,3.608833 14.75059,7.578285 3.96949,3.067521 7.33761,7.292712 10.10438,12.675586 2.76657,5.383091 4.14991,11.623138 4.15002,18.720167 -1.1e-4,9.38272 -3.50356,18.314264 -10.51036,26.794654 -7.007,8.48051 -17.24669,12.72074 -30.71912,12.72069 H 71.265846 v 51.33386 z"
     fill="#ffffff"
     id="path1071"
     style="stroke-width:0.999999" />
  <path
     d="m 415.23496,207.90021 h -36.484 l -1.6165,-2.88447 c -6.75864,-12.0614 -19.54582,-19.55442 -33.37004,-19.55442 H 39.099524 c -7.51023,0 -13.599024,6.08879 -13.599024,13.59902 v 201.95003 c 0,7.51023 6.088794,13.59902 13.599024,13.59902 h 23.761358 c 5.964006,21.4578 25.663299,37.25711 48.995788,37.25711 23.33249,0 43.03178,-15.79931 48.99579,-37.25711 h 133.199 c 5.96401,21.4578 25.6633,37.25711 48.99579,37.25711 23.33249,0 43.03178,-15.79931 48.99579,-37.25711 h 28.52051 c 7.51023,0 13.59902,-6.08879 13.59902,-13.59902 v -80.33336 c 0,-8.26613 -1.95357,-16.5423 -5.64988,-23.93348 -0.0961,-0.19076 -34.52325,-61.64671 -34.52325,-61.64671 h 21.24552 c 4.99869,0 9.06649,4.06637 9.06649,9.06506 v 22.2137 c 0,7.51023 6.0888,13.59903 13.59903,13.59903 7.51023,0 13.59902,-6.0888 13.59902,-13.59903 v -22.21083 c 10e-4,-19.99763 -16.2669,-36.26454 -36.26454,-36.26454 z m -116.38705,67.31667 h -48.27718 v -62.55751 h 48.27718 z m -182.91196,0 v -62.55751 h 48.27718 v 62.55751 z m 67.31667,-62.55751 h 48.27718 v 62.55751 h -48.27718 z m -86.354734,0 v 62.55751 H 52.698548 v -62.55751 z m 14.958784,212.01052 c -13.045368,0 -23.658086,-10.61272 -23.658086,-23.65809 0,-13.04537 10.612718,-23.65808 23.658086,-23.65808 13.04537,0 23.65808,10.61128 23.65808,23.65808 0,13.04537 -10.61271,23.65809 -23.65808,23.65809 z m 231.18914,0 c -13.04536,0 -23.65808,-10.61272 -23.65808,-23.65809 0,-13.04537 10.61272,-23.65808 23.65808,-23.65808 13.04537,0 23.65809,10.61271 23.65809,23.65808 0,13.04537 -10.61272,23.65809 -23.65809,23.65809 z m 48.99579,-37.25855 c -5.964,-21.4578 -25.6633,-37.25711 -48.99579,-37.25711 -23.33248,0 -43.03178,15.79931 -48.99578,37.25711 H 160.85246 c -5.96401,-21.4578 -25.6633,-37.25711 -48.99579,-37.25711 -23.332489,0 -43.031782,15.79931 -48.995788,37.25711 H 52.698548 V 302.41493 H 305.74854 l 101.21455,40.48582 v 44.50916 H 392.0416 Z m 13.81848,-74.24599 -87.97268,-35.18879 v -65.31719 h 25.87702 c 3.99465,0 7.68809,2.16442 9.64167,5.64988 0,0 52.04664,93.48486 52.45399,94.8561 z"
     id="path1459"
     style="stroke-width:0.999999;fill:#ffffff" />
</svg>
