<?xml version="1.0" encoding="UTF-8" standalone="no"?>
<svg
   height="480"
   width="480"
   version="1.1"
   id="svg1097"
   sodipodi:docname="pcaravan.svg"
   inkscape:version="1.1.2 (b8e25be833, 2022-02-05)"
   xmlns:inkscape="http://www.inkscape.org/namespaces/inkscape"
   xmlns:sodipodi="http://sodipodi.sourceforge.net/DTD/sodipodi-0.dtd"
   xmlns="http://www.w3.org/2000/svg"
   xmlns:svg="http://www.w3.org/2000/svg">
  <defs
     id="defs1101" />
  <sodipodi:namedview
     id="namedview1099"
     pagecolor="#ffffff"
     bordercolor="#666666"
     borderopacity="1.0"
     inkscape:pageshadow="2"
     inkscape:pageopacity="0.0"
     inkscape:pagecheckerboard="0"
     showgrid="false"
     inkscape:zoom="1"
     inkscape:cx="329"
     inkscape:cy="293"
     inkscape:window-width="1920"
     inkscape:window-height="1027"
     inkscape:window-x="-8"
     inkscape:window-y="-8"
     inkscape:window-maximized="1"
     inkscape:current-layer="svg1097" />
  <path
     d="m30.856274 5.7720243h420.004816c10.81582.7906802 23.07189 11.8437647 23.66646 24.8647647v418.806511c.04967 10.31854-11.79351 24.19224-25.16434 24.86477h-419.405663c-9.523815-.58318-24.4313132-15.37852-24.8647639-25.16434l.5991509-418.207366c-1.0815617-6.302442 14.286068-25.2982414 25.16434-25.1643397z"
     fill="#fff"
     fill-rule="evenodd"
     stroke="#000"
     stroke-width="2"
     id="path1067" />
  <path
     d="m35.1875 16.78125c-11.760613-.514916-18.473169 7.51921-18.03125 20.375v406.40625c.046553 8.6672 3.728171 19.07043 15.6875 19.28125l414.4375-.03125c11.95933-.2108 15.6722-10.61405 15.71875-19.28125v-406.4375c.44191-12.855791-6.27063-20.88992-18.03125-20.375z"
     fill="#039"
     fill-rule="evenodd"
     id="path1069" />
  <path
     d="m 71.265846,63.862977 v 42.402303 h 29.591404 c 7.39777,7e-5 12.91608,-2.22529 16.55494,-6.676107 3.63869,-4.450656 5.45808,-9.292333 5.45817,-14.525043 -9e-5,-7.939057 -2.85698,-13.773127 -8.57068,-17.502232 -3.66893,-2.465836 -8.39031,-3.698813 -14.16418,-3.698921 z M 51.327737,176.45464 V 45.00748 h 47.725156 c 5.112267,1.31e-4 10.029127,0.541437 14.750587,1.623918 4.72132,1.082741 9.63817,3.608833 14.75059,7.578285 3.96949,3.067521 7.33761,7.292712 10.10438,12.675586 2.76657,5.383091 4.14991,11.623138 4.15002,18.720167 -1.1e-4,9.38272 -3.50356,18.314264 -10.51036,26.794654 -7.007,8.48051 -17.24669,12.72074 -30.71912,12.72069 H 71.265846 v 51.33386 z"
     fill="#ffffff"
     id="path1071"
     style="stroke-width:0.999999" />
  <g
     id="g11516"
     transform="matrix(1.42785,0,0,1.42785,31.5835,109.24361)"
     style="stroke-width:0.700354;fill:#ffffff">
    <path
       d="m 143,132.941 c 0,-16.969 13.534,-30.725 30.501,-30.725 16.965,0 30.499,13.756 30.499,30.725 V 163.3 h 53.037 C 251.423,133.3 242.511,91.31 239.424,79.654 235.742,65.742 223.286,55.3 208.24,55.3 H 32.495 C 14.738,55.3 0,69.461 0,87.216 V 163.3 H 143 Z M 48,139.3 v -37 h 66 v 37 z"
       id="path11510"
       style="stroke-width:0.700354;fill:#ffffff" />
    <path
       d="m 81.075,210.097 c -8.679,0 -15.717,7.039 -15.717,15.713 0,8.686 7.038,15.723 15.717,15.723 8.68,0 15.717,-7.037 15.717,-15.723 0,-8.674 -7.037,-15.713 -15.717,-15.713 z"
       id="path11512"
       style="stroke-width:0.700354;fill:#ffffff" />
    <path
       d="m 288.975,210.3 h -31.688 c 1.075,-2 1.998,-3.81 2.708,-5.818 1.185,-3.35 1.83,-5.445 1.83,-10.447 -0.137,-2.861 -0.872,-8.734 -2.002,-14.734 H 204 v 31 h -61 v -31 H 0 v 14.365 C 0,211.417 14.738,226.3 32.495,226.3 H 48.21 c 0,-18 14.716,-32.861 32.865,-32.861 18.149,0 32.863,14.861 32.863,32.861 H 269 v 7.373 c 0,4.34 3.161,7.859 7.501,7.859 4.338,0 7.499,-3.52 7.499,-7.859 V 226.3 h 4.975 c 4.338,0 7.858,-3.657 7.858,-7.999 0,-4.338 -3.52,-8.001 -7.858,-8.001 z"
       id="path11514"
       style="stroke-width:0.700354;fill:#ffffff" />
  </g>
</svg>
