<?xml version="1.0" encoding="UTF-8" standalone="no"?>
<svg
   height="480"
   width="480"
   version="1.1"
   id="svg1097"
   sodipodi:docname="pcar_sharing.svg"
   inkscape:version="1.1.2 (b8e25be833, 2022-02-05)"
   xmlns:inkscape="http://www.inkscape.org/namespaces/inkscape"
   xmlns:sodipodi="http://sodipodi.sourceforge.net/DTD/sodipodi-0.dtd"
   xmlns="http://www.w3.org/2000/svg"
   xmlns:svg="http://www.w3.org/2000/svg">
  <defs
     id="defs1101" />
  <sodipodi:namedview
     id="namedview1099"
     pagecolor="#ffffff"
     bordercolor="#666666"
     borderopacity="1.0"
     inkscape:pageshadow="2"
     inkscape:pageopacity="0.0"
     inkscape:pagecheckerboard="0"
     showgrid="false"
     inkscape:zoom="1"
     inkscape:cx="329"
     inkscape:cy="293"
     inkscape:window-width="1920"
     inkscape:window-height="1027"
     inkscape:window-x="-8"
     inkscape:window-y="-8"
     inkscape:window-maximized="1"
     inkscape:current-layer="svg1097" />
  <path
     d="m30.856274 5.7720243h420.004816c10.81582.7906802 23.07189 11.8437647 23.66646 24.8647647v418.806511c.04967 10.31854-11.79351 24.19224-25.16434 24.86477h-419.405663c-9.523815-.58318-24.4313132-15.37852-24.8647639-25.16434l.5991509-418.207366c-1.0815617-6.302442 14.286068-25.2982414 25.16434-25.1643397z"
     fill="#fff"
     fill-rule="evenodd"
     stroke="#000"
     stroke-width="2"
     id="path1067" />
  <path
     d="m35.1875 16.78125c-11.760613-.514916-18.473169 7.51921-18.03125 20.375v406.40625c.046553 8.6672 3.728171 19.07043 15.6875 19.28125l414.4375-.03125c11.95933-.2108 15.6722-10.61405 15.71875-19.28125v-406.4375c.44191-12.855791-6.27063-20.88992-18.03125-20.375z"
     fill="#039"
     fill-rule="evenodd"
     id="path1069" />
  <path
     d="m 71.265846,63.862977 v 42.402303 h 29.591404 c 7.39777,7e-5 12.91608,-2.22529 16.55494,-6.676107 3.63869,-4.450656 5.45808,-9.292333 5.45817,-14.525043 -9e-5,-7.939057 -2.85698,-13.773127 -8.57068,-17.502232 -3.66893,-2.465836 -8.39031,-3.698813 -14.16418,-3.698921 z M 51.327737,176.45464 V 45.00748 h 47.725156 c 5.112267,1.31e-4 10.029127,0.541437 14.750587,1.623918 4.72132,1.082741 9.63817,3.608833 14.75059,7.578285 3.96949,3.067521 7.33761,7.292712 10.10438,12.675586 2.76657,5.383091 4.14991,11.623138 4.15002,18.720167 -1.1e-4,9.38272 -3.50356,18.314264 -10.51036,26.794654 -7.007,8.48051 -17.24669,12.72074 -30.71912,12.72069 H 71.265846 v 51.33386 z"
     fill="#ffffff"
     id="path1071"
     style="stroke-width:0.999999" />
  <g
     transform="matrix(0.41383021,0,0,0.49529611,-763.07788,-348.343)"
     id="g1946"
     style="fill:#ffffff;stroke-width:2.96443">
    <path
       d="m 95.872,81.671 c 22.55,0 40.834,-18.284 40.834,-40.836 C 136.706,18.284 118.422,0 95.872,0 73.319,0 55.038,18.284 55.038,40.835 c 0,22.552 18.281,40.836 40.834,40.836 z"
       transform="matrix(1.0380952,0,0,1.1492407,2194.3289,891.24668)"
       id="path1942"
       style="fill:#ffffff;stroke-width:2.96443" />
    <path
       d="m 2248.5,995.46875 c -30.0187,10e-6 -54.1562,27.10025 -54.1562,60.90625 v 14.3125 h 37.0312 v -1.9687 h 8.75 v 1.9687 h 107.4063 v -1.9687 h 8.5625 v 1.9687 h 36.75 V 1057.25 c 0,-31.1732 -21.8531,-61.71875 -54.8125,-61.71875 z"
       id="path1944"
       style="fill:#ffffff;stroke-width:2.96443" />
  </g>
  <path
     d="m 130.05676,342.4182 c -0.80728,-59.50886 -4.03646,-8.30357 31.83032,-96.52888 25.94861,-59.97016 -0.34599,-43.82435 133.89489,-46.01558 119.479,2.42188 95.37562,-14.8772 122.82349,48.78344 34.3675,81.53634 31.715,38.86526 31.48433,92.03112 -1.2686,58.35557 20.29761,43.36303 -160.53548,45.32358 -179.44917,-2.42185 -158.22895,12.80134 -159.49755,-43.59368 z m 36.32808,-57.43297 24.5647,-56.74097 c 4.58317,-10.07904 3.12094,-8.59118 13.83927,-8.64954 l 171.74357,-0.0183 c 9.29736,0.0342 7.93337,-0.56952 11.76338,8.30355 l 24.428,56.41353 -246.33892,0.69197 z m -17.56819,107.53623 45.93868,-0.10249 c -0.14106,57.67643 4.63871,54.4601 -20.41292,54.83169 -29.83131,-0.11526 -25.1157,2.896 -25.52576,-54.72918 z m 236.57457,0.41006 h 46.01555 c -0.30752,57.76612 3.8955,53.81936 -22.14282,53.97314 -26.9225,-0.35879 -23.50113,3.89549 -23.87273,-53.97314 z"
     fill-rule="evenodd"
     id="path1948"
     style="fill:#ffffff;stroke-width:0.999997" />
  <circle
     cx="171.66106"
     cy="327.43716"
     fill="#ffffff"
     r="22.432585"
     id="circle1950"
     style="fill:#003399;fill-opacity:1;stroke-width:0.999997" />
  <circle
     cx="407.79349"
     cy="327.43716"
     fill="#ffffff"
     r="22.432585"
     id="circle1952"
     style="fill:#003399;fill-opacity:1;stroke-width:0.999997" />
  <g
     transform="matrix(0.41383021,0,0,0.49529611,-660.83275,-348.343)"
     id="g1958"
     style="fill:#ffffff;stroke-width:2.96443">
    <path
       d="m 95.872,81.671 c 22.55,0 40.834,-18.284 40.834,-40.836 C 136.706,18.284 118.422,0 95.872,0 73.319,0 55.038,18.284 55.038,40.835 c 0,22.552 18.281,40.836 40.834,40.836 z"
       transform="matrix(1.0380952,0,0,1.1492407,2194.3289,891.24668)"
       id="path1954"
       style="fill:#ffffff;stroke-width:2.96443" />
    <path
       d="m 2248.5,995.46875 c -30.0187,10e-6 -54.1562,27.10025 -54.1562,60.90625 v 14.3125 h 37.0312 v -1.9687 h 8.75 v 1.9687 h 107.4063 v -1.9687 h 8.5625 v 1.9687 h 36.75 V 1057.25 c 0,-31.1732 -21.8531,-61.71875 -54.8125,-61.71875 z"
       id="path1956"
       style="fill:#ffffff;stroke-width:2.96443" />
  </g>
  <g
     transform="matrix(0.41383021,0,0,0.49529611,-558.58758,-348.343)"
     id="g1964"
     style="fill:#ffffff;stroke-width:2.96443">
    <path
       d="m 95.872,81.671 c 22.55,0 40.834,-18.284 40.834,-40.836 C 136.706,18.284 118.422,0 95.872,0 73.319,0 55.038,18.284 55.038,40.835 c 0,22.552 18.281,40.836 40.834,40.836 z"
       transform="matrix(1.0380952,0,0,1.1492407,2194.3289,891.24668)"
       id="path1960"
       style="fill:#ffffff;stroke-width:2.96443" />
    <path
       d="m 2248.5,995.46875 c -30.0187,10e-6 -54.1562,27.10025 -54.1562,60.90625 v 14.3125 h 37.0312 v -1.9687 h 8.75 v 1.9687 h 107.4063 v -1.9687 h 8.5625 v 1.9687 h 36.75 V 1057.25 c 0,-31.1732 -21.8531,-61.71875 -54.8125,-61.71875 z"
       id="path1962"
       style="fill:#ffffff;stroke-width:2.96443" />
  </g>
</svg>
