<?xml version="1.0" encoding="UTF-8" standalone="no"?>
<svg
   height="480"
   width="480"
   version="1.1"
   id="svg1097"
   sodipodi:docname="pcharging_station.svg"
   inkscape:version="1.1.2 (b8e25be833, 2022-02-05)"
   xmlns:inkscape="http://www.inkscape.org/namespaces/inkscape"
   xmlns:sodipodi="http://sodipodi.sourceforge.net/DTD/sodipodi-0.dtd"
   xmlns="http://www.w3.org/2000/svg"
   xmlns:svg="http://www.w3.org/2000/svg">
  <defs
     id="defs1101" />
  <sodipodi:namedview
     id="namedview1099"
     pagecolor="#ffffff"
     bordercolor="#666666"
     borderopacity="1.0"
     inkscape:pageshadow="2"
     inkscape:pageopacity="0.0"
     inkscape:pagecheckerboard="0"
     showgrid="false"
     inkscape:zoom="1"
     inkscape:cx="329"
     inkscape:cy="293"
     inkscape:window-width="1920"
     inkscape:window-height="1027"
     inkscape:window-x="-8"
     inkscape:window-y="-8"
     inkscape:window-maximized="1"
     inkscape:current-layer="svg1097" />
  <path
     d="m30.856274 5.7720243h420.004816c10.81582.7906802 23.07189 11.8437647 23.66646 24.8647647v418.806511c.04967 10.31854-11.79351 24.19224-25.16434 24.86477h-419.405663c-9.523815-.58318-24.4313132-15.37852-24.8647639-25.16434l.5991509-418.207366c-1.0815617-6.302442 14.286068-25.2982414 25.16434-25.1643397z"
     fill="#fff"
     fill-rule="evenodd"
     stroke="#000"
     stroke-width="2"
     id="path1067" />
  <path
     d="m35.1875 16.78125c-11.760613-.514916-18.473169 7.51921-18.03125 20.375v406.40625c.046553 8.6672 3.728171 19.07043 15.6875 19.28125l414.4375-.03125c11.95933-.2108 15.6722-10.61405 15.71875-19.28125v-406.4375c.44191-12.855791-6.27063-20.88992-18.03125-20.375z"
     fill="#039"
     fill-rule="evenodd"
     id="path1069" />
  <path
     d="m 71.265846,63.862977 v 42.402303 h 29.591404 c 7.39777,7e-5 12.91608,-2.22529 16.55494,-6.676107 3.63869,-4.450656 5.45808,-9.292333 5.45817,-14.525043 -9e-5,-7.939057 -2.85698,-13.773127 -8.57068,-17.502232 -3.66893,-2.465836 -8.39031,-3.698813 -14.16418,-3.698921 z M 51.327737,176.45464 V 45.00748 h 47.725156 c 5.112267,1.31e-4 10.029127,0.541437 14.750587,1.623918 4.72132,1.082741 9.63817,3.608833 14.75059,7.578285 3.96949,3.067521 7.33761,7.292712 10.10438,12.675586 2.76657,5.383091 4.14991,11.623138 4.15002,18.720167 -1.1e-4,9.38272 -3.50356,18.314264 -10.51036,26.794654 -7.007,8.48051 -17.24669,12.72074 -30.71912,12.72069 H 71.265846 v 51.33386 z"
     fill="#ffffff"
     id="path1071"
     style="stroke-width:0.999999" />
  <path
     d="m 166.36067,125.49999 c -28.68987,0 -54.15366,24.49273 -54.15366,54.14137 V 445.49899 H 284.51416 V 251.65343 c 0,0 21.53839,-3.07691 21.53839,21.53841 v 98.46122 c 0,49.23062 45.90017,52.30753 52.30753,52.30753 6.78521,0 52.30754,-3.07642 52.30754,-52.30753 v -98.46122 c 0,0 41.5398,0.42831 41.23063,-73.07671 h -20.92302 v -44.2982 c 0,-13.96081 -23.38453,-13.87687 -23.38453,-0.768 v 44.29699 H 382.97538 V 155.0477 c 0,-13.44463 -23.38454,-13.42001 -23.38454,0 v 44.29822 h -20.923 c 0.30768,73.5109 41.23063,73.84592 41.23063,73.84592 v 98.46122 c 0,21.51772 -18.88338,21.5384 -21.53839,21.5384 -2.65501,0 -21.53841,-1.05354 -21.53841,-21.5384 v -98.46122 c 0,-31.52999 -27.69221,-47.39679 -52.30751,-47.39679 v -46.15369 c 0,-30.09123 -25.02147,-54.14137 -54.15369,-54.14137 z m 19.69226,73.84593 h 49.23061 l -30.76914,49.2306 h 36.92297 l -67.69209,98.46124 h -12.30766 l 24.61531,-73.84592 h -30.76914 z"
     fill="#008000"
     id="path11767"
     style="stroke-width:1;fill:#ffffff" />
</svg>
