<?xml version="1.0" encoding="UTF-8" standalone="no"?>
<svg
   height="480"
   width="480"
   version="1.1"
   id="svg1097"
   sodipodi:docname="pcustomers.svg"
   inkscape:version="1.1.2 (b8e25be833, 2022-02-05)"
   xmlns:inkscape="http://www.inkscape.org/namespaces/inkscape"
   xmlns:sodipodi="http://sodipodi.sourceforge.net/DTD/sodipodi-0.dtd"
   xmlns="http://www.w3.org/2000/svg"
   xmlns:svg="http://www.w3.org/2000/svg">
  <defs
     id="defs1101" />
  <sodipodi:namedview
     id="namedview1099"
     pagecolor="#ffffff"
     bordercolor="#666666"
     borderopacity="1.0"
     inkscape:pageshadow="2"
     inkscape:pageopacity="0.0"
     inkscape:pagecheckerboard="0"
     showgrid="false"
     inkscape:zoom="1"
     inkscape:cx="230"
     inkscape:cy="230"
     inkscape:window-width="1920"
     inkscape:window-height="1027"
     inkscape:window-x="-8"
     inkscape:window-y="-8"
     inkscape:window-maximized="1"
     inkscape:current-layer="svg1097" />
  <path
     d="m30.856274 5.7720243h420.004816c10.81582.7906802 23.07189 11.8437647 23.66646 24.8647647v418.806511c.04967 10.31854-11.79351 24.19224-25.16434 24.86477h-419.405663c-9.523815-.58318-24.4313132-15.37852-24.8647639-25.16434l.5991509-418.207366c-1.0815617-6.302442 14.286068-25.2982414 25.16434-25.1643397z"
     fill="#fff"
     fill-rule="evenodd"
     stroke="#000"
     stroke-width="2"
     id="path1067" />
  <path
     d="m35.1875 16.78125c-11.760613-.514916-18.473169 7.51921-18.03125 20.375v406.40625c.046553 8.6672 3.728171 19.07043 15.6875 19.28125l414.4375-.03125c11.95933-.2108 15.6722-10.61405 15.71875-19.28125v-406.4375c.44191-12.855791-6.27063-20.88992-18.03125-20.375z"
     fill="#039"
     fill-rule="evenodd"
     id="path1069" />
  <path
     d="m 71.265846,63.862977 v 42.402303 h 29.591404 c 7.39777,7e-5 12.91608,-2.22529 16.55494,-6.676107 3.63869,-4.450656 5.45808,-9.292333 5.45817,-14.525043 -9e-5,-7.939057 -2.85698,-13.773127 -8.57068,-17.502232 -3.66893,-2.465836 -8.39031,-3.698813 -14.16418,-3.698921 z M 51.327737,176.45464 V 45.00748 h 47.725156 c 5.112267,1.31e-4 10.029127,0.541437 14.750587,1.623918 4.72132,1.082741 9.63817,3.608833 14.75059,7.578285 3.96949,3.067521 7.33761,7.292712 10.10438,12.675586 2.76657,5.383091 4.14991,11.623138 4.15002,18.720167 -1.1e-4,9.38272 -3.50356,18.314264 -10.51036,26.794654 -7.007,8.48051 -17.24669,12.72074 -30.71912,12.72069 H 71.265846 v 51.33386 z"
     fill="#ffffff"
     id="path1071"
     style="stroke-width:0.999999" />
  <rect
     x="-456.63797"
     y="-457.9642"
     transform="rotate(179.96789)"
     stroke-miterlimit="500"
     width="331.60336"
     height="331.60278"
     id="rect17"
     style="fill:none;stroke:#000000;stroke-width:0.01;stroke-linecap:round;stroke-linejoin:round;stroke-miterlimit:500" />
  <g
     id="g22106"
     transform="matrix(0.71679743,0,0,0.71679743,107.89502,90.9995)"
     style="stroke-width:1.39509;fill:#ffffff">
    <g
       id="g22104"
       style="stroke-width:1.39509;fill:#ffffff">
      <g
         id="g22102"
         style="stroke-width:1.39509;fill:#ffffff">
        <path
           d="m 180.545,204.8 c -4.465,0 -8.084,3.619 -8.084,8.084 v 37.008 c 0,4.466 3.62,8.084 8.084,8.084 4.465,0 8.084,-3.618 8.084,-8.084 v -37.008 c 0,-4.465 -3.62,-8.084 -8.084,-8.084 z"
           id="path22086"
           style="stroke-width:1.39509;fill:#ffffff" />
        <path
           d="m 126.652,102.4 c 28.23,0 51.199,-22.969 51.199,-51.2 C 177.851,22.969 154.883,0 126.652,0 98.421,0 75.453,22.969 75.453,51.2 c 0,28.231 22.969,51.2 51.199,51.2 z m 0,-86.232 c 19.316,0 35.029,15.715 35.029,35.032 0,19.317 -15.715,35.032 -35.031,35.032 -19.316,0 -35.03,-15.715 -35.03,-35.032 0,-19.317 15.716,-35.032 35.032,-35.032 z"
           id="path22088"
           style="stroke-width:1.39509;fill:#ffffff" />
        <path
           d="m 379.95,363.788 v 43.116 c 0,4.466 3.62,8.084 8.084,8.084 4.465,0 8.084,-3.619 8.084,-8.084 v -43.116 c 0,-4.465 -3.62,-8.084 -8.084,-8.084 -4.465,0 -8.084,3.619 -8.084,8.084 z"
           id="path22090"
           style="stroke-width:1.39509;fill:#ffffff" />
        <path
           d="m 272.163,363.788 v 43.116 c 0,4.466 3.62,8.084 8.084,8.084 4.465,0 8.084,-3.619 8.084,-8.084 v -43.116 c 0,-4.466 -3.62,-8.084 -8.084,-8.084 -4.464,0 -8.084,3.62 -8.084,8.084 z"
           id="path22092"
           style="stroke-width:1.39509;fill:#ffffff" />
        <path
           d="m 440.742,229.547 -10.234,-3.383 c -4.243,-1.398 -8.812,0.9 -10.213,5.138 -1.401,4.24 0.899,8.813 5.138,10.214 l 10.234,3.383 c 0.843,0.278 1.698,0.411 2.538,0.411 3.392,0 6.551,-2.153 7.675,-5.549 1.4,-4.24 -0.9,-8.813 -5.138,-10.214 z"
           id="path22094"
           style="stroke-width:1.39509;fill:#ffffff" />
        <path
           d="m 326.057,363.788 v 43.116 c 0,4.466 3.62,8.084 8.084,8.084 4.464,0 8.084,-3.619 8.084,-8.084 v -43.116 c 0,-4.466 -3.62,-8.084 -8.084,-8.084 -4.464,0 -8.084,3.62 -8.084,8.084 z"
           id="path22096"
           style="stroke-width:1.39509;fill:#ffffff" />
        <path
           d="m 450.891,198.844 -10.234,-3.384 c -4.242,-1.398 -8.812,0.901 -10.213,5.138 -1.401,4.24 0.899,8.813 5.138,10.214 l 10.233,3.383 c 0.843,0.278 1.698,0.411 2.539,0.411 3.392,0 6.551,-2.153 7.675,-5.549 1.402,-4.24 -0.899,-8.812 -5.138,-10.213 z"
           id="path22098"
           style="stroke-width:1.39509;fill:#ffffff" />
        <path
           d="m 464.365,269.687 24.013,-72.64 c 3.389,-10.252 2.584,-21.209 -2.269,-30.854 -4.852,-9.644 -13.17,-16.823 -23.42,-20.212 -21.159,-6.993 -44.069,4.529 -51.064,25.691 l -6.686,20.23 c -9.669,-5.635 -20.727,-8.66 -32.062,-8.66 -22.255,0 -43.005,11.861 -54.456,30.675 -2.055,-0.239 -4.119,-0.36 -6.177,-0.36 -29.531,0 -53.556,24.026 -53.556,53.557 0,0.786 0.017,1.572 0.052,2.357 h -27 v -78.147 c 0,-40.119 -32.638,-72.758 -72.756,-72.758 H 94.313 c -40.117,0 -72.756,32.639 -72.756,72.758 v 107.79 c 0,16.344 13.297,29.642 29.641,29.642 h 2.695 v 153.083 c 0,16.331 12.549,29.57 28.568,30.14 8.114,0.28 15.816,-2.657 21.656,-8.292 5.841,-5.637 9.059,-13.213 9.059,-21.33 v -97.01 c 0,-7.43 6.045,-13.474 13.474,-13.474 7.43,0 13.474,6.044 13.474,13.474 v 96.493 c 0,16.331 12.549,29.57 28.569,30.14 0.364,0.013 0.728,0.021 1.09,0.021 7.72,-10e-4 14.988,-2.93 20.566,-8.313 5.841,-5.637 9.059,-13.213 9.059,-21.33 v -64.674 c 0,-4.466 -3.62,-8.084 -8.084,-8.084 -4.465,0 -8.084,3.618 -8.084,8.084 v 64.674 c 0,3.69 -1.463,7.134 -4.119,9.697 -2.653,2.561 -6.144,3.872 -9.853,3.768 -7.154,-0.255 -12.975,-6.528 -12.975,-13.982 v -96.493 c 0,-16.344 -13.297,-29.642 -29.641,-29.642 -16.344,0 -29.642,13.295 -29.642,29.639 v 97.01 c 0,3.69 -1.463,7.134 -4.119,9.697 -2.653,2.561 -6.141,3.872 -9.853,3.768 -7.154,-0.255 -12.975,-6.528 -12.975,-13.982 V 328.756 h 56.588 c 16.344,0 29.641,-13.298 29.641,-29.642 0,-4.848 -1.171,-9.429 -3.243,-13.474 h 231.902 c 0.125,0.002 0.249,0.002 0.374,0 h 67.74 c 0.125,0.002 0.249,0.002 0.374,0 h 7.35 c 7.43,0 13.474,6.044 13.474,13.474 0,7.43 -6.045,13.474 -13.474,13.474 h -3.935 c -0.078,-0.001 -0.155,-0.001 -0.233,0 h -28.167 c -4.465,0 -8.084,3.619 -8.084,8.084 0,4.465 3.62,8.084 8.084,8.084 h 19.141 l -14.019,112.156 c -0.842,6.728 -6.589,11.802 -13.37,11.802 h -4.218 c -6.379,-6.64 -15.343,-10.779 -25.256,-10.779 -9.913,0 -18.877,4.139 -25.256,10.779 h -46.497 c -6.379,-6.64 -15.343,-10.779 -25.256,-10.779 -9.913,0 -18.877,4.139 -25.256,10.779 h -19.088 c -5.585,0 -10.655,-3.513 -12.616,-8.743 L 193.559,328.757 h 202.563 c 4.465,0 8.084,-3.619 8.084,-8.084 0,-4.466 -3.62,-8.084 -8.084,-8.084 h -214.04 c -0.125,-0.002 -0.25,-0.002 -0.374,0 H 169.77 c -4.465,0 -8.084,3.618 -8.084,8.084 0,4.466 3.62,8.084 8.084,8.084 h 6.523 l 45.334,120.892 c 4.314,11.504 15.467,19.234 27.754,19.234 h 10.254 c -0.617,2.596 -0.942,5.303 -0.942,8.084 0,19.317 15.715,35.032 35.03,35.032 19.315,0 35.031,-15.715 35.031,-35.032 0,-2.781 -0.327,-5.489 -0.942,-8.084 h 28.829 c -0.617,2.596 -0.942,5.303 -0.942,8.084 0,19.317 15.715,35.032 35.03,35.032 19.315,0 35.031,-15.715 35.031,-35.032 0,-2.906 -0.356,-5.729 -1.026,-8.431 12.879,-1.993 23.222,-12.342 24.881,-25.618 l 14.29,-114.323 c 14.887,-1.562 26.527,-14.187 26.527,-29.48 0,-15.135 -11.4,-27.656 -26.067,-29.428 z M 215.576,269.474 H 80.842 v -56.589 c 0,-4.466 -3.62,-8.084 -8.084,-8.084 -4.464,0 -8.084,3.619 -8.084,8.084 v 64.674 c 0,4.466 3.62,8.084 8.084,8.084 h 53.894 c 7.43,0 13.474,6.044 13.474,13.474 0,7.43 -6.045,13.474 -13.474,13.474 H 51.201 c -7.43,0 -13.474,-6.044 -13.474,-13.474 v -107.79 c 0,-31.204 25.384,-56.589 56.587,-56.589 h 64.672 c 31.203,0 56.588,25.387 56.588,56.589 h 10e-4 v 78.147 z m 163.719,0 H 274.931 c -0.05,-0.784 -0.073,-1.572 -0.073,-2.357 0,-20.616 16.773,-37.389 37.389,-37.389 2.887,0 5.794,0.342 8.643,1.015 3.697,0.871 7.503,-0.943 9.148,-4.368 7.868,-16.381 24.683,-26.965 42.84,-26.965 9.621,0 18.973,2.919 26.834,8.304 z m 68.115,-10e-4 h -51.086 l 20.488,-61.976 c 0.031,-0.091 0.061,-0.181 0.089,-0.273 l 10.075,-30.476 c 4.197,-12.698 17.94,-19.617 30.639,-15.415 6.15,2.033 11.141,6.34 14.052,12.127 2.911,5.786 3.395,12.361 1.361,18.511 z M 293.72,495.831 c -10.402,0 -18.863,-8.463 -18.863,-18.863 0,-10.401 8.461,-18.863 18.863,-18.863 10.402,0 18.863,8.463 18.863,18.863 0,10.4 -8.461,18.863 -18.863,18.863 z m 97.009,0 c -10.402,0 -18.863,-8.463 -18.863,-18.863 0,-10.401 8.461,-18.863 18.863,-18.863 10.402,0 18.863,8.463 18.863,18.863 0,10.4 -8.462,18.863 -18.863,18.863 z"
           id="path22100"
           style="stroke-width:1.39509;fill:#ffffff" />
      </g>
    </g>
  </g>
</svg>
