<?xml version="1.0" encoding="UTF-8" standalone="no"?>
<svg
   height="480"
   width="480"
   version="1.1"
   id="svg1097"
   sodipodi:docname="pcustomers.svg"
   inkscape:version="1.1.2 (b8e25be833, 2022-02-05)"
   xmlns:inkscape="http://www.inkscape.org/namespaces/inkscape"
   xmlns:sodipodi="http://sodipodi.sourceforge.net/DTD/sodipodi-0.dtd"
   xmlns="http://www.w3.org/2000/svg"
   xmlns:svg="http://www.w3.org/2000/svg">
  <defs
     id="defs1101" />
  <sodipodi:namedview
     id="namedview1099"
     pagecolor="#ffffff"
     bordercolor="#666666"
     borderopacity="1.0"
     inkscape:pageshadow="2"
     inkscape:pageopacity="0.0"
     inkscape:pagecheckerboard="0"
     showgrid="false"
     inkscape:zoom="0.5"
     inkscape:cx="200"
     inkscape:cy="278"
     inkscape:window-width="1920"
     inkscape:window-height="1027"
     inkscape:window-x="-8"
     inkscape:window-y="-8"
     inkscape:window-maximized="1"
     inkscape:current-layer="g22106" />
  <path
     d="m30.856274 5.7720243h420.004816c10.81582.7906802 23.07189 11.8437647 23.66646 24.8647647v418.806511c.04967 10.31854-11.79351 24.19224-25.16434 24.86477h-419.405663c-9.523815-.58318-24.4313132-15.37852-24.8647639-25.16434l.5991509-418.207366c-1.0815617-6.302442 14.286068-25.2982414 25.16434-25.1643397z"
     fill="#fff"
     fill-rule="evenodd"
     stroke="#000"
     stroke-width="2"
     id="path1067" />
  <path
     d="m35.1875 16.78125c-11.760613-.514916-18.473169 7.51921-18.03125 20.375v406.40625c.046553 8.6672 3.728171 19.07043 15.6875 19.28125l414.4375-.03125c11.95933-.2108 15.6722-10.61405 15.71875-19.28125v-406.4375c.44191-12.855791-6.27063-20.88992-18.03125-20.375z"
     fill="#039"
     fill-rule="evenodd"
     id="path1069" />
  <path
     d="m 71.265846,63.862977 v 42.402303 h 29.591404 c 7.39777,7e-5 12.91608,-2.22529 16.55494,-6.676107 3.63869,-4.450656 5.45808,-9.292333 5.45817,-14.525043 -9e-5,-7.939057 -2.85698,-13.773127 -8.57068,-17.502232 -3.66893,-2.465836 -8.39031,-3.698813 -14.16418,-3.698921 z M 51.327737,176.45464 V 45.00748 h 47.725156 c 5.112267,1.31e-4 10.029127,0.541437 14.750587,1.623918 4.72132,1.082741 9.63817,3.608833 14.75059,7.578285 3.96949,3.067521 7.33761,7.292712 10.10438,12.675586 2.76657,5.383091 4.14991,11.623138 4.15002,18.720167 -1.1e-4,9.38272 -3.50356,18.314264 -10.51036,26.794654 -7.007,8.48051 -17.24669,12.72074 -30.71912,12.72069 H 71.265846 v 51.33386 z"
     fill="#ffffff"
     id="path1071"
     style="stroke-width:0.999999" />
  <rect
     x="-456.63797"
     y="-457.9642"
     transform="rotate(179.96789)"
     stroke-miterlimit="500"
     width="331.60336"
     height="331.60278"
     id="rect17"
     style="fill:none;stroke:#000000;stroke-width:0.01;stroke-linecap:round;stroke-linejoin:round;stroke-miterlimit:500" />
  <g
     id="g22106"
     transform="matrix(0.71679743,0,0,0.71679743,107.89502,90.9995)"
     style="stroke-width:1.39509;fill:#ffffff">
    <path
       d="m 180.545,204.8 c -4.465,0 -8.084,3.619 -8.084,8.084 v 37.008 c 0,4.466 3.62,8.084 8.084,8.084 4.465,0 8.084,-3.618 8.084,-8.084 v -37.008 c 0,-4.465 -3.62,-8.084 -8.084,-8.084 z"
       id="path22086"
       style="fill:#ffffff;stroke-width:1.39509" />
    <path
       d="m 126.652,102.4 c 28.23,0 51.199,-22.969 51.199,-51.2 C 177.851,22.969 154.883,0 126.652,0 98.421,0 75.453,22.969 75.453,51.2 c 0,28.231 22.969,51.2 51.199,51.2 z m -2.21958,-35.674868 c 19.316,0 -0.97754,-19.305062 -0.97754,0.01194 0,19.317 20.29154,0.01194 0.97554,0.01194 -19.316,0 -1.24304,19.058442 -1.24304,-0.258558 0,-19.317 -18.07096,0.234682 1.24504,0.234682 z"
       id="path22088"
       style="fill:#ffffff;fill-opacity:1;stroke:none;stroke-width:1.39509"
       sodipodi:nodetypes="ssssssssss" />
    <path
       d="m 379.95,363.788 v 43.116 c 0,4.466 3.62,8.084 8.084,8.084 4.465,0 8.084,-3.619 8.084,-8.084 v -43.116 c 0,-4.465 -3.62,-8.084 -8.084,-8.084 -4.465,0 -8.084,3.619 -8.084,8.084 z"
       id="path22090"
       style="fill:#003399;stroke-width:1.39509;fill-opacity:1" />
    <path
       d="m 272.163,363.788 v 43.116 c 0,4.466 3.62,8.084 8.084,8.084 4.465,0 8.084,-3.619 8.084,-8.084 v -43.116 c 0,-4.466 -3.62,-8.084 -8.084,-8.084 -4.464,0 -8.084,3.62 -8.084,8.084 z"
       id="path22092"
       style="fill:#003399;stroke-width:1.39509;fill-opacity:1" />
    <path
       d="m 440.742,229.547 -10.234,-3.383 c -4.243,-1.398 -8.812,0.9 -10.213,5.138 -1.401,4.24 0.899,8.813 5.138,10.214 l 10.234,3.383 c 0.843,0.278 1.698,0.411 2.538,0.411 3.392,0 6.551,-2.153 7.675,-5.549 1.4,-4.24 -0.9,-8.813 -5.138,-10.214 z"
       id="path22094"
       style="fill:#003399;stroke-width:1.39509;fill-opacity:1" />
    <path
       d="m 326.057,363.788 v 43.116 c 0,4.466 3.62,8.084 8.084,8.084 4.464,0 8.084,-3.619 8.084,-8.084 v -43.116 c 0,-4.466 -3.62,-8.084 -8.084,-8.084 -4.464,0 -8.084,3.62 -8.084,8.084 z"
       id="path22096"
       style="fill:#003399;stroke-width:1.39509;fill-opacity:1" />
    <path
       d="m 450.891,198.844 -10.234,-3.384 c -4.242,-1.398 -8.812,0.901 -10.213,5.138 -1.401,4.24 0.899,8.813 5.138,10.214 l 10.233,3.383 c 0.843,0.278 1.698,0.411 2.539,0.411 3.392,0 6.551,-2.153 7.675,-5.549 1.402,-4.24 -0.899,-8.812 -5.138,-10.213 z"
       id="path22098"
       style="fill:#003399;stroke-width:1.39509;fill-opacity:1" />
    <path
       d="m 447.41,269.473 25.618,-77.502 c 3.389,-10.252 3.492,-8.866 -1.361,-18.511 -4.852,-9.644 -3.802,-8.738 -14.052,-12.127 -21.159,-6.993 -23.644,-5.747 -30.639,15.415 l -10.164,30.749 c -9.669,-5.635 -32.35338,-7.73145 -43.68838,-7.73145 -22.255,0 -40.78262,12.16345 -52.23362,30.97745 -2.055,-0.239 -27.32094,6.11884 -10.37234,6.98278 29.49271,1.50336 -35.30611,2.0768 -35.30611,31.6078 0,0.786 -16.50655,-0.64758 -16.47155,0.13742 h -27 v -78.147 c 0,-40.119 -32.638,-72.758 -72.756,-72.758 H 94.313 c -40.117,0 -72.756,32.639 -72.756,72.758 v 107.79 c 0,16.344 13.297,29.642 29.641,29.642 h 2.695 v 153.083 c 0,16.331 12.549,29.57 28.568,30.14 8.114,0.28 15.816,-2.657 21.656,-8.292 5.841,-5.637 9.059,-13.213 9.059,-21.33 v -97.01 c 0,-7.43 6.045,-13.474 13.474,-13.474 7.43,0 13.474,6.044 13.474,13.474 v 96.493 c 0,16.331 12.549,29.57 28.569,30.14 0.364,0.013 0.728,0.021 1.09,0.021 7.72,-10e-4 14.988,-2.93 20.566,-8.313 5.841,-5.637 8.99615,-13.21324 9.059,-21.33 l 1.04632,-135.12626 c 0.0346,-4.46587 -4.27317,-8.084 -8.084,-8.084 -3.81083,0 -8.04942,3.61813 -8.084,8.084 L 183.24,482.358 c -0.0286,3.68989 -1.463,7.134 -4.119,9.697 -2.653,2.561 -6.144,3.872 -9.853,3.768 -7.154,-0.255 -12.975,-6.528 -12.975,-13.982 v -96.493 c 0,-16.344 -13.297,-29.642 -29.641,-29.642 -16.344,0 -29.642,13.295 -29.642,29.639 v 97.01 c 0,3.69 -1.463,7.134 -4.119,9.697 -2.653,2.561 -6.141,3.872 -9.853,3.768 -7.154,-0.255 -12.975,-6.528 -12.975,-13.982 V 328.756 h 56.588 c 16.344,0 29.641,-13.298 29.641,-29.642 0,-4.848 -1.171,-9.429 -3.243,-13.474 h 231.902 c 0.125,0.002 0.249,0.002 0.374,0 h 67.74 c 0.125,0.002 0.249,0.002 0.374,0 h 7.35 c 7.43,0 13.474,6.044 13.474,13.474 0,7.43 -6.045,13.474 -13.474,13.474 h -3.935 c -0.078,-0.001 -0.155,-0.001 -0.233,0 h -28.167 c -4.465,0 -8.084,3.619 -8.084,8.084 0,4.465 3.62,8.084 8.084,8.084 h 19.141 l -14.019,112.156 c -0.842,6.728 -6.589,11.802 -13.37,11.802 h -4.218 c -6.379,-6.64 -15.343,-10.779 -25.256,-10.779 -9.913,0 -18.877,4.139 -25.256,10.779 h -46.497 c -6.379,-6.64 -15.343,-10.779 -25.256,-10.779 -9.913,0 -18.877,4.139 -25.256,10.779 h -19.088 c -5.585,0 -10.655,-3.513 -12.616,-8.743 L 193.559,328.757 h 202.563 c 4.465,0 8.084,-3.619 8.084,-8.084 0,-4.466 -3.62,-8.084 -8.084,-8.084 h -214.04 c -0.125,-0.002 -0.25,-0.002 -0.374,0 H 169.77 c -4.465,0 -8.084,3.618 -8.084,8.084 0,4.466 3.62,8.084 8.084,8.084 h 6.523 l 45.334,120.892 c 4.314,11.504 15.467,19.234 27.754,19.234 h 10.254 c -0.617,2.596 -0.942,5.303 -0.942,8.084 0,19.317 15.715,35.032 35.03,35.032 19.315,0 35.031,-15.715 35.031,-35.032 0,-2.781 -0.327,-5.489 -0.942,-8.084 h 28.829 c -0.617,2.596 -0.942,5.303 -0.942,8.084 0,19.317 15.715,35.032 35.03,35.032 19.315,0 35.031,-15.715 35.031,-35.032 0,-2.906 -0.356,-5.729 -1.026,-8.431 12.879,-1.993 23.222,-12.342 24.881,-25.618 l 14.29,-114.323 c 14.887,-1.562 26.527,-14.187 26.527,-29.48 0,-15.135 -28.355,-27.87 -43.022,-29.642 z m -231.834,10e-4 -150.951971,-1.3951 0.174387,-55.01951 c 0.01416,-4.46598 -1.527359,-3.72433 -5.991359,-3.72433 -4.464,0 5.866943,-0.91506 5.866943,3.54994 v 64.674 c 0,4.466 3.62,8.084 8.084,8.084 h 53.894 c 7.43,0 13.474,6.044 13.474,13.474 0,7.43 -6.045,13.474 -13.474,13.474 H 51.201 c -7.43,0 -13.474,-6.044 -13.474,-13.474 v -107.79 c 0,-31.204 25.384,-56.589 56.587,-56.589 h 64.672 c 31.203,0 56.588,25.387 56.588,56.589 h 10e-4 v 78.147 z m 157.30688,-7.3986 -91.04652,2.95944 c -0.0806,-0.62362 -5.53143,5.3187 -5.25202,3.06864 2.54053,-20.45886 5.42847,-37.88224 26.04447,-37.88224 2.887,0 15.41219,-0.15124 18.26119,0.52176 3.697,0.871 27.42321,7.45138 5.67226,7.15198 7.868,-16.381 17.30745,-7.65746 35.46445,-7.65746 9.621,0 -60.93193,21.16889 -53.07093,26.55389 z M 447.41,269.473 h -51.086 l 20.488,-61.976 c 0.031,-0.091 0.061,-0.181 0.089,-0.273 l 10.075,-30.476 c 4.197,-12.698 17.94,-19.617 30.639,-15.415 6.15,2.033 11.141,6.34 14.052,12.127 2.911,5.786 3.395,12.361 1.361,18.511 z M 293.72,495.831 c -10.402,0 -18.863,-8.463 -18.863,-18.863 0,-10.401 8.461,-18.863 18.863,-18.863 10.402,0 18.863,8.463 18.863,18.863 0,10.4 -8.461,18.863 -18.863,18.863 z m 97.009,0 c -10.402,0 -18.863,-8.463 -18.863,-18.863 0,-10.401 8.461,-18.863 18.863,-18.863 10.402,0 18.863,8.463 18.863,18.863 0,10.4 -8.462,18.863 -18.863,18.863 z"
       id="path22100"
       style="fill:#ffffff;stroke-width:1.39509"
       sodipodi:nodetypes="ccccccscssccsssssscsccsssssscsssassccsssssccscsscccccsssccsssccscsccscsccsssccsssccscsssccssscccscccsssssssssssssccccccssccscccccccccccssssssssss" />
    <path
       style="fill:#ffffff;fill-opacity:1;stroke:none;stroke-width:3.77953;stroke-linecap:round;stroke-linejoin:round"
       d="m 139.6563,313.36747 c -4.3434,-2.52477 -4.65662,-5.66234 -4.65051,-46.58535 0.003,-21.33017 0.43478,-41.40147 0.95909,-44.60289 2.11466,-12.91188 10.70411,-24.43721 22.53512,-30.23761 L 164.5,189 h 34 34 l 5.71807,2.68006 c 6.73038,3.15453 14.69346,10.2869 18.23827,16.33564 C 261.3955,216.44375 262,221.42643 262,253.7101 V 283.5 h -48 -48 v -21.34501 c 0,-19.40871 -0.16589,-21.49515 -1.82874,-23 -2.41517,-2.1857 -6.4556,-2.10326 -8.51627,0.17375 -1.44884,1.60095 -1.65499,5.00267 -1.65499,27.30887 0,20.41043 0.28204,25.86635 1.41751,27.42126 1.31303,1.79804 3.12561,1.97799 24.58913,2.44113 l 23.17161,0.5 2.51334,2.92488 c 3.17406,3.6938 2.65517,8.96361 -1.21359,12.32512 -2.56426,2.22805 -2.88414,2.2497 -32.78376,2.21959 -19.60828,-0.0197 -30.84063,-0.40615 -32.03794,-1.10212 z M 241.13922,274.5906 c 2.22023,-1.79574 2.3807,-2.66744 2.69537,-14.64236 0.37026,-14.09064 -0.1606,-18.63139 -2.4453,-20.91609 -2.1293,-2.1293 -6.00847,-1.91297 -8.38929,0.46785 -1.82796,1.82796 -2,3.33333 -2,17.5 0,14.16667 0.17204,15.67204 2,17.5 2.51173,2.51173 5.10997,2.54065 8.13922,0.0906 z"
       id="path37354"
       transform="matrix(1.3950943,0,0,1.3950943,-150.52373,-126.95288)" />
    <path
       style="fill:#ffffff;fill-opacity:1;stroke:none;stroke-width:3.77953;stroke-linecap:round;stroke-linejoin:round"
       d="m 305.5331,279.25 c -0.53775,-5.95662 4.74714,-12.96491 8.66774,-16.27436 5.86816,-4.95342 10.46483,-6.42963 20.09567,-6.45368 l 8.79651,-0.022 1.70349,-3.19152 c 3.02656,-5.6703 10.31159,-12.71401 16.07895,-15.54631 7.69505,-3.77898 19.92578,-3.93086 27.92581,-0.34678 2.9157,1.30626 5.11735,2.87217 4.89256,3.47981 -0.22479,0.60764 -3.50214,10.4423 -7.283,21.8548 l -6.87429,20.75 h -37.35617 l -36.29551,-0.35355 z"
       id="path37432"
       transform="matrix(1.3950943,0,0,1.3950943,-150.52373,-126.95288)"
       sodipodi:nodetypes="ssscssssscccs" />
    <path
       style="fill:#ffffff;fill-opacity:1;stroke:none;stroke-width:3.77953;stroke-linecap:round;stroke-linejoin:round"
       d="m 393,282.83451 c 0,-0.36601 4.98291,-15.6706 11.07314,-34.01019 7.58335,-22.83584 11.87553,-34.2983 13.61912,-36.37044 7.46905,-8.87646 20.35825,-7.93826 27.03394,1.9678 3.78191,5.61197 3.15644,9.25867 -6.91111,40.29423 l -9.31509,28.71591 -17.75,0.0341 c -9.7625,0.0188 -17.75,-0.26538 -17.75,-0.6314 z M 426,265.5 c 4.29121,-4.29121 1.97969,-9.27376 -5.37835,-11.59318 -6.40873,-2.02017 -9.86051,-1.37277 -11.46581,2.1505 -1.87963,4.12532 0.31935,7.43162 6.34416,9.53887 6.58809,2.30425 8.11353,2.29028 10.5,-0.0962 z m 6.83219,-21.59502 c 1.79158,-1.25487 2.21223,-2.37447 1.97251,-5.25 -0.2578,-3.09246 -0.87233,-3.93245 -3.99293,-5.45783 -8.524,-4.16662 -14.8319,-2.79908 -14.79646,3.20784 0.0224,3.79338 1.0866,4.94135 6.56321,7.07979 6.08776,2.37707 7.38402,2.43019 10.25367,0.4202 z"
       id="path37471"
       transform="matrix(1.3950943,0,0,1.3950943,-150.52373,-126.95288)" />
    <path
       style="fill:#ffffff;fill-opacity:1;stroke:none;stroke-width:3.77953;stroke-linecap:round;stroke-linejoin:round"
       d="m 166.06743,446.11149 c -3.43023,-0.67702 -6.3945,-3.46112 -7.42037,-6.96936 -0.35747,-1.2225 -0.39706,-6.88537 -0.39706,-56.79865 v -55.44076 l 21.6875,-0.0913 c 21.30278,-0.0897 21.72398,-0.10098 23.74397,-0.63364 7.70444,-2.03163 13.44024,-7.61469 15.61475,-15.19891 0.47419,-1.65389 0.5666,-2.57406 0.56278,-5.60382 -0.005,-3.8615 -0.29646,-5.46375 -1.48231,-8.14516 l -0.59917,-1.35489 h 109.48624 l 118.41346,-0.26517 5.3033,10.28605 -6.54073,10.90476 -19.25949,-1.87264 -11.56967,0.072 -21.39304,0.0199 c -4.81996,0.004 -5.69977,9.1499 -1.41422,11.35659 1.2358,0.63636 22.83366,0.37378 30.25196,0.45554 6.28342,0.0693 7.44497,0.13835 7.44497,0.4429 0,1.44383 -10.09202,80.72616 -10.39202,81.63897 -0.50108,1.52471 -2.07128,3.695 -3.27445,4.52583 -1.97463,1.36354 -3.29568,1.77819 -6.01548,1.88816 l -2.55697,0.10338 -1.31804,-1.18572 c -7.8209,-7.03548 -18.84704,-8.53285 -28.29394,-3.84233 -2.09604,1.04071 -4.79223,2.92611 -6.00867,4.20175 l -0.73427,0.77 h -16.57932 -16.57932 l -1.88134,-1.57668 c -4.08504,-3.42352 -8.22258,-5.23632 -13.57798,-5.94899 -6.77445,-0.90152 -14.75576,1.65625 -19.66951,6.30346 l -1.32004,1.24844 -7.96197,-0.0756 -7.96198,-0.0756 -1.68119,-0.79641 c -1.98457,-0.94013 -3.65884,-2.56183 -4.54181,-4.39919 -0.998,-2.07674 -26.17476,-69.39647 -26.56113,-71.02139 -0.19186,-0.80685 -0.55262,-1.7631 -0.80171,-2.125 -0.40898,-0.59423 -3.80202,-9.39944 -3.79294,-9.84301 0.002,-0.10175 32.88191,-0.21425 73.06628,-0.25 69.78725,-0.0621 99.889,0.44513 100.84417,0.0146 -4.62118,0.41016 -2.60108,-11.54657 -7.22737,-11.89441 L 393.375,315 311.5,314.92396 c -58.58879,-0.0544 -82.23812,0.002 -83.15175,0.19743 -4.4525,0.95369 -6.16315,6.6608 -2.94981,9.84124 1.40769,1.39327 2.45291,1.72986 5.77506,1.85967 2.50215,0.0978 3.07713,0.19158 3.20827,0.52341 0.0879,0.22236 1.34573,3.55429 2.79523,7.40429 l 2.63545,7 -0.29948,47.125 c -0.16472,25.91875 -0.40293,47.9427 -0.52935,48.94211 -0.82052,6.48624 -7.51534,10.2783 -13.32494,7.54747 -2.27586,-1.06978 -3.99781,-3.01497 -5.08811,-5.74777 -0.4184,-1.04871 -0.45341,-3.40343 -0.57423,-38.61681 -0.14001,-40.80957 -0.0323,-37.77964 -1.48048,-41.65023 -1.08862,-2.9096 -3.65799,-6.48187 -6.06315,-8.42978 -2.78772,-2.25773 -5.28049,-3.5272 -8.82771,-4.49559 -2.15361,-0.58794 -7.92602,-0.56114 -10.12441,0.047 -7.74711,2.1431 -13.36646,7.75265 -15.55573,15.52859 l -0.56308,2 -0.12839,37.625 -0.12839,37.625 -0.65252,1.375 c -1.36393,2.87412 -4.00057,4.914 -7.08089,5.47826 -1.65586,0.30333 -1.82683,0.30375 -3.32416,0.008 z m 145.23163,-58.12666 c 1.15603,-0.58353 2.15409,-1.56314 2.78634,-2.73483 0.53771,-0.99649 0.5396,-1.05963 0.5396,-18 0,-16.91621 -0.003,-17.00494 -0.53737,-18.00328 -1.07142,-2.00037 -2.53606,-3.05034 -4.59522,-3.29422 -1.69862,-0.20118 -3.28574,0.30255 -4.601,1.46028 -2.09487,1.84399 -2.01641,1.06722 -2.01641,19.96222 0,18.21219 -0.0672,17.34743 1.4919,19.19648 1.61082,1.91039 4.6998,2.54018 6.93216,1.41335 z m 37.79748,0.28625 c 1.64695,-0.49566 2.74408,-1.41599 3.50262,-2.93817 l 0.65084,-1.30608 v -16.60941 c 0,-11.88188 -0.0826,-16.88504 -0.29014,-17.57781 -0.42144,-1.40666 -1.73612,-2.80679 -3.24495,-3.45587 -2.7032,-1.16288 -5.76711,-0.17976 -7.3333,2.35305 l -0.75661,1.22356 -0.0694,16.74715 c -0.0795,19.18762 -0.1603,18.35276 1.96124,20.2602 1.74301,1.56711 3.40969,1.95644 5.57966,1.30338 z m 39.45252,-0.28625 c 1.15603,-0.58353 2.15409,-1.56314 2.78634,-2.73483 0.53771,-0.99649 0.5396,-1.05963 0.5396,-18 0,-18.88803 0.0944,-17.78853 -1.68389,-19.60743 -1.04012,-1.06386 -1.95757,-1.51347 -3.4487,-1.69007 -1.69862,-0.20118 -3.28574,0.30255 -4.601,1.46028 -1.99612,1.75706 -1.91534,0.86712 -1.83635,20.23063 l 0.0699,17.14341 0.68964,1.04196 c 0.76741,1.15947 2.25269,2.24983 3.49426,2.56518 1.12082,0.28468 2.9967,0.0923 3.99016,-0.40913 z"
       id="path38012"
       transform="matrix(1.3950943,0,0,1.3950943,-150.52373,-126.95288)"
       sodipodi:nodetypes="csscssscscccccccssssssscssscccssscccsssscscccscsssscsssssssssscccssccssscssssssscsssscssssssssssscssss" />
    <path
       style="fill:#ffffff;fill-opacity:1;stroke:none;stroke-width:3.77953;stroke-linecap:round;stroke-linejoin:round"
       d="m 311.89327,444.00309 c -9.79093,-5.32165 -7.79676,-20.56709 3.07313,-23.49404 11.11642,-2.99334 19.92965,8.55614 14.51667,19.02368 -2.82241,5.45795 -11.64671,7.7006 -17.5898,4.47036 z"
       id="path38202"
       transform="matrix(1.3950943,0,0,1.3950943,-150.52373,-126.95288)" />
    <path
       style="fill:#ffffff;fill-opacity:1;stroke:none;stroke-width:3.77953;stroke-linecap:round;stroke-linejoin:round"
       d="m 380.61488,443.4117 c -8.18431,-6.43777 -7.14137,-17.54205 2.06623,-21.99938 3.86539,-1.8712 5.01405,-2.02062 8.19856,-1.06652 10.8301,3.24478 13.34377,16.11368 4.50545,23.0659 -3.63502,2.85931 -11.13522,2.85931 -14.77024,0 z"
       id="path38241"
       transform="matrix(1.3950943,0,0,1.3950943,-150.52373,-126.95288)" />
    <path
       style="fill:#003399;fill-opacity:1;stroke:none;stroke-width:3.77952;stroke-linecap:round;stroke-linejoin:round"
       d="m 315.28124,445.12689 c -4.39471,-0.96909 -7.64919,-3.89454 -9.04986,-8.1349 -0.40754,-1.23378 -0.46895,-1.71869 -0.48127,-3.8007 -0.0163,-2.75459 0.2834,-4.00873 1.54194,-6.45235 1.05747,-2.05321 3.21179,-4.17414 5.24915,-5.16779 1.88016,-0.91699 3.18559,-1.26773 5.22112,-1.40278 5.94332,-0.39432 11.49282,3.79641 12.91465,9.75255 0.3982,1.66809 0.39355,4.57898 -0.01,6.18719 -0.42588,1.69768 -1.52531,4.00206 -2.41824,5.06856 -2.65554,3.17175 -8.46817,4.9424 -12.96761,3.95022 z"
       id="path49109"
       transform="matrix(1.3950943,0,0,1.3950943,-150.52373,-126.95288)" />
    <path
       style="fill:#003399;fill-opacity:1;stroke:none;stroke-width:3.77952;stroke-linecap:round;stroke-linejoin:round"
       d="m 384.66609,445.11399 c -0.63198,-0.13573 -1.79446,-0.5654 -2.58329,-0.95481 -1.19286,-0.58885 -1.70614,-0.99242 -3.04967,-2.39778 -1.3712,-1.4343 -1.74625,-1.96263 -2.48083,-3.49475 -1.29332,-2.69748 -1.65875,-4.7929 -1.25649,-7.20489 0.47248,-2.83304 1.6842,-5.04383 3.91436,-7.1418 1.13996,-1.0724 1.83154,-1.54071 3.53282,-2.39232 2.83877,-1.42101 3.72525,-1.66429 5.62566,-1.54391 4.3525,0.27571 8.77198,3.20602 10.87703,7.21194 1.2594,2.39665 1.69615,5.92447 1.0649,8.60175 -1.06341,4.51016 -4.87908,8.4571 -9.01536,9.32552 -1.55334,0.32613 -5.09124,0.32135 -6.62913,-0.009 z"
       id="path49148"
       transform="matrix(1.3950943,0,0,1.3950943,-150.52373,-126.95288)" />
    <path
       style="fill:#003399;fill-opacity:1;stroke:none;stroke-width:3.77952;stroke-linecap:round;stroke-linejoin:round"
       d="m 235.81137,275.63022 c -1.59655,-0.45234 -3.04015,-1.71064 -3.76768,-3.28408 -0.37632,-0.81388 -0.37783,-0.87562 -0.37783,-15.4896 0,-14.66376 2.3e-4,-14.67296 0.38199,-15.49902 0.54128,-1.17119 1.70018,-2.35524 2.86336,-2.92552 0.84849,-0.41598 1.2083,-0.4869 2.4115,-0.47531 2.11194,0.0203 3.72668,0.89057 4.7962,2.5848 0.94371,1.49494 0.94905,1.5866 0.94905,16.31505 0,14.72845 -0.005,14.82011 -0.94905,16.31505 -1.28838,2.04093 -4.02155,3.1063 -6.30754,2.45863 z"
       id="path49187"
       transform="matrix(1.3950943,0,0,1.3950943,-150.52373,-126.95288)" />
  </g>
</svg>
