<?xml version="1.0" encoding="UTF-8" standalone="no"?>
<svg
   height="480"
   width="480"
   version="1.1"
   id="svg1097"
   sodipodi:docname="pdelivery.svg"
   inkscape:version="1.1.2 (b8e25be833, 2022-02-05)"
   xmlns:inkscape="http://www.inkscape.org/namespaces/inkscape"
   xmlns:sodipodi="http://sodipodi.sourceforge.net/DTD/sodipodi-0.dtd"
   xmlns="http://www.w3.org/2000/svg"
   xmlns:svg="http://www.w3.org/2000/svg">
  <defs
     id="defs1101" />
  <sodipodi:namedview
     id="namedview1099"
     pagecolor="#ffffff"
     bordercolor="#666666"
     borderopacity="1.0"
     inkscape:pageshadow="2"
     inkscape:pageopacity="0.0"
     inkscape:pagecheckerboard="0"
     showgrid="false"
     inkscape:zoom="1"
     inkscape:cx="329"
     inkscape:cy="293"
     inkscape:window-width="1920"
     inkscape:window-height="1027"
     inkscape:window-x="-8"
     inkscape:window-y="-8"
     inkscape:window-maximized="1"
     inkscape:current-layer="svg1097" />
  <path
     d="m30.856274 5.7720243h420.004816c10.81582.7906802 23.07189 11.8437647 23.66646 24.8647647v418.806511c.04967 10.31854-11.79351 24.19224-25.16434 24.86477h-419.405663c-9.523815-.58318-24.4313132-15.37852-24.8647639-25.16434l.5991509-418.207366c-1.0815617-6.302442 14.286068-25.2982414 25.16434-25.1643397z"
     fill="#fff"
     fill-rule="evenodd"
     stroke="#000"
     stroke-width="2"
     id="path1067" />
  <path
     d="m35.1875 16.78125c-11.760613-.514916-18.473169 7.51921-18.03125 20.375v406.40625c.046553 8.6672 3.728171 19.07043 15.6875 19.28125l414.4375-.03125c11.95933-.2108 15.6722-10.61405 15.71875-19.28125v-406.4375c.44191-12.855791-6.27063-20.88992-18.03125-20.375z"
     fill="#039"
     fill-rule="evenodd"
     id="path1069" />
  <path
     d="m 71.265846,63.862977 v 42.402303 h 29.591404 c 7.39777,7e-5 12.91608,-2.22529 16.55494,-6.676107 3.63869,-4.450656 5.45808,-9.292333 5.45817,-14.525043 -9e-5,-7.939057 -2.85698,-13.773127 -8.57068,-17.502232 -3.66893,-2.465836 -8.39031,-3.698813 -14.16418,-3.698921 z M 51.327737,176.45464 V 45.00748 h 47.725156 c 5.112267,1.31e-4 10.029127,0.541437 14.750587,1.623918 4.72132,1.082741 9.63817,3.608833 14.75059,7.578285 3.96949,3.067521 7.33761,7.292712 10.10438,12.675586 2.76657,5.383091 4.14991,11.623138 4.15002,18.720167 -1.1e-4,9.38272 -3.50356,18.314264 -10.51036,26.794654 -7.007,8.48051 -17.24669,12.72074 -30.71912,12.72069 H 71.265846 v 51.33386 z"
     fill="#ffffff"
     id="path1071"
     style="stroke-width:0.999999" />
  <g
     id="g12028"
     transform="matrix(0.77411272,0,0,0.77411272,103.82751,46.654055)"
     style="stroke-width:1.2918;fill:#ffffff">
    <g
       id="g12026"
       style="stroke-width:1.2918;fill:#ffffff">
      <path
         d="M 376.608,176.569 H 261.832 c -10.499,0 -19.011,8.512 -19.011,19.011 v 12.522 l 32.246,5.165 c 19.328,3.096 32.535,21.34 29.438,40.668 -2.39,14.923 -13.991,26.716 -28.868,29.348 -2.029,0.359 -4.103,0.541 -6.164,0.541 -1.879,0 -3.775,-0.151 -5.637,-0.45 l -21.016,-3.367 v 30.348 c 0,10.499 8.512,19.011 19.011,19.011 h 114.775 c 10.499,0 19.011,-8.512 19.011,-19.011 V 195.58 c 0.002,-10.499 -8.51,-19.011 -19.009,-19.011 z"
         id="path12024"
         style="stroke-width:1.2918;fill:#ffffff" />
    </g>
  </g>
  <g
     id="g12034"
     transform="matrix(0.77411272,0,0,0.77411272,103.82751,46.654055)"
     style="stroke-width:1.2918;fill:#ffffff">
    <g
       id="g12032"
       style="stroke-width:1.2918;fill:#ffffff">
      <path
         d="m 272.783,227.522 -71.944,-11.524 -23.723,-52.043 31.446,38.659 15.608,2.5 v -55.358 c 0,-16.287 -13.203,-29.49 -29.49,-29.49 h -52.59 c -16.287,0 -29.49,13.203 -29.49,29.49 v 151.54 l 9.544,76.98 -41.403,100.491 c -5.063,12.287 0.794,26.351 13.081,31.413 12.29,5.064 26.352,-0.799 31.413,-13.081 L 169.047,390.76 c 1.579,-3.834 2.142,-8.012 1.631,-12.126 l -7.529,-60.729 h 18.688 l 6.775,51.876 -23.966,113.169 c -2.753,13.001 5.554,25.771 18.554,28.524 13,2.753 25.772,-5.556 28.524,-18.554 l 24.819,-117.191 c 0.565,-2.663 0.672,-5.402 0.32,-8.101 l -11.815,-90.466 -44.307,-7.097 c -16.653,-2.664 -26.257,-16.224 -27.709,-23.49 l -12.038,-60.296 26.195,57.47 c 2.927,6.419 8.87,10.947 15.835,12.062 l 83.096,13.31 c 10.296,1.65 20.129,-4.482 23.328,-14.169 4.088,-12.386 -3.898,-25.385 -16.665,-27.43 z"
         id="path12030"
         style="stroke-width:1.2918;fill:#ffffff" />
    </g>
  </g>
  <g
     id="g12040"
     transform="matrix(0.77411272,0,0,0.77411272,103.82751,46.654055)"
     style="stroke-width:1.2918;fill:#ffffff">
    <g
       id="g12038"
       style="stroke-width:1.2918;fill:#ffffff">
      <circle
         cx="168.617"
         cy="63.533001"
         r="43.654999"
         id="circle12036"
         style="stroke-width:1.2918;fill:#ffffff" />
    </g>
  </g>
  <g
     id="g12046"
     transform="matrix(0.77411272,0,0,0.77411272,103.82751,46.654055)"
     style="stroke-width:1.2918;fill:#ffffff">
    <g
       id="g12044"
       style="stroke-width:1.2918;fill:#ffffff">
      <path
         d="M 415.544,77.355 H 278.451 c -9.684,0 -17.535,7.851 -17.535,17.535 v 47.823 c 0,9.684 7.851,17.535 17.535,17.535 h 137.093 c 9.684,0 17.535,-7.851 17.535,-17.535 V 94.89 c 0,-9.684 -7.851,-17.535 -17.535,-17.535 z"
         id="path12042"
         style="stroke-width:1.2918;fill:#ffffff" />
    </g>
  </g>
  <g
     id="g12052"
     transform="matrix(0.77411272,0,0,0.77411272,103.82751,46.654055)"
     style="stroke-width:1.2918;fill:#ffffff">
    <g
       id="g12050"
       style="stroke-width:1.2918;fill:#ffffff">
      <path
         d="M 353.302,0 H 308.92 c -4.655,0 -8.428,3.773 -8.428,8.428 V 52.81 c 0,4.655 3.774,8.428 8.428,8.428 h 44.382 c 4.655,0 8.428,-3.773 8.428,-8.428 V 8.428 C 361.73,3.773 357.957,0 353.302,0 Z"
         id="path12048"
         style="stroke-width:1.2918;fill:#ffffff" />
    </g>
  </g>
</svg>
