<?xml version="1.0" encoding="UTF-8" standalone="no"?>
<svg
   height="480"
   width="480"
   version="1.1"
   id="svg1097"
   sodipodi:docname="pdisc.svg"
   inkscape:version="1.1.2 (b8e25be833, 2022-02-05)"
   xmlns:inkscape="http://www.inkscape.org/namespaces/inkscape"
   xmlns:sodipodi="http://sodipodi.sourceforge.net/DTD/sodipodi-0.dtd"
   xmlns="http://www.w3.org/2000/svg"
   xmlns:svg="http://www.w3.org/2000/svg">
  <defs
     id="defs1101" />
  <sodipodi:namedview
     id="namedview1099"
     pagecolor="#ffffff"
     bordercolor="#666666"
     borderopacity="1.0"
     inkscape:pageshadow="2"
     inkscape:pageopacity="0.0"
     inkscape:pagecheckerboard="0"
     showgrid="false"
     inkscape:zoom="1"
     inkscape:cx="230"
     inkscape:cy="230"
     inkscape:window-width="1920"
     inkscape:window-height="1027"
     inkscape:window-x="-8"
     inkscape:window-y="-8"
     inkscape:window-maximized="1"
     inkscape:current-layer="svg1097" />
  <path
     d="m30.856274 5.7720243h420.004816c10.81582.7906802 23.07189 11.8437647 23.66646 24.8647647v418.806511c.04967 10.31854-11.79351 24.19224-25.16434 24.86477h-419.405663c-9.523815-.58318-24.4313132-15.37852-24.8647639-25.16434l.5991509-418.207366c-1.0815617-6.302442 14.286068-25.2982414 25.16434-25.1643397z"
     fill="#fff"
     fill-rule="evenodd"
     stroke="#000"
     stroke-width="2"
     id="path1067" />
  <path
     d="m35.1875 16.78125c-11.760613-.514916-18.473169 7.51921-18.03125 20.375v406.40625c.046553 8.6672 3.728171 19.07043 15.6875 19.28125l414.4375-.03125c11.95933-.2108 15.6722-10.61405 15.71875-19.28125v-406.4375c.44191-12.855791-6.27063-20.88992-18.03125-20.375z"
     fill="#039"
     fill-rule="evenodd"
     id="path1069" />
  <path
     d="m 71.265846,63.862977 v 42.402303 h 29.591404 c 7.39777,7e-5 12.91608,-2.22529 16.55494,-6.676107 3.63869,-4.450656 5.45808,-9.292333 5.45817,-14.525043 -9e-5,-7.939057 -2.85698,-13.773127 -8.57068,-17.502232 -3.66893,-2.465836 -8.39031,-3.698813 -14.16418,-3.698921 z M 51.327737,176.45464 V 45.00748 h 47.725156 c 5.112267,1.31e-4 10.029127,0.541437 14.750587,1.623918 4.72132,1.082741 9.63817,3.608833 14.75059,7.578285 3.96949,3.067521 7.33761,7.292712 10.10438,12.675586 2.76657,5.383091 4.14991,11.623138 4.15002,18.720167 -1.1e-4,9.38272 -3.50356,18.314264 -10.51036,26.794654 -7.007,8.48051 -17.24669,12.72074 -30.71912,12.72069 H 71.265846 v 51.33386 z"
     fill="#ffffff"
     id="path1071"
     style="stroke-width:0.999999" />
  <path
     d="m -62.328443,488.66085 c -0.04754,-14.6195 -0.08929,-38.54809 -0.09301,-53.1746 -0.0042,-14.62654 -0.04423,-38.55532 -0.09012,-53.17511 -0.04588,-14.6198 -0.101312,-54.29305 -0.123012,-88.16291 -0.02184,-33.86983 -0.111129,-93.69368 -0.198615,-132.94195 -0.08735,-39.24827 -0.14796,-78.920761 -0.134484,-88.16108 M 537.13949,175.82008 c 0.15512,60.27312 0.27126,117.38146 0.27039,132.93046 M 318.77371,422.84275 c 37.90434,-13.37251 77.35777,-39.7294 101.15428,-67.57615 l 6.19796,-7.25292 -5.26618,-4.42335 c -20.39175,-17.12858 -70.89702,-59.36052 -84.00806,-70.24666 l -15.85133,-13.16135 -6.00206,6.26092 c -7.19761,7.50778 -18.58698,15.78373 -30.02325,21.81596 -11.64211,6.14075 -39.4695,11.7347 -53.56675,10.76816 -27.43838,-1.88129 -51.20226,-12.51906 -70.89133,-31.73418 l -7.00828,-6.83953 -51.67674,43.3865 c -28.422228,23.86263 -51.905147,43.64899 -52.184269,43.96963 -2.010406,2.30967 18.978446,23.43425 37.302703,37.54398 46.471616,35.7832 105.344186,54.19329 163.652196,51.17581 17.33916,-0.89731 51.17478,-7.6903 68.17111,-13.68682 z m -80.02065,-0.051 c -2.00719,-2.07153 -2.29601,-3.25465 -1.3976,-5.72523 0.62283,-1.71279 0.87206,-3.66177 0.55384,-4.33107 -0.31823,-0.66927 -0.44577,-2.73433 -0.28347,-4.58885 0.24571,-2.80742 1.04121,-3.41845 4.75171,-3.64973 4.40399,-0.27431 4.47262,-0.18954 5.81062,7.20409 0.74445,4.11507 0.97486,8.64486 0.51105,10.06626 -1.16892,3.58403 -6.89463,4.17383 -9.9461,1.02453 z m 7.80559,-2.30552 c 0.97223,-2.3322 -1.66877,-5.45823 -4.2611,-5.04359 -2.65378,0.42447 -3.67233,3.00211 -2.21403,5.60306 1.04019,1.85525 5.63395,1.45831 6.47512,-0.55958 z m -1.00759,-11.16292 c -0.29107,-1.81971 -1.34648,-2.58404 -3.16624,-2.29297 -1.81973,0.29106 -2.58408,1.34647 -2.293,3.16619 0.29106,1.81975 1.34648,2.5841 3.1662,2.29301 1.81978,-0.29106 2.58411,-1.34648 2.29304,-3.16623 z m -15.87275,15.85682 c -0.47122,-0.34151 -0.86759,-4.17944 -0.8809,-8.52932 -0.0183,-6.02169 -0.48773,-8.1132 -1.96673,-8.76514 -1.54793,-0.68229 -1.57034,-1.19572 -0.1103,-2.52758 3.47621,-3.171 4.19248,-2.05898 4.68733,7.27722 0.49539,9.34669 -0.10738,13.71952 -1.72942,12.54482 z m 115.48784,-31.44052 c -4.86033,-8.72938 -6.27333,-10.54428 -7.99501,-10.26888 -1.07387,0.17176 -1.64832,-0.60993 -1.38071,-1.87879 0.8865,-4.2045 3.92241,-2.65081 7.81422,3.99909 2.16293,3.69573 4.5369,7.72516 5.27548,8.95423 0.8064,1.34156 0.72608,2.33338 -0.20153,2.48176 -0.84947,0.13587 -2.43009,-1.34346 -3.51245,-3.28741 z m 10.96167,-6.30245 c 0.22261,-3.86139 -0.0712,-4.18779 -3.30538,-3.67047 -4.56882,0.73078 -8.06208,-3.92203 -6.44886,-8.58948 1.38216,-3.99866 7.06944,-5.0685 9.55599,-1.79778 3.22455,4.24165 4.16265,17.62261 1.26791,18.08564 -0.74997,0.11996 -1.20918,-1.60893 -1.06964,-4.02809 z m -0.85258,-9.7056 c -0.51488,-3.21903 -4.4222,-4.50534 -6.20561,-2.04286 -1.78337,2.46243 0.65741,5.77369 3.87662,5.25877 1.87685,-0.3002 2.6292,-1.33911 2.32899,-3.21591 z M 236.34207,393.018 c -5.0172,-0.16355 -11.23819,-6.4598 -12.09238,-12.23864 -1.49743,-10.13001 -0.21589,-17.15787 6.33586,-34.74596 6.44545,-17.30273 6.86232,-17.9977 11.21396,-18.69375 2.48586,-0.3976 4.62255,-0.0802 4.74821,0.70547 0.12563,0.7856 -1.76884,6.66191 -4.21002,13.05849 -4.87589,12.77624 -5.01045,13.54613 -2.29082,13.11113 1.02475,-0.16392 3.77617,0.76674 6.11427,2.0682 4.14319,2.30616 4.27025,2.62437 5.00802,12.53813 0.92473,12.42674 -0.84413,18.33352 -6.54761,21.86486 -2.38265,1.47524 -4.51871,2.62633 -4.74685,2.55797 -0.22813,-0.0683 -1.81781,-0.17002 -3.53264,-0.2259 z m 5.79855,-13.94315 c 0.91592,-9.36017 0.30778,-14.06099 -2.03892,-15.76038 -4.87626,-3.53147 -7.2484,-0.54905 -7.48951,9.41632 -0.14933,6.1726 0.27862,8.51318 1.80026,9.8463 2.96393,2.59677 7.32464,0.62055 7.72809,-3.50222 z m 85.73366,-11.33921 c -0.59739,-1.59506 -3.82587,-14.03729 -7.17438,-27.64932 -3.34844,-13.61202 -6.44964,-25.01096 -6.89133,-25.33094 -0.44211,-0.31971 -2.58268,0.51263 -4.75746,1.8496 -3.34726,2.05827 -3.73843,2.93475 -2.54922,5.71233 1.38127,3.22659 0.0433,5.79506 -3.3242,6.38113 -1.8736,0.32615 -9.72084,-12.10107 -8.37497,-13.26299 1.64063,-1.41649 21.07377,-12.54203 22.23033,-12.72703 2.3342,-0.37335 5.10339,7.36562 11.98023,33.48115 3.93163,14.93063 7.26477,27.85371 7.40692,28.71796 0.13834,0.86489 -1.47805,2.5067 -3.60052,3.64978 -3.46755,1.8676 -3.96922,1.78425 -4.9454,-0.82167 z m -204.00223,24.69213 c 1.6448,-1.7495 5.14298,-4.60334 7.77371,-6.34183 5.05091,-3.33783 5.27406,-6.24907 0.42498,-5.54411 -3.95175,0.57441 -5.05447,-0.51528 -2.95098,-2.91623 1.43098,-1.63328 2.62999,-1.58145 6.37666,0.2756 2.5379,1.25797 4.70111,2.82941 4.80712,3.49222 0.24139,1.50921 -14.89439,13.56446 -17.50107,13.93918 -1.15003,0.16282 -0.7202,-1.00104 1.06958,-2.90483 z m -10.19327,-2.47087 c -0.10878,-0.67961 1.56446,-4.19272 3.7181,-7.80692 2.15368,-3.6142 3.46584,-7.348 2.91594,-8.29732 -0.62977,-1.08721 -0.006,-1.88513 1.68694,-2.15582 3.96393,-0.63403 3.66599,1.53339 -1.47582,10.73751 -4.45397,7.97288 -6.42641,10.14051 -6.84516,7.52255 z m 27.23126,-22.27332 c -8.12682,-1.57861 -13.24984,-10.35608 -10.64794,-18.24349 1.46103,-4.42894 1.76829,-4.63277 4.85733,-3.223 2.44592,1.11629 3.51616,2.8713 4.14378,6.79509 1.25133,7.82319 5.51104,7.23973 10.93139,-1.49723 7.45401,-12.01526 7.19624,-15.9893 -1.01086,-15.58459 -2.07143,0.10225 -4.82083,-0.57793 -6.1097,-1.51136 -2.06909,-1.49849 -1.42026,-3.30245 5.54353,-15.41309 4.33775,-7.54381 8.27843,-14.32077 8.75703,-15.05999 0.68281,-1.05458 13.02983,5.19552 21.75795,11.01402 1.44361,0.96233 -0.68889,7.11677 -2.57019,7.41768 -0.65357,0.10446 -4.47425,-1.77265 -8.49041,-4.17151 l -7.30212,-4.3616 -4.16445,6.9847 c -4.37116,7.33134 -4.33135,7.69345 1.03039,9.3743 4.13319,1.29574 8.25799,7.01516 7.70776,10.68762 -0.5944,3.96724 -10.94645,21.82401 -14.10459,24.32973 -2.82504,2.24142 -6.70544,3.16671 -10.32887,2.46287 z m 128.80549,-52.3123 c -0.16333,-1.02114 -1.16417,-4.79779 -2.2237,-8.39256 -1.28532,-4.36014 -1.39915,-6.15429 -0.34257,-5.38956 2.15088,1.55651 5.82311,15.16543 4.16384,15.43083 -0.71531,0.1145 -1.43418,-0.62747 -1.59751,-1.64872 z m -34.5599,2.70807 c -1.13735,-7.11065 -0.2077,-12.03938 2.34804,-12.44818 2.57514,-0.41189 2.78986,0.67752 2.34036,11.87327 -0.17195,4.28075 -4.01995,4.7526 -4.68821,0.57479 z m 61.5726,-19.57282 c -2.11326,-3.64806 -3.64605,-7.13668 -3.4059,-7.75248 1.11882,-2.87092 4.28595,-1.19182 7.16639,3.79958 3.86721,6.70092 4.16442,8.221 1.86692,9.55169 -1.22679,0.71045 -2.98725,-1.04107 -5.62762,-5.59876 z m -94.07612,17.63568 c -0.26599,-1.66293 4.04277,-13.98146 4.94064,-14.12508 0.55946,-0.0894 0.23222,3.11222 -0.72721,7.11496 -0.95945,4.00268 -2.27671,7.36279 -2.92728,7.46686 -0.65057,0.10411 -1.22937,-0.10178 -1.28615,-0.45674 z m 121.59427,-37.19428 c -4.99099,-4.91854 -6.9239,-8.03079 -4.31123,-6.9417 2.23679,0.93252 10.72437,10.3559 10.10171,11.21566 -0.33278,0.45954 -2.93879,-1.46348 -5.79048,-4.27396 z M 171.67841,302.9335 c -0.59159,-1.02131 0.52169,-4.65749 2.47394,-8.0804 2.74459,-4.812 4.01507,-5.94806 5.60217,-5.00932 2.2778,1.34722 1.95342,2.67477 -2.39576,9.80453 -3.34584,5.48497 -4.14005,5.9443 -5.68035,3.28519 z M 145.1061,283.08285 c -0.52318,-0.37869 1.42514,-3.18893 4.32971,-6.24451 5.48997,-5.77546 6.68587,-6.5737 6.9909,-4.66667 0.26356,1.64767 -10.19405,11.72704 -11.32061,10.91118 z M 261.72989,182.71612 c 12.85133,-48.32375 23.12638,-88.005868 22.83361,-88.182487 -0.64031,-0.386096 -91.12336,-0.21104 -93.57478,0.181066 -1.28089,0.204877 -1.15919,2.394786 0.48184,8.671181 15.6141,59.71877 45.45113,168.43674 46.07797,167.89554 0.44859,-0.38706 11.33012,-40.24154 24.18136,-88.5653 z"
     style="fill:#ffffff;stroke-width:1"
     id="path20875"
     sodipodi:nodetypes="ccsccccccscssccssscscsscsssscccsscssccsssssssssssssscscsscssssccssssssssssssssssscsssssscccsssscsssssssscsssscsscsssccsssssscssssccsccssscsscccccsccssssscsscssssscsscscsscs" />
</svg>
