<?xml version="1.0" encoding="UTF-8" standalone="no"?>
<svg
   height="480"
   width="480"
   version="1.1"
   id="svg1097"
   sodipodi:docname="pdisabled.svg"
   inkscape:version="1.1.2 (b8e25be833, 2022-02-05)"
   xmlns:inkscape="http://www.inkscape.org/namespaces/inkscape"
   xmlns:sodipodi="http://sodipodi.sourceforge.net/DTD/sodipodi-0.dtd"
   xmlns="http://www.w3.org/2000/svg"
   xmlns:svg="http://www.w3.org/2000/svg">
  <defs
     id="defs1101" />
  <sodipodi:namedview
     id="namedview1099"
     pagecolor="#ffffff"
     bordercolor="#666666"
     borderopacity="1.0"
     inkscape:pageshadow="2"
     inkscape:pageopacity="0.0"
     inkscape:pagecheckerboard="0"
     showgrid="false"
     inkscape:zoom="1"
     inkscape:cx="329"
     inkscape:cy="293"
     inkscape:window-width="1920"
     inkscape:window-height="1027"
     inkscape:window-x="-8"
     inkscape:window-y="-8"
     inkscape:window-maximized="1"
     inkscape:current-layer="g12381" />
  <path
     d="m30.856274 5.7720243h420.004816c10.81582.7906802 23.07189 11.8437647 23.66646 24.8647647v418.806511c.04967 10.31854-11.79351 24.19224-25.16434 24.86477h-419.405663c-9.523815-.58318-24.4313132-15.37852-24.8647639-25.16434l.5991509-418.207366c-1.0815617-6.302442 14.286068-25.2982414 25.16434-25.1643397z"
     fill="#fff"
     fill-rule="evenodd"
     stroke="#000"
     stroke-width="2"
     id="path1067" />
  <path
     d="m35.1875 16.78125c-11.760613-.514916-18.473169 7.51921-18.03125 20.375v406.40625c.046553 8.6672 3.728171 19.07043 15.6875 19.28125l414.4375-.03125c11.95933-.2108 15.6722-10.61405 15.71875-19.28125v-406.4375c.44191-12.855791-6.27063-20.88992-18.03125-20.375z"
     fill="#039"
     fill-rule="evenodd"
     id="path1069" />
  <path
     d="m 71.265846,63.862977 v 42.402303 h 29.591404 c 7.39777,7e-5 12.91608,-2.22529 16.55494,-6.676107 3.63869,-4.450656 5.45808,-9.292333 5.45817,-14.525043 -9e-5,-7.939057 -2.85698,-13.773127 -8.57068,-17.502232 -3.66893,-2.465836 -8.39031,-3.698813 -14.16418,-3.698921 z M 51.327737,176.45464 V 45.00748 h 47.725156 c 5.112267,1.31e-4 10.029127,0.541437 14.750587,1.623918 4.72132,1.082741 9.63817,3.608833 14.75059,7.578285 3.96949,3.067521 7.33761,7.292712 10.10438,12.675586 2.76657,5.383091 4.14991,11.623138 4.15002,18.720167 -1.1e-4,9.38272 -3.50356,18.314264 -10.51036,26.794654 -7.007,8.48051 -17.24669,12.72074 -30.71912,12.72069 H 71.265846 v 51.33386 z"
     fill="#ffffff"
     id="path1071"
     style="stroke-width:0.999999" />
  <g
     fill="#ffffff"
     id="g12381"
     transform="translate(11.458886,6.366047)">
    <path
       d="M 308.99394,273.20494 C 291.1143,269.138 197.48068,272.53035 170.40545,272.52651 169.57076,213.69077 169.35951,154.84687 168.86119,96.007042 152.01383,78.305354 160.83812,46.296278 184.27054,39.4209 c 23.19825,-9.556544 51.81879,11.92969 48.04265,37.162511 1.016,19.933007 -22.16187,24.785439 -29.98205,35.776079 -0.56178,23.27915 -1.0768,46.63908 0.34365,69.88609 31.53919,2.53561 63.5066,0.66798 95.23636,1.10204 v 30.69271 c -31.08043,0 -62.16087,0 -93.24132,0 -7.66435,17.71333 -0.0601,32.32414 -1.74465,30.69477 35.07946,0.17043 92.5533,0.0687 127.63309,0.0966 20.12149,41.354 39.48109,83.28375 59.79355,124.40257 21.33716,-2.57945 36.8277,-14.63752 44.93814,-15.15643 8.8866,-0.76762 9.11469,27.57338 8.13088,26.72943 -19.05563,6.86075 -49.13028,21.68745 -68.29295,28.24467 -4.83172,-7.82918 -48.14357,-98.84277 -66.13395,-135.84691 z M 200.39105,449.64873 c -41.84816,-4.65621 -71.1165,-17.16445 -93.44506,-37.22126 -31.929798,-27.8323 -50.377142,-70.82521 -45.460542,-113.33448 2.38285,-48.1963 34.558193,-91.81422 77.160352,-112.97744 6.76103,6.26202 2.21287,22.42232 3.42251,33.0712 1.80251,9.23882 -10.44163,11.77546 -14.92486,18.16216 -31.641525,30.31738 -38.573307,82.03321 -18.57239,120.66881 21.15885,43.90011 74.69347,71.43882 122.44757,58.00509 35.80423,-8.99817 64.16903,-36.02138 83.01488,-66.7837 7.87918,6.3195 24.67377,33.07885 7.67057,44.88415 -28.73998,36.09763 -74.78644,58.73748 -121.31303,55.52547 z"
       id="path12379"
       style="stroke-width:0.621178" />
  </g>
</svg>
