<?xml version="1.0" encoding="UTF-8" standalone="no"?>
<svg
   height="480"
   width="480"
   version="1.1"
   id="svg1097"
   sodipodi:docname="pfeequestion.svg"
   inkscape:version="1.1.2 (b8e25be833, 2022-02-05)"
   xmlns:inkscape="http://www.inkscape.org/namespaces/inkscape"
   xmlns:sodipodi="http://sodipodi.sourceforge.net/DTD/sodipodi-0.dtd"
   xmlns="http://www.w3.org/2000/svg"
   xmlns:svg="http://www.w3.org/2000/svg">
  <defs
     id="defs1101" />
  <sodipodi:namedview
     id="namedview1099"
     pagecolor="#ffffff"
     bordercolor="#666666"
     borderopacity="1.0"
     inkscape:pageshadow="2"
     inkscape:pageopacity="0.0"
     inkscape:pagecheckerboard="0"
     showgrid="false"
     inkscape:zoom="1"
     inkscape:cx="423"
     inkscape:cy="298"
     inkscape:window-width="1920"
     inkscape:window-height="1027"
     inkscape:window-x="-8"
     inkscape:window-y="-8"
     inkscape:window-maximized="1"
     inkscape:current-layer="svg1097"
     showguides="false" />
  <path
     d="m30.856274 5.7720243h420.004816c10.81582.7906802 23.07189 11.8437647 23.66646 24.8647647v418.806511c.04967 10.31854-11.79351 24.19224-25.16434 24.86477h-419.405663c-9.523815-.58318-24.4313132-15.37852-24.8647639-25.16434l.5991509-418.207366c-1.0815617-6.302442 14.286068-25.2982414 25.16434-25.1643397z"
     fill="#fff"
     fill-rule="evenodd"
     stroke="#000"
     stroke-width="2"
     id="path1067" />
  <path
     d="m35.1875 16.78125c-11.760613-.514916-18.473169 7.51921-18.03125 20.375v406.40625c.046553 8.6672 3.728171 19.07043 15.6875 19.28125l414.4375-.03125c11.95933-.2108 15.6722-10.61405 15.71875-19.28125v-406.4375c.44191-12.855791-6.27063-20.88992-18.03125-20.375z"
     fill="#039"
     fill-rule="evenodd"
     id="path1069" />
  <path
     d="m 71.265846,63.862977 v 42.402303 h 29.591404 c 7.39777,7e-5 12.91608,-2.22529 16.55494,-6.676107 3.63869,-4.450656 5.45808,-9.292333 5.45817,-14.525043 -9e-5,-7.939057 -2.85698,-13.773127 -8.57068,-17.502232 -3.66893,-2.465836 -8.39031,-3.698813 -14.16418,-3.698921 z M 51.327737,176.45464 V 45.00748 h 47.725156 c 5.112267,1.31e-4 10.029127,0.541437 14.750587,1.623918 4.72132,1.082741 9.63817,3.608833 14.75059,7.578285 3.96949,3.067521 7.33761,7.292712 10.10438,12.675586 2.76657,5.383091 4.14991,11.623138 4.15002,18.720167 -1.1e-4,9.38272 -3.50356,18.314264 -10.51036,26.794654 -7.007,8.48051 -17.24669,12.72074 -30.71912,12.72069 H 71.265846 v 51.33386 z"
     fill="#ffffff"
     id="path1071"
     style="stroke-width:0.999999" />
  <rect
     x="-456.63797"
     y="-457.9642"
     transform="rotate(179.96789)"
     stroke-miterlimit="500"
     width="331.60336"
     height="331.60278"
     id="rect17"
     style="fill:none;stroke:#000000;stroke-width:0.01;stroke-linecap:round;stroke-linejoin:round;stroke-miterlimit:500" />
  <path
     clip-rule="evenodd"
     d="M 428.46696,163.47501 429.21577,45.555822 283.88884,44.867554 C 243.51809,44.821987 205.66295,64.47675 182.47195,97.5214 l -71.51052,101.77308 c -9.96879,15.81656 -16.20305,33.69537 -18.23025,52.28064 -0.27017,2.54341 0.90997,5.02378 3.05348,6.41724 2.14353,1.39472 4.88809,1.46862 7.1031,0.19126 15.041,-8.4408 31.92382,-13.05985 49.16774,-13.45246 l 74.05634,-85.83179 c 2.19077,-2.22472 5.23825,-3.39038 8.3548,-3.19651 l 26.75948,-0.70521 c 6.97707,-0.1089 13.3858,3.83388 16.43451,10.11175 3.04742,6.27791 2.18227,13.75299 -2.21867,19.16691 l -87.85417,104.5455 c -7.55019,9.05881 -6.86556,22.39737 1.57041,30.63459 8.43716,8.23842 21.78905,8.60316 30.66242,0.8373 l 86.35768,-75.64249 c 53.21609,-0.53558 101.13213,-32.34309 122.28866,-81.17639 z"
     id="path23"
     style="fill:#ffffff;fill-opacity:1;fill-rule:evenodd;stroke-width:0.999999" />
  <path
     clip-rule="evenodd"
     d="m 346.25457,293.96576 c 10.61702,0.37088 20.79298,-4.26644 27.48046,-12.52184 6.68866,-8.25665 9.10843,-19.17175 6.5384,-29.48103 -0.48227,-1.9884 -1.83941,-3.65088 -3.68726,-4.52455 -1.84787,-0.87364 -3.99256,-0.86758 -5.83442,0.0193 -12.74237,6.12524 -26.27602,10.43894 -40.20953,12.81508 -2.47795,0.32852 -4.58511,1.96424 -5.52054,4.28103 -0.93425,2.31798 -0.54893,4.9583 1.00816,6.91161 z"
     id="path25"
     style="fill:#ffffff;fill-opacity:1;fill-rule:evenodd;stroke-width:0.999999" />
  <path
     clip-rule="evenodd"
     d="m 260.39005,368.30565 c -0.32713,1.82485 0.11167,3.70302 1.2105,5.19581 1.09782,1.49285 2.7627,2.4707 4.6021,2.70093 11.029,1.38499 21.77083,-4.16948 27.01636,-13.96863 5.24553,-9.80158 3.909,-21.81937 -3.36007,-30.22746 l -23.65511,-27.36533 c -2.16895,-2.47799 -5.80165,-3.04023 -8.61773,-1.33533 -2.81359,1.70366 -3.99985,5.18492 -2.80995,8.25423 6.98432,18.05452 8.92673,37.67099 5.6139,56.74578 z"
     id="path27"
     style="fill:#ffffff;fill-opacity:1;fill-rule:evenodd;stroke-width:0.999999" />
  <path
     clip-rule="evenodd"
     d="m 161.83765,438.99828 c 26.3354,-1.78605 50.53215,-15.13312 66.09177,-36.45445 15.55962,-21.32373 20.88993,-48.43945 14.55634,-74.06359 -7.60233,11.47616 -20.02363,18.85792 -33.73897,20.05146 -13.71299,1.19349 -27.22364,-3.9296 -36.6956,-13.9202 -9.55557,-9.90818 -14.07165,-23.63447 -12.26615,-37.28201 1.80663,-13.64757 9.7373,-25.72473 21.54183,-32.80718 -25.30906,-7.47626 -52.6296,-3.37344 -74.62463,11.20591 -21.99625,14.58182 -36.415666,38.14721 -39.383142,64.37115 -2.896022,26.23361 5.964052,52.40544 24.199122,71.48751 18.23632,19.07966 43.98039,29.11628 70.31943,27.4114 z"
     id="path29"
     style="fill:#ffffff;fill-opacity:1;fill-rule:evenodd;stroke-width:0.999999" />
  <polygon
     clip-rule="evenodd"
     stroke-miterlimit="500"
     points="148.587,455.209 149.016,319.496 130.517,319.281 130.088,454.995 "
     id="polygon31"
     style="fill:#ffffff;fill-opacity:1;fill-rule:evenodd;stroke:#007fff;stroke-width:0.00825279;stroke-linecap:round;stroke-linejoin:round;stroke-miterlimit:500"
     transform="matrix(1.2117145,0,0,1.2117145,-122.97462,-112.94006)" />
  <path
     clip-rule="evenodd"
     d="m 287.12529,302.80035 27.25994,32.67146 c 6.01011,7.23636 16.74711,8.22999 23.98348,2.21989 7.23755,-6.01011 8.22875,-16.74835 2.21984,-23.98466 L 313.27169,280.7181 c -6.09735,-7.22065 -16.89372,-8.12944 -24.11315,-2.03207 -7.22058,6.09735 -8.13059,16.89495 -2.03325,24.11432 z"
     id="path33"
     style="fill:#ffffff;fill-opacity:1;fill-rule:evenodd;stroke-width:0.999999" />
  <text
     xml:space="preserve"
     style="font-size:225.906px;line-height:132.366px;font-family:Arial;-inkscape-font-specification:Arial;letter-spacing:0px;word-spacing:0px;fill:#ffffff;fill-opacity:1;stroke:none;stroke-width:1px;stroke-linecap:butt;stroke-linejoin:miter;stroke-opacity:1"
     x="344.94754"
     y="453.40274"
     id="text12134"><tspan
       sodipodi:role="line"
       id="tspan12132"
       x="344.94754"
       y="453.40274"
       style="stroke-width:1px">?</tspan></text>
</svg>
