<?xml version="1.0" encoding="UTF-8" standalone="no"?>
<svg
   height="480"
   width="480"
   version="1.1"
   id="svg1097"
   sodipodi:docname="pfeequestion.svg"
   inkscape:version="1.1.2 (b8e25be833, 2022-02-05)"
   xmlns:inkscape="http://www.inkscape.org/namespaces/inkscape"
   xmlns:sodipodi="http://sodipodi.sourceforge.net/DTD/sodipodi-0.dtd"
   xmlns="http://www.w3.org/2000/svg"
   xmlns:svg="http://www.w3.org/2000/svg">
  <defs
     id="defs1101" />
  <sodipodi:namedview
     id="namedview1099"
     pagecolor="#ffffff"
     bordercolor="#666666"
     borderopacity="1.0"
     inkscape:pageshadow="2"
     inkscape:pageopacity="0.0"
     inkscape:pagecheckerboard="0"
     showgrid="false"
     inkscape:zoom="1"
     inkscape:cx="423"
     inkscape:cy="298"
     inkscape:window-width="1920"
     inkscape:window-height="1027"
     inkscape:window-x="-8"
     inkscape:window-y="-8"
     inkscape:window-maximized="1"
     inkscape:current-layer="svg1097"
     showguides="false" />
  <path
     d="m30.856274 5.7720243h420.004816c10.81582.7906802 23.07189 11.8437647 23.66646 24.8647647v418.806511c.04967 10.31854-11.79351 24.19224-25.16434 24.86477h-419.405663c-9.523815-.58318-24.4313132-15.37852-24.8647639-25.16434l.5991509-418.207366c-1.0815617-6.302442 14.286068-25.2982414 25.16434-25.1643397z"
     fill="#fff"
     fill-rule="evenodd"
     stroke="#000"
     stroke-width="2"
     id="path1067" />
  <path
     d="m35.1875 16.78125c-11.760613-.514916-18.473169 7.51921-18.03125 20.375v406.40625c.046553 8.6672 3.728171 19.07043 15.6875 19.28125l414.4375-.03125c11.95933-.2108 15.6722-10.61405 15.71875-19.28125v-406.4375c.44191-12.855791-6.27063-20.88992-18.03125-20.375z"
     fill="#039"
     fill-rule="evenodd"
     id="path1069" />
  <path
     d="m 71.265846,63.862977 v 42.402303 h 29.591404 c 7.39777,7e-5 12.91608,-2.22529 16.55494,-6.676107 3.63869,-4.450656 5.45808,-9.292333 5.45817,-14.525043 -9e-5,-7.939057 -2.85698,-13.773127 -8.57068,-17.502232 -3.66893,-2.465836 -8.39031,-3.698813 -14.16418,-3.698921 z M 51.327737,176.45464 V 45.00748 h 47.725156 c 5.112267,1.31e-4 10.029127,0.541437 14.750587,1.623918 4.72132,1.082741 9.63817,3.608833 14.75059,7.578285 3.96949,3.067521 7.33761,7.292712 10.10438,12.675586 2.76657,5.383091 4.14991,11.623138 4.15002,18.720167 -1.1e-4,9.38272 -3.50356,18.314264 -10.51036,26.794654 -7.007,8.48051 -17.24669,12.72074 -30.71912,12.72069 H 71.265846 v 51.33386 z"
     fill="#ffffff"
     id="path1071"
     style="stroke-width:0.999999" />
  <rect
     x="-456.63797"
     y="-457.9642"
     transform="rotate(179.96789)"
     stroke-miterlimit="500"
     width="331.60336"
     height="331.60278"
     id="rect17"
     style="fill:none;stroke:#000000;stroke-width:0.01;stroke-linecap:round;stroke-linejoin:round;stroke-miterlimit:500" />
  <path
     clip-rule="evenodd"
     d="m 427.03441,365.40662 0.18136,-28.56063 -35.19893,-0.1667 c -9.778,-0.011 -18.94671,4.74945 -24.56368,12.75303 l -17.32022,24.64996 c -2.41449,3.83086 -3.92446,8.16119 -4.41546,12.66264 -0.0654,0.61603 0.2204,1.21679 0.73957,1.55429 0.51917,0.33781 1.18392,0.35571 1.72041,0.0463 3.643,-2.0444 7.73211,-3.16316 11.90868,-3.25825 l 17.93682,-20.7889 c 0.53062,-0.53884 1.26873,-0.82117 2.02358,-0.77421 l 6.48128,-0.17081 c 1.68988,-0.0264 3.24211,0.92859 3.98052,2.44912 0.7381,1.52054 0.52856,3.33105 -0.53737,4.64233 l -21.27873,25.32145 c -1.8287,2.19409 -1.66288,5.42476 0.38036,7.41986 2.04352,1.99538 5.27742,2.08373 7.42659,0.20279 l 20.91628,-18.32099 c 12.88921,-0.12972 24.49472,-7.83367 29.61894,-19.66134 z"
     id="path23"
     style="fill:#ffffff;fill-opacity:1;fill-rule:evenodd;stroke-width:1" />
  <path
     clip-rule="evenodd"
     d="m 407.12214,397.01215 c 2.5715,0.0898 5.03617,-1.03335 6.65591,-3.03285 1.62003,-1.9998 2.20611,-4.6435 1.58364,-7.14046 -0.11681,-0.4816 -0.44552,-0.88426 -0.89308,-1.09587 -0.44756,-0.2116 -0.96702,-0.21013 -1.41312,0.005 -3.08627,1.48356 -6.36419,2.52836 -9.73896,3.10388 -0.60017,0.0796 -1.11054,0.47574 -1.3371,1.03688 -0.22628,0.56143 -0.13295,1.20093 0.24418,1.67403 z"
     id="path25"
     style="fill:#ffffff;fill-opacity:1;fill-rule:evenodd;stroke-width:1" />
  <path
     clip-rule="evenodd"
     d="m 386.32532,415.01765 c -0.0792,0.44199 0.0271,0.89689 0.29319,1.25846 0.26589,0.36157 0.66914,0.59841 1.11465,0.65418 2.67128,0.33545 5.27301,-1.00987 6.5435,-3.38328 1.27049,-2.37399 0.94678,-5.28476 -0.81383,-7.32124 l -5.72938,-6.62803 c -0.52534,-0.60018 -1.40519,-0.73636 -2.08726,-0.32342 -0.68147,0.41263 -0.96879,1.25581 -0.68059,1.99922 1.69164,4.37289 2.1621,9.1241 1.35972,13.74411 z"
     id="path27"
     style="fill:#ffffff;fill-opacity:1;fill-rule:evenodd;stroke-width:1" />
  <path
     clip-rule="evenodd"
     d="m 362.45542,432.13977 c 6.37857,-0.43259 12.23915,-3.66532 16.00777,-8.82945 3.76862,-5.16472 5.05964,-11.73229 3.52562,-17.93858 -1.84133,2.77958 -4.84983,4.56748 -8.17176,4.85656 -3.32135,0.28907 -6.5937,-0.95177 -8.88786,-3.37154 -2.31441,-2.39981 -3.40822,-5.72439 -2.97092,-9.0299 0.43757,-3.30551 2.35842,-6.23066 5.21754,-7.94606 -6.12998,-1.81079 -12.74716,-0.81707 -18.07447,2.71413 -5.3276,3.53179 -8.82006,9.23945 -9.5388,15.59102 -0.70143,6.35391 1.44453,12.69286 5.86116,17.31464 4.41693,4.62119 10.65227,7.05211 17.03172,6.63918 z"
     id="path29"
     style="fill:#ffffff;fill-opacity:1;fill-rule:evenodd;stroke-width:1" />
  <polygon
     clip-rule="evenodd"
     stroke-miterlimit="500"
     points="130.088,454.995 148.587,455.209 149.016,319.496 130.517,319.281 "
     id="polygon31"
     style="fill:#ffffff;fill-opacity:1;fill-rule:evenodd;stroke:#007fff;stroke-width:0.0340736;stroke-linecap:round;stroke-linejoin:round;stroke-miterlimit:500"
     transform="matrix(0.29348345,0,0,0.29348345,293.47243,298.45748)" />
  <path
     clip-rule="evenodd"
     d="m 95.800729,406.15194 6.602501,7.91319 c 1.45568,1.75268 4.05623,1.99335 5.80892,0.53767 1.75297,-1.45568 1.99304,-4.05654 0.53765,-5.80921 l -6.61628,-7.99009 c -1.47681,-1.74888 -4.091744,-1.96899 -5.840327,-0.49218 -1.748862,1.47681 -1.969271,4.09205 -0.492464,5.84062 z"
     id="path33"
     style="fill:#ffffff;fill-opacity:1;fill-rule:evenodd;stroke-width:1" />
  <text
     xml:space="preserve"
     style="font-size:491.035px;line-height:287.714px;font-family:Arial;-inkscape-font-specification:Arial;letter-spacing:0px;word-spacing:0px;fill:#ffffff;fill-opacity:1;stroke:none;stroke-width:1px;stroke-linecap:butt;stroke-linejoin:miter;stroke-opacity:1"
     x="139.82954"
     y="430.40271"
     id="text12134"><tspan
       sodipodi:role="line"
       id="tspan12132"
       x="139.82954"
       y="430.40271"
       style="stroke-width:1px">?</tspan></text>
</svg>
