<?xml version="1.0" encoding="UTF-8" standalone="no"?>
<svg
   height="480"
   width="480"
   version="1.1"
   id="svg1097"
   sodipodi:docname="pfeequestion.svg"
   inkscape:version="1.1.2 (b8e25be833, 2022-02-05)"
   xmlns:inkscape="http://www.inkscape.org/namespaces/inkscape"
   xmlns:sodipodi="http://sodipodi.sourceforge.net/DTD/sodipodi-0.dtd"
   xmlns="http://www.w3.org/2000/svg"
   xmlns:svg="http://www.w3.org/2000/svg">
  <defs
     id="defs1101" />
  <sodipodi:namedview
     id="namedview1099"
     pagecolor="#ffffff"
     bordercolor="#666666"
     borderopacity="1.0"
     inkscape:pageshadow="2"
     inkscape:pageopacity="0.0"
     inkscape:pagecheckerboard="0"
     showgrid="false"
     inkscape:zoom="1"
     inkscape:cx="423"
     inkscape:cy="298"
     inkscape:window-width="1920"
     inkscape:window-height="1027"
     inkscape:window-x="-8"
     inkscape:window-y="-8"
     inkscape:window-maximized="1"
     inkscape:current-layer="svg1097"
     showguides="false" />
  <path
     d="m30.856274 5.7720243h420.004816c10.81582.7906802 23.07189 11.8437647 23.66646 24.8647647v418.806511c.04967 10.31854-11.79351 24.19224-25.16434 24.86477h-419.405663c-9.523815-.58318-24.4313132-15.37852-24.8647639-25.16434l.5991509-418.207366c-1.0815617-6.302442 14.286068-25.2982414 25.16434-25.1643397z"
     fill="#fff"
     fill-rule="evenodd"
     stroke="#000"
     stroke-width="2"
     id="path1067" />
  <path
     d="m35.1875 16.78125c-11.760613-.514916-18.473169 7.51921-18.03125 20.375v406.40625c.046553 8.6672 3.728171 19.07043 15.6875 19.28125l414.4375-.03125c11.95933-.2108 15.6722-10.61405 15.71875-19.28125v-406.4375c.44191-12.855791-6.27063-20.88992-18.03125-20.375z"
     fill="#039"
     fill-rule="evenodd"
     id="path1069" />
  <path
     d="m 71.265846,63.862977 v 42.402303 h 29.591404 c 7.39777,7e-5 12.91608,-2.22529 16.55494,-6.676107 3.63869,-4.450656 5.45808,-9.292333 5.45817,-14.525043 -9e-5,-7.939057 -2.85698,-13.773127 -8.57068,-17.502232 -3.66893,-2.465836 -8.39031,-3.698813 -14.16418,-3.698921 z M 51.327737,176.45464 V 45.00748 h 47.725156 c 5.112267,1.31e-4 10.029127,0.541437 14.750587,1.623918 4.72132,1.082741 9.63817,3.608833 14.75059,7.578285 3.96949,3.067521 7.33761,7.292712 10.10438,12.675586 2.76657,5.383091 4.14991,11.623138 4.15002,18.720167 -1.1e-4,9.38272 -3.50356,18.314264 -10.51036,26.794654 -7.007,8.48051 -17.24669,12.72074 -30.71912,12.72069 H 71.265846 v 51.33386 z"
     fill="#ffffff"
     id="path1071"
     style="stroke-width:0.999999" />
  <rect
     x="-456.63797"
     y="-457.9642"
     transform="rotate(179.96789)"
     stroke-miterlimit="500"
     width="331.60336"
     height="331.60278"
     id="rect17"
     style="fill:none;stroke:#000000;stroke-width:0.01;stroke-linecap:round;stroke-linejoin:round;stroke-miterlimit:500" />
  <path
     clip-rule="evenodd"
     d="M 324.80922,115.95156 325.25256,46.137793 239.21211,45.7303 C 215.3107,45.70331 192.89866,57.339879 179.16847,76.90388 l -42.33763,60.25451 c -5.90199,9.36416 -9.59298,19.94927 -10.79318,30.95262 -0.15995,1.50583 0.53876,2.97433 1.80782,3.79932 1.26906,0.82574 2.89398,0.86949 4.20536,0.11325 8.905,-4.99736 18.90043,-7.73206 29.10965,-7.9645 l 43.84487,-50.8165 c 1.29705,-1.31714 3.1013,-2.00728 4.94645,-1.89249 l 15.84288,-0.41752 c 4.13076,-0.0644 7.92503,2.26984 9.73001,5.98664 1.80422,3.71682 1.29201,8.14242 -1.31355,11.34772 l -52.01385,61.89592 c -4.47007,5.36324 -4.06475,13.26031 0.92975,18.13713 4.99521,4.87754 12.90016,5.09347 18.15362,0.49572 l 51.12786,-44.78395 c 31.50645,-0.31709 59.87502,-19.14865 72.40069,-48.06028 z"
     id="path23"
     style="fill:#ffffff;fill-opacity:1;fill-rule:evenodd;stroke-width:0.999997" />
  <path
     clip-rule="evenodd"
     d="m 276.13558,193.20829 c 6.28578,0.21958 12.31043,-2.52593 16.26974,-7.41353 3.96,-4.88832 5.39263,-11.35058 3.87104,-17.45416 -0.28553,-1.17723 -1.08901,-2.1615 -2.18303,-2.67875 -1.09402,-0.51724 -2.36379,-0.51366 -3.45425,0.0119 -7.5441,3.62643 -15.55665,6.18035 -23.80597,7.58714 -1.46705,0.1945 -2.7146,1.16291 -3.26841,2.53457 -0.55313,1.37236 -0.325,2.93555 0.59687,4.092 z"
     id="path25"
     style="fill:#ffffff;fill-opacity:1;fill-rule:evenodd;stroke-width:0.999997" />
  <path
     clip-rule="evenodd"
     d="m 225.2997,237.22105 c -0.19368,1.08039 0.0661,2.19236 0.71667,3.07616 0.64997,0.88385 1.63565,1.46278 2.72466,1.59908 6.52969,0.81998 12.88937,-2.46852 15.99497,-8.27009 3.1056,-5.803 2.31431,-12.9181 -1.98932,-17.89609 l -14.00495,-16.20158 c -1.28412,-1.46709 -3.43486,-1.79997 -5.1021,-0.79059 -1.66579,1.00865 -2.3681,3.06972 -1.66363,4.8869 4.13505,10.68914 5.28505,22.30302 3.3237,33.59621 z"
     id="path27"
     style="fill:#ffffff;fill-opacity:1;fill-rule:evenodd;stroke-width:0.999997" />
  <path
     clip-rule="evenodd"
     d="m 166.95199,279.07445 c 15.59181,-1.05743 29.91743,-8.95953 39.12947,-21.58277 9.21204,-12.62466 12.36784,-28.67846 8.61804,-43.84917 -4.50093,6.79443 -11.85493,11.16478 -19.97506,11.87142 -8.11875,0.70659 -16.1177,-2.32652 -21.72556,-8.24142 -5.65735,-5.86612 -8.33107,-13.99274 -7.26213,-22.07273 1.0696,-8.08 5.76494,-15.23026 12.75379,-19.42342 -14.98418,-4.4263 -31.15924,-1.99723 -44.18134,6.63444 -13.02282,8.63313 -21.5598,22.58496 -23.31669,38.11079 -1.71458,15.53154 3.53101,31.02651 14.32703,42.324 10.79676,11.29607 26.03848,17.23822 41.63245,16.22886 z"
     id="path29"
     style="fill:#ffffff;fill-opacity:1;fill-rule:evenodd;stroke-width:0.999997" />
  <polygon
     clip-rule="evenodd"
     stroke-miterlimit="500"
     points="149.016,319.496 130.517,319.281 130.088,454.995 148.587,455.209 "
     id="polygon31"
     style="fill:#ffffff;fill-opacity:1;fill-rule:evenodd;stroke:#007fff;stroke-width:0.0139394;stroke-linecap:round;stroke-linejoin:round;stroke-miterlimit:500"
     transform="matrix(0.71739265,0,0,0.71739265,-1.6704263,-47.699322)" />
  <path
     clip-rule="evenodd"
     d="m 241.12824,198.43879 16.13918,19.34306 c 3.55827,4.28427 9.91508,4.87254 14.19935,1.31428 4.28498,-3.55827 4.87182,-9.91582 1.31426,-14.20006 l -16.17288,-19.53103 c -3.60992,-4.27496 -10.00189,-4.813 -14.27614,-1.20308 -4.27492,3.60992 -4.8137,10.00261 -1.20377,14.27683 z"
     id="path33"
     style="fill:#ffffff;fill-opacity:1;fill-rule:evenodd;stroke-width:0.999997" />
  <text
     xml:space="preserve"
     style="font-size:349.528px;line-height:204.8px;font-family:Arial;-inkscape-font-specification:Arial;letter-spacing:0px;word-spacing:0px;fill:#ffffff;fill-opacity:1;stroke:none;stroke-width:1px;stroke-linecap:butt;stroke-linejoin:miter;stroke-opacity:1"
     x="282.41232"
     y="453.40274"
     id="text12134"><tspan
       sodipodi:role="line"
       id="tspan12132"
       x="282.41232"
       y="453.40274"
       style="stroke-width:1px">?</tspan></text>
</svg>
