<?xml version="1.0" encoding="UTF-8" standalone="no"?>
<svg
   height="480"
   width="480"
   version="1.1"
   id="svg1097"
   sodipodi:docname="phgv.svg"
   inkscape:version="1.1.2 (b8e25be833, 2022-02-05)"
   xmlns:inkscape="http://www.inkscape.org/namespaces/inkscape"
   xmlns:sodipodi="http://sodipodi.sourceforge.net/DTD/sodipodi-0.dtd"
   xmlns="http://www.w3.org/2000/svg"
   xmlns:svg="http://www.w3.org/2000/svg">
  <defs
     id="defs1101" />
  <sodipodi:namedview
     id="namedview1099"
     pagecolor="#ffffff"
     bordercolor="#666666"
     borderopacity="1.0"
     inkscape:pageshadow="2"
     inkscape:pageopacity="0.0"
     inkscape:pagecheckerboard="0"
     showgrid="false"
     inkscape:zoom="1"
     inkscape:cx="329"
     inkscape:cy="126"
     inkscape:window-width="1920"
     inkscape:window-height="1027"
     inkscape:window-x="-8"
     inkscape:window-y="-8"
     inkscape:window-maximized="1"
     inkscape:current-layer="svg1097" />
  <path
     d="m30.856274 5.7720243h420.004816c10.81582.7906802 23.07189 11.8437647 23.66646 24.8647647v418.806511c.04967 10.31854-11.79351 24.19224-25.16434 24.86477h-419.405663c-9.523815-.58318-24.4313132-15.37852-24.8647639-25.16434l.5991509-418.207366c-1.0815617-6.302442 14.286068-25.2982414 25.16434-25.1643397z"
     fill="#fff"
     fill-rule="evenodd"
     stroke="#000"
     stroke-width="2"
     id="path1067" />
  <path
     d="m35.1875 16.78125c-11.760613-.514916-18.473169 7.51921-18.03125 20.375v406.40625c.046553 8.6672 3.728171 19.07043 15.6875 19.28125l414.4375-.03125c11.95933-.2108 15.6722-10.61405 15.71875-19.28125v-406.4375c.44191-12.855791-6.27063-20.88992-18.03125-20.375z"
     fill="#039"
     fill-rule="evenodd"
     id="path1069" />
  <path
     d="m 71.265846,63.862977 v 42.402303 h 29.591404 c 7.39777,7e-5 12.91608,-2.22529 16.55494,-6.676107 3.63869,-4.450656 5.45808,-9.292333 5.45817,-14.525043 -9e-5,-7.939057 -2.85698,-13.773127 -8.57068,-17.502232 -3.66893,-2.465836 -8.39031,-3.698813 -14.16418,-3.698921 z M 51.327737,176.45464 V 45.00748 h 47.725156 c 5.112267,1.31e-4 10.029127,0.541437 14.750587,1.623918 4.72132,1.082741 9.63817,3.608833 14.75059,7.578285 3.96949,3.067521 7.33761,7.292712 10.10438,12.675586 2.76657,5.383091 4.14991,11.623138 4.15002,18.720167 -1.1e-4,9.38272 -3.50356,18.314264 -10.51036,26.794654 -7.007,8.48051 -17.24669,12.72074 -30.71912,12.72069 H 71.265846 v 51.33386 z"
     fill="#ffffff"
     id="path1071"
     style="stroke-width:0.999999" />
  <g
     transform="matrix(0.46269611,0,0,0.46269611,8.044452,223.46159)"
     id="g21460"
     style="stroke-width:1.729;fill:#ffffff">
    <path
       style="fill:#ffffff;fill-rule:evenodd;stroke:none;stroke-width:1.729"
       d="m 295.784,86.817 v 248.266 l 391.932,0.32 c -23,18.791 -37.359,44.691 -37.171,78.685 L 261.479,413.857 C 257.752,281.974 70.643,282.422 66.577,413.094 38.474,412.885 34.576,406.502 34.305,380.615 v -99 C 33.952,237.373 28.427,266.577 61.177,182.68 94.875,93.246 85.585,101.513 116.065,99.205 Z M 217.939,233.2 219.49,127.72 119.44,133.925 c -18.24,1.222 -18.392,1.337 -24.819,22.492 l -25.594,68.251 c -8.598,20.935 -7.23,27.103 16.287,24.043 z m 748.696,102.391 0.191,55.777 -64.608,22.87 -56.727,-0.036 c 0.231,-32.343 -13.21,-59.545 -37.041,-78.653 z"
       id="path21452" />
    <rect
       x="335.79999"
       y="12.2"
       height="301.70001"
       width="631.29999"
       style="fill:#ffffff;stroke:none;stroke-width:1.729"
       id="rect21454" />
    <circle
       r="77"
       cx="164"
       cy="412"
       style="fill:#ffffff;stroke:none;stroke-width:1.729"
       id="circle21456" />
    <circle
       r="77"
       cx="748"
       cy="412"
       style="fill:#ffffff;stroke:none;stroke-width:1.729"
       id="circle21458" />
  </g>
</svg>
