<?xml version="1.0" encoding="UTF-8" standalone="no"?>
<svg
   height="480"
   width="480"
   version="1.1"
   id="svg1097"
   sodipodi:docname="pmotorbike.svg"
   inkscape:version="1.1.2 (b8e25be833, 2022-02-05)"
   xmlns:inkscape="http://www.inkscape.org/namespaces/inkscape"
   xmlns:sodipodi="http://sodipodi.sourceforge.net/DTD/sodipodi-0.dtd"
   xmlns="http://www.w3.org/2000/svg"
   xmlns:svg="http://www.w3.org/2000/svg">
  <defs
     id="defs1101" />
  <sodipodi:namedview
     id="namedview1099"
     pagecolor="#ffffff"
     bordercolor="#666666"
     borderopacity="1.0"
     inkscape:pageshadow="2"
     inkscape:pageopacity="0.0"
     inkscape:pagecheckerboard="0"
     showgrid="false"
     inkscape:zoom="1"
     inkscape:cx="329"
     inkscape:cy="126"
     inkscape:window-width="1920"
     inkscape:window-height="1027"
     inkscape:window-x="-8"
     inkscape:window-y="-8"
     inkscape:window-maximized="1"
     inkscape:current-layer="svg1097" />
  <path
     d="m30.856274 5.7720243h420.004816c10.81582.7906802 23.07189 11.8437647 23.66646 24.8647647v418.806511c.04967 10.31854-11.79351 24.19224-25.16434 24.86477h-419.405663c-9.523815-.58318-24.4313132-15.37852-24.8647639-25.16434l.5991509-418.207366c-1.0815617-6.302442 14.286068-25.2982414 25.16434-25.1643397z"
     fill="#fff"
     fill-rule="evenodd"
     stroke="#000"
     stroke-width="2"
     id="path1067" />
  <path
     d="m35.1875 16.78125c-11.760613-.514916-18.473169 7.51921-18.03125 20.375v406.40625c.046553 8.6672 3.728171 19.07043 15.6875 19.28125l414.4375-.03125c11.95933-.2108 15.6722-10.61405 15.71875-19.28125v-406.4375c.44191-12.855791-6.27063-20.88992-18.03125-20.375z"
     fill="#039"
     fill-rule="evenodd"
     id="path1069" />
  <path
     d="m 71.265846,63.862977 v 42.402303 h 29.591404 c 7.39777,7e-5 12.91608,-2.22529 16.55494,-6.676107 3.63869,-4.450656 5.45808,-9.292333 5.45817,-14.525043 -9e-5,-7.939057 -2.85698,-13.773127 -8.57068,-17.502232 -3.66893,-2.465836 -8.39031,-3.698813 -14.16418,-3.698921 z M 51.327737,176.45464 V 45.00748 h 47.725156 c 5.112267,1.31e-4 10.029127,0.541437 14.750587,1.623918 4.72132,1.082741 9.63817,3.608833 14.75059,7.578285 3.96949,3.067521 7.33761,7.292712 10.10438,12.675586 2.76657,5.383091 4.14991,11.623138 4.15002,18.720167 -1.1e-4,9.38272 -3.50356,18.314264 -10.51036,26.794654 -7.007,8.48051 -17.24669,12.72074 -30.71912,12.72069 H 71.265846 v 51.33386 z"
     fill="#ffffff"
     id="path1071"
     style="stroke-width:0.999999" />
  <g
     id="g21797"
     transform="matrix(0.9202946,0,0,0.9202946,31.170454,136.21499)"
     style="stroke-width:1.08661;fill:#ffffff">
    <path
       d="m 397.884,217.461 c 0.881,-0.868 1.736,-1.715 2.56,-2.537 10.797,-10.797 15.417,-21.94 13.73,-33.119 -1.75,-11.611 -10.229,-21.74 -24.521,-29.292 -18.274,-9.656 -74.508,-38.746 -75.073,-39.039 -3.479,-1.799 -7.688,-1.402 -10.771,1.017 -3.081,2.419 -4.467,6.415 -3.544,10.221 l 8.234,33.965 -66.88,-14.592 c -2.841,-0.62 -5.807,0.026 -8.132,1.77 l -38.365,28.773 -42.261,-8.965 -36.938,-35.517 c -2.166,-2.082 -5.154,-3.079 -8.135,-2.719 l -98.995,12 c -4.312,0.522 -7.794,3.77 -8.614,8.036 -0.822,4.266 1.204,8.574 5.014,10.661 l 120.526,66.045 -11.528,9.278 C 103.263,223.254 88.617,217 72.528,217 c -33.719,0 -61.151,27.433 -61.151,61.151 0,33.72 27.434,61.151 61.151,61.151 32.589,0 59.302,-25.626 61.056,-57.784 h 34.394 l 6.84,15.801 c 1.584,3.659 5.188,6.027 9.177,6.027 h 115.494 c 2.417,0 4.753,-0.875 6.574,-2.465 1.003,-0.875 10.445,-9.12 23.349,-20.568 1.145,32.721 28.104,58.989 61.097,58.989 33.721,0 61.152,-27.433 61.152,-61.151 -0.002,-31.22 -23.526,-57.032 -53.777,-60.69 z M 72.528,299.304 c -11.663,0 -21.151,-9.488 -21.151,-21.15 0,-11.664 9.488,-21.152 21.151,-21.152 11.663,0 21.151,9.489 21.151,21.152 0.001,11.661 -9.488,21.15 -21.151,21.15 z m 317.978,0 c -11.663,0 -21.15,-9.488 -21.15,-21.15 0,-11.664 9.487,-21.152 21.15,-21.152 11.663,0 21.152,9.489 21.152,21.152 10e-4,11.661 -9.489,21.15 -21.152,21.15 z"
       id="path21795"
       style="stroke-width:1.08661;fill:#ffffff" />
  </g>
</svg>
