<?xml version="1.0" encoding="UTF-8" standalone="no"?>
<svg
   height="480"
   width="480"
   version="1.1"
   id="svg1097"
   sodipodi:docname="pmotorhome.svg"
   inkscape:version="1.1.2 (b8e25be833, 2022-02-05)"
   xmlns:inkscape="http://www.inkscape.org/namespaces/inkscape"
   xmlns:sodipodi="http://sodipodi.sourceforge.net/DTD/sodipodi-0.dtd"
   xmlns="http://www.w3.org/2000/svg"
   xmlns:svg="http://www.w3.org/2000/svg">
  <defs
     id="defs1101" />
  <sodipodi:namedview
     id="namedview1099"
     pagecolor="#ffffff"
     bordercolor="#666666"
     borderopacity="1.0"
     inkscape:pageshadow="2"
     inkscape:pageopacity="0.0"
     inkscape:pagecheckerboard="0"
     showgrid="false"
     inkscape:zoom="1"
     inkscape:cx="329"
     inkscape:cy="126"
     inkscape:window-width="1920"
     inkscape:window-height="1027"
     inkscape:window-x="-8"
     inkscape:window-y="-8"
     inkscape:window-maximized="1"
     inkscape:current-layer="svg1097" />
  <path
     d="m30.856274 5.7720243h420.004816c10.81582.7906802 23.07189 11.8437647 23.66646 24.8647647v418.806511c.04967 10.31854-11.79351 24.19224-25.16434 24.86477h-419.405663c-9.523815-.58318-24.4313132-15.37852-24.8647639-25.16434l.5991509-418.207366c-1.0815617-6.302442 14.286068-25.2982414 25.16434-25.1643397z"
     fill="#fff"
     fill-rule="evenodd"
     stroke="#000"
     stroke-width="2"
     id="path1067" />
  <path
     d="m35.1875 16.78125c-11.760613-.514916-18.473169 7.51921-18.03125 20.375v406.40625c.046553 8.6672 3.728171 19.07043 15.6875 19.28125l414.4375-.03125c11.95933-.2108 15.6722-10.61405 15.71875-19.28125v-406.4375c.44191-12.855791-6.27063-20.88992-18.03125-20.375z"
     fill="#039"
     fill-rule="evenodd"
     id="path1069" />
  <path
     d="m 71.265846,63.862977 v 42.402303 h 29.591404 c 7.39777,7e-5 12.91608,-2.22529 16.55494,-6.676107 3.63869,-4.450656 5.45808,-9.292333 5.45817,-14.525043 -9e-5,-7.939057 -2.85698,-13.773127 -8.57068,-17.502232 -3.66893,-2.465836 -8.39031,-3.698813 -14.16418,-3.698921 z M 51.327737,176.45464 V 45.00748 h 47.725156 c 5.112267,1.31e-4 10.029127,0.541437 14.750587,1.623918 4.72132,1.082741 9.63817,3.608833 14.75059,7.578285 3.96949,3.067521 7.33761,7.292712 10.10438,12.675586 2.76657,5.383091 4.14991,11.623138 4.15002,18.720167 -1.1e-4,9.38272 -3.50356,18.314264 -10.51036,26.794654 -7.007,8.48051 -17.24669,12.72074 -30.71912,12.72069 H 71.265846 v 51.33386 z"
     fill="#ffffff"
     id="path1071"
     style="stroke-width:0.999999" />
  <g
     id="XMLID_15_"
     transform="matrix(0.86567164,0,0,0.86567164,70.447761,115.72388)"
     style="stroke-width:1.15517;fill:#ffffff">
    <path
       id="XMLID_898_"
       d="m 383.757,214.898 -44.177,-47.332 80.217,0.047 V 167.5 H 420 v -55 c 0,-30.327 -24.673,-55 -55,-55 H 55 c -30.327,0 -55,24.673 -55,55 v 180 c 0,29.278 22.997,53.279 51.875,54.905 6.646,25.898 30.185,45.095 58.125,45.095 27.906,0 51.424,-19.15 58.102,-45 h 113.797 c 6.678,25.85 30.195,45 58.102,45 27.906,0 51.424,-19.15 58.102,-45 H 445 h 5 v -105 z M 340.481,212.5 H 300 V 169.128 Z M 140,332.5 c 0,16.542 -13.458,30 -30,30 -16.542,0 -30,-13.458 -30,-30 0,-16.542 13.458,-30 30,-30 16.542,0 30,13.458 30,30 z m 230,0 c 0,16.542 -13.458,30 -30,30 -16.542,0 -30,-13.458 -30,-30 0,-16.542 13.458,-30 30,-30 16.542,0 30,13.458 30,30 z m 28.102,-15 c -6.678,-25.85 -30.195,-45 -58.102,-45 -27.906,0 -51.424,19.15 -58.102,45 H 168.102 c -6.678,-25.85 -30.195,-45 -58.102,-45 -27.836,0 -51.302,19.057 -58.047,44.808 C 39.601,315.799 30,305.254 30,292.5 v -180 c 0,-13.785 11.215,-25 25,-25 h 310 c 13.785,0 25,11.215 25,25 v 25 H 389.797 225 v 30 h 45 v 75 h 102 l 48,20 v 55 z"
       style="stroke-width:1.15517;fill:#ffffff" />
    <path
       id="XMLID_904_"
       d="m 84.917,242.5 h 90 v -100 h -90 z m 30,-70 h 30 v 40 h -30 z"
       style="stroke-width:1.15517;fill:#ffffff" />
  </g>
</svg>
