<?xml version="1.0" encoding="UTF-8" standalone="no"?>
<svg
   height="480"
   width="480"
   version="1.1"
   id="svg1097"
   sodipodi:docname="pparents.svg"
   inkscape:version="1.1.2 (b8e25be833, 2022-02-05)"
   xmlns:inkscape="http://www.inkscape.org/namespaces/inkscape"
   xmlns:sodipodi="http://sodipodi.sourceforge.net/DTD/sodipodi-0.dtd"
   xmlns="http://www.w3.org/2000/svg"
   xmlns:svg="http://www.w3.org/2000/svg">
  <defs
     id="defs1101" />
  <sodipodi:namedview
     id="namedview1099"
     pagecolor="#ffffff"
     bordercolor="#666666"
     borderopacity="1.0"
     inkscape:pageshadow="2"
     inkscape:pageopacity="0.0"
     inkscape:pagecheckerboard="0"
     showgrid="false"
     inkscape:zoom="1"
     inkscape:cx="329"
     inkscape:cy="126"
     inkscape:window-width="1920"
     inkscape:window-height="1027"
     inkscape:window-x="-8"
     inkscape:window-y="-8"
     inkscape:window-maximized="1"
     inkscape:current-layer="svg1097" />
  <path
     d="m30.856274 5.7720243h420.004816c10.81582.7906802 23.07189 11.8437647 23.66646 24.8647647v418.806511c.04967 10.31854-11.79351 24.19224-25.16434 24.86477h-419.405663c-9.523815-.58318-24.4313132-15.37852-24.8647639-25.16434l.5991509-418.207366c-1.0815617-6.302442 14.286068-25.2982414 25.16434-25.1643397z"
     fill="#fff"
     fill-rule="evenodd"
     stroke="#000"
     stroke-width="2"
     id="path1067" />
  <path
     d="m35.1875 16.78125c-11.760613-.514916-18.473169 7.51921-18.03125 20.375v406.40625c.046553 8.6672 3.728171 19.07043 15.6875 19.28125l414.4375-.03125c11.95933-.2108 15.6722-10.61405 15.71875-19.28125v-406.4375c.44191-12.855791-6.27063-20.88992-18.03125-20.375z"
     fill="#039"
     fill-rule="evenodd"
     id="path1069" />
  <path
     d="m 71.265846,63.862977 v 42.402303 h 29.591404 c 7.39777,7e-5 12.91608,-2.22529 16.55494,-6.676107 3.63869,-4.450656 5.45808,-9.292333 5.45817,-14.525043 -9e-5,-7.939057 -2.85698,-13.773127 -8.57068,-17.502232 -3.66893,-2.465836 -8.39031,-3.698813 -14.16418,-3.698921 z M 51.327737,176.45464 V 45.00748 h 47.725156 c 5.112267,1.31e-4 10.029127,0.541437 14.750587,1.623918 4.72132,1.082741 9.63817,3.608833 14.75059,7.578285 3.96949,3.067521 7.33761,7.292712 10.10438,12.675586 2.76657,5.383091 4.14991,11.623138 4.15002,18.720167 -1.1e-4,9.38272 -3.50356,18.314264 -10.51036,26.794654 -7.007,8.48051 -17.24669,12.72074 -30.71912,12.72069 H 71.265846 v 51.33386 z"
     fill="#ffffff"
     id="path1071"
     style="stroke-width:0.999999" />
  <g
     id="g1277"
     transform="matrix(0.80421896,0,0,0.80421896,87.119038,46.239893)"
     style="stroke-width:1.24344;fill:#ffffff">
    <g
       id="g1275"
       style="stroke-width:1.24344;fill:#ffffff">
      <path
         d="m 136.956,121.164 c -21.208,0 -38.401,17.193 -38.401,38.401 0,12.585 6.055,23.756 15.41,30.759 3.407,-3.011 7.47,-5.392 12.071,-6.886 l 48.446,-15.728 c 0.567,-2.627 0.874,-5.35 0.874,-8.145 0.002,-21.208 -17.191,-38.401 -38.4,-38.401 z"
         id="path1273"
         style="stroke-width:1.24344;fill:#ffffff" />
    </g>
  </g>
  <g
     id="g1283"
     transform="matrix(0.80421896,0,0,0.80421896,87.119038,46.239893)"
     style="stroke-width:1.24344;fill:#ffffff">
    <g
       id="g1281"
       style="stroke-width:1.24344;fill:#ffffff">
      <path
         d="M 175.599,337.126 H 97.588 l 0.007,156.498 c 0,9.761 7.913,17.674 17.674,17.674 9.761,0 17.674,-7.913 17.674,-17.674 V 352.356 h 7.631 v 141.268 c 0,9.761 7.913,17.674 17.674,17.674 9.761,0 17.674,-7.913 17.674,-17.674 -0.002,-157.737 -0.323,-156.498 -0.323,-156.498 z"
         id="path1279"
         style="stroke-width:1.24344;fill:#ffffff" />
    </g>
  </g>
  <g
     id="g1289"
     transform="matrix(0.80421896,0,0,0.80421896,87.119038,46.239893)"
     style="stroke-width:1.24344;fill:#ffffff">
    <g
       id="g1287"
       style="stroke-width:1.24344;fill:#ffffff">
      <path
         d="m 211.615,324.43 c -3.695,1.56 -7.751,2.424 -12.004,2.424 h -4.367 c -2.367,5.205 -7.216,9.045 -13.024,10.022 l 0.087,17.365 c 0.04,8.109 6.627,14.654 14.726,14.654 0.025,0 0.05,0 0.076,0 8.134,-0.041 14.695,-6.668 14.654,-14.802 z"
         id="path1285"
         style="stroke-width:1.24344;fill:#ffffff" />
    </g>
  </g>
  <g
     id="g1295"
     transform="matrix(0.80421896,0,0,0.80421896,87.119038,46.239893)"
     style="stroke-width:1.24344;fill:#ffffff">
    <g
       id="g1293"
       style="stroke-width:1.24344;fill:#ffffff">
      <path
         d="m 211.22,245.893 c -0.03,-6.087 -1.64,-11.807 -4.43,-16.785 l -14.969,4.86 c 3.077,3.153 4.983,7.456 4.983,12.201 v 18.809 h 2.807 v -0.001 c 4.145,0 8.1,0.825 11.717,2.311 z"
         id="path1291"
         style="stroke-width:1.24344;fill:#ffffff" />
    </g>
  </g>
  <g
     id="g1301"
     transform="matrix(0.80421896,0,0,0.80421896,87.119038,46.239893)"
     style="stroke-width:1.24344;fill:#ffffff">
    <g
       id="g1299"
       style="stroke-width:1.24344;fill:#ffffff">
      <path
         d="m 78.649,326.855 h -5.345 c -3.971,0 -7.764,-0.76 -11.255,-2.129 l -0.148,29.368 c -0.04,8.134 6.52,14.761 14.654,14.802 0.025,0 0.05,0 0.076,0 8.099,0 14.686,-6.545 14.726,-14.654 l 0.087,-17.409 c -5.705,-1.038 -10.459,-4.842 -12.795,-9.978 z"
         id="path1297"
         style="stroke-width:1.24344;fill:#ffffff" />
    </g>
  </g>
  <g
     id="g1307"
     transform="matrix(0.80421896,0,0,0.80421896,87.119038,46.239893)"
     style="stroke-width:1.24344;fill:#ffffff">
    <g
       id="g1305"
       style="stroke-width:1.24344;fill:#ffffff">
      <path
         d="m 104.078,226.511 c -1.601,-4.932 -2.073,-10.136 -1.334,-15.324 l -5.446,0.027 c -19.102,0 -34.757,15.561 -34.854,34.679 l -0.106,21.099 c 3.411,-1.297 7.105,-2.014 10.965,-2.014 h 3.787 v -18.809 c 0,-9.643 7.846,-17.488 17.488,-17.488 h 10.302 c -0.284,-0.713 -0.562,-1.43 -0.802,-2.17 z"
         id="path1303"
         style="stroke-width:1.24344;fill:#ffffff" />
    </g>
  </g>
  <g
     id="g1313"
     transform="matrix(0.80421896,0,0,0.80421896,87.119038,46.239893)"
     style="stroke-width:1.24344;fill:#ffffff">
    <g
       id="g1311"
       style="stroke-width:1.24344;fill:#ffffff">
      <path
         d="m 199.61,279.409 h -10.024 c -3.985,0 -7.216,-3.232 -7.216,-7.216 v -26.025 c 0,-1.685 -1.371,-3.055 -3.055,-3.055 h -15.664 l -16.501,5.357 c -10.948,3.555 -22.512,1.327 -31.286,-5.357 H 94.579 c -1.685,0 -3.055,1.371 -3.055,3.055 v 26.025 c 0,3.985 -3.232,7.216 -7.216,7.216 H 73.305 c -9.102,0 -16.506,7.404 -16.506,16.506 0,9.102 7.404,16.506 16.506,16.506 h 11.002 c 3.985,0 7.216,3.231 7.216,7.216 0,1.685 1.371,3.055 3.055,3.055 h 84.737 c 1.685,0 3.055,-1.371 3.055,-3.055 0,-3.985 3.232,-7.216 7.216,-7.216 h 10.024 c 9.101,0 16.506,-7.404 16.506,-16.506 0,-9.101 -7.403,-16.506 -16.506,-16.506 z m -39.944,22.085 h -45.418 c -3.985,0 -7.216,-3.231 -7.216,-7.216 0,-3.985 3.232,-7.216 7.216,-7.216 h 45.417 c 3.985,0 7.216,3.232 7.216,7.216 0,3.984 -3.231,7.216 -7.215,7.216 z"
         id="path1309"
         style="stroke-width:1.24344;fill:#ffffff" />
    </g>
  </g>
  <g
     id="g1319"
     transform="matrix(0.80421896,0,0,0.80421896,87.119038,46.239893)"
     style="stroke-width:1.24344;fill:#ffffff">
    <g
       id="g1317"
       style="stroke-width:1.24344;fill:#ffffff">
      <circle
         cx="351.53699"
         cy="42.294998"
         r="42.294998"
         id="circle1315"
         style="stroke-width:1.24344;fill:#ffffff" />
    </g>
  </g>
  <g
     id="g1325"
     transform="matrix(0.80421896,0,0,0.80421896,87.119038,46.239893)"
     style="stroke-width:1.24344;fill:#ffffff">
    <g
       id="g1323"
       style="stroke-width:1.24344;fill:#ffffff">
      <path
         d="m 454.444,144.25 c -0.133,-26.497 -21.798,-48.053 -48.293,-48.053 -13.358,0 -94.381,0 -106.081,0 -17.202,0 -33.178,7.745 -43.831,21.251 -3.861,4.895 -35.542,45.05 -40.522,51.363 l -85.423,27.733 c -10.721,3.48 -16.589,14.992 -13.109,25.712 3.481,10.721 14.991,16.589 25.712,13.109 l 91.31,-29.644 c 3.838,-1.247 7.22,-3.602 9.72,-6.771 5.031,-6.376 39.683,-50.3 44.355,-56.222 1.288,-1.633 3.47,-2.27 5.434,-1.588 1.965,0.682 3.28,2.535 3.28,4.614 l 0.01,341.758 c 0,13.525 10.964,24.488 24.489,24.488 13.525,0 24.489,-10.964 24.489,-24.488 V 291.769 h 10.574 v 195.743 c 0,13.525 10.964,24.488 24.489,24.488 13.525,0 24.489,-10.964 24.489,-24.488 0,-91.664 -0.422,-248.127 -0.443,-343.114 0,-2.358 1.91,-4.271 4.268,-4.272 2.358,-0.001 4.271,1.91 4.272,4.267 0,0.02 0,0.04 0,0.06 l 0.754,149.926 c 0.057,11.236 9.182,20.305 20.406,20.305 0.035,0 0.07,0 0.105,0 11.271,-0.057 20.361,-9.24 20.305,-20.51 z"
         id="path1321"
         style="stroke-width:1.24344;fill:#ffffff" />
    </g>
  </g>
</svg>
