<?xml version="1.0" encoding="UTF-8" standalone="no"?>
<svg
   height="480"
   width="480"
   version="1.1"
   id="svg1097"
   sodipodi:docname="pprivate.svg"
   inkscape:version="1.1.2 (b8e25be833, 2022-02-05)"
   xmlns:inkscape="http://www.inkscape.org/namespaces/inkscape"
   xmlns:sodipodi="http://sodipodi.sourceforge.net/DTD/sodipodi-0.dtd"
   xmlns="http://www.w3.org/2000/svg"
   xmlns:svg="http://www.w3.org/2000/svg">
  <defs
     id="defs1101" />
  <sodipodi:namedview
     id="namedview1099"
     pagecolor="#ffffff"
     bordercolor="#666666"
     borderopacity="1.0"
     inkscape:pageshadow="2"
     inkscape:pageopacity="0.0"
     inkscape:pagecheckerboard="0"
     showgrid="false"
     inkscape:zoom="1"
     inkscape:cx="230"
     inkscape:cy="230"
     inkscape:window-width="1920"
     inkscape:window-height="1027"
     inkscape:window-x="-8"
     inkscape:window-y="-8"
     inkscape:window-maximized="1"
     inkscape:current-layer="svg1097" />
  <path
     d="m30.856274 5.7720243h420.004816c10.81582.7906802 23.07189 11.8437647 23.66646 24.8647647v418.806511c.04967 10.31854-11.79351 24.19224-25.16434 24.86477h-419.405663c-9.523815-.58318-24.4313132-15.37852-24.8647639-25.16434l.5991509-418.207366c-1.0815617-6.302442 14.286068-25.2982414 25.16434-25.1643397z"
     fill="#fff"
     fill-rule="evenodd"
     stroke="#000"
     stroke-width="2"
     id="path1067" />
  <path
     d="m35.1875 16.78125c-11.760613-.514916-18.473169 7.51921-18.03125 20.375v406.40625c.046553 8.6672 3.728171 19.07043 15.6875 19.28125l414.4375-.03125c11.95933-.2108 15.6722-10.61405 15.71875-19.28125v-406.4375c.44191-12.855791-6.27063-20.88992-18.03125-20.375z"
     fill="#039"
     fill-rule="evenodd"
     id="path1069" />
  <path
     d="m 71.265846,63.862977 v 42.402303 h 29.591404 c 7.39777,7e-5 12.91608,-2.22529 16.55494,-6.676107 3.63869,-4.450656 5.45808,-9.292333 5.45817,-14.525043 -9e-5,-7.939057 -2.85698,-13.773127 -8.57068,-17.502232 -3.66893,-2.465836 -8.39031,-3.698813 -14.16418,-3.698921 z M 51.327737,176.45464 V 45.00748 h 47.725156 c 5.112267,1.31e-4 10.029127,0.541437 14.750587,1.623918 4.72132,1.082741 9.63817,3.608833 14.75059,7.578285 3.96949,3.067521 7.33761,7.292712 10.10438,12.675586 2.76657,5.383091 4.14991,11.623138 4.15002,18.720167 -1.1e-4,9.38272 -3.50356,18.314264 -10.51036,26.794654 -7.007,8.48051 -17.24669,12.72074 -30.71912,12.72069 H 71.265846 v 51.33386 z"
     fill="#ffffff"
     id="path1071"
     style="stroke-width:0.999999" />
  <g
     id="g22913"
     transform="translate(111,102)"
     style="fill:#ffffff">
    <path
       d="m 242.381,129.395 c 0,-6.748 -5.488,-12.237 -12.234,-12.237 -5.667,0 -11.982,3.947 -11.982,9.612 l 0.007,40.416 c 0,1.904 -1.568,4.118 -3.591,4.118 -1.963,0 -3.561,-1.599 -3.561,-3.564 V 98.805 c 0,-6.747 -5.478,-12.235 -12.213,-12.235 -5.851,0 -12.115,4.115 -12.115,10.242 l 0.002,69.533 c 0,1.995 -1.62,3.621 -3.61,3.624 -2.004,-0.003 -3.63,-1.629 -3.63,-3.624 l -0.013,-92.55 c 0,-3.269 -1.273,-6.339 -3.582,-8.646 -2.312,-2.316 -5.383,-3.591 -8.651,-3.591 -6.639,0 -12.123,5.412 -12.227,12.063 l -0.001,92.206 c 0,0.97 -0.382,1.888 -1.075,2.584 -0.683,0.689 -1.6,1.067 -2.581,1.067 -2.02,0 -3.662,-1.64 -3.662,-3.654 l 0.044,-50.123 c 0.008,-9.029 0.013,-16.152 0.012,-17.156 V 98.41 c -0.017,-6.42 -6.302,-10.398 -12.116,-10.4 -6.745,0.002 -12.232,5.491 -12.232,12.236 v 101.097 c 0,1.629 -1.424,3.388 -3.724,3.388 -1.732,0 -3.598,-0.989 -5.545,-2.941 l -11.93,-11.924 c -2.818,-2.818 -6.405,-4.37 -10.102,-4.37 -3.415,0 -6.539,1.316 -9.036,3.807 -5.178,5.18 -5.332,13.211 -0.393,20.459 l 0.083,0.124 c 0.373,0.612 9.314,15.139 25.326,29.408 14.968,13.351 39.404,29.265 70.82,29.265 55.301,0 63.558,-35.771 63.558,-57.095 z"
       id="path22909"
       style="fill:#ffffff" />
    <path
       d="M 290.213,49.788 C 258.103,17.681 215.408,0 170,0 124.592,0 81.896,17.681 49.788,49.788 17.68,81.895 0,124.592 0,170 0,215.408 17.681,258.103 49.788,290.213 81.896,322.318 124.592,340 170,340 215.408,340 258.103,322.318 290.213,290.213 322.318,258.103 340,215.408 340,170 340,124.592 322.318,81.896 290.213,49.788 Z M 170,319.68 C 87.469,319.68 20.32,252.532 20.32,170 20.32,87.469 87.469,20.32 170,20.32 c 82.531,0 149.68,67.149 149.68,149.68 0,82.531 -67.149,149.68 -149.68,149.68 z"
       id="path22911"
       style="fill:#ffffff" />
  </g>
</svg>
