<?xml version="1.0" encoding="UTF-8" standalone="no"?>
<svg
   height="480"
   width="480"
   version="1.1"
   id="svg1097"
   sodipodi:docname="pscooter.svg"
   inkscape:version="1.1.2 (b8e25be833, 2022-02-05)"
   xmlns:inkscape="http://www.inkscape.org/namespaces/inkscape"
   xmlns:sodipodi="http://sodipodi.sourceforge.net/DTD/sodipodi-0.dtd"
   xmlns="http://www.w3.org/2000/svg"
   xmlns:svg="http://www.w3.org/2000/svg">
  <defs
     id="defs1101" />
  <sodipodi:namedview
     id="namedview1099"
     pagecolor="#ffffff"
     bordercolor="#666666"
     borderopacity="1.0"
     inkscape:pageshadow="2"
     inkscape:pageopacity="0.0"
     inkscape:pagecheckerboard="0"
     showgrid="false"
     inkscape:zoom="1"
     inkscape:cx="329"
     inkscape:cy="126"
     inkscape:window-width="1920"
     inkscape:window-height="1027"
     inkscape:window-x="-8"
     inkscape:window-y="-8"
     inkscape:window-maximized="1"
     inkscape:current-layer="svg1097" />
  <path
     d="m30.856274 5.7720243h420.004816c10.81582.7906802 23.07189 11.8437647 23.66646 24.8647647v418.806511c.04967 10.31854-11.79351 24.19224-25.16434 24.86477h-419.405663c-9.523815-.58318-24.4313132-15.37852-24.8647639-25.16434l.5991509-418.207366c-1.0815617-6.302442 14.286068-25.2982414 25.16434-25.1643397z"
     fill="#fff"
     fill-rule="evenodd"
     stroke="#000"
     stroke-width="2"
     id="path1067" />
  <path
     d="m35.1875 16.78125c-11.760613-.514916-18.473169 7.51921-18.03125 20.375v406.40625c.046553 8.6672 3.728171 19.07043 15.6875 19.28125l414.4375-.03125c11.95933-.2108 15.6722-10.61405 15.71875-19.28125v-406.4375c.44191-12.855791-6.27063-20.88992-18.03125-20.375z"
     fill="#039"
     fill-rule="evenodd"
     id="path1069" />
  <path
     d="m 71.265846,63.862977 v 42.402303 h 29.591404 c 7.39777,7e-5 12.91608,-2.22529 16.55494,-6.676107 3.63869,-4.450656 5.45808,-9.292333 5.45817,-14.525043 -9e-5,-7.939057 -2.85698,-13.773127 -8.57068,-17.502232 -3.66893,-2.465836 -8.39031,-3.698813 -14.16418,-3.698921 z M 51.327737,176.45464 V 45.00748 h 47.725156 c 5.112267,1.31e-4 10.029127,0.541437 14.750587,1.623918 4.72132,1.082741 9.63817,3.608833 14.75059,7.578285 3.96949,3.067521 7.33761,7.292712 10.10438,12.675586 2.76657,5.383091 4.14991,11.623138 4.15002,18.720167 -1.1e-4,9.38272 -3.50356,18.314264 -10.51036,26.794654 -7.007,8.48051 -17.24669,12.72074 -30.71912,12.72069 H 71.265846 v 51.33386 z"
     fill="#ffffff"
     id="path1071"
     style="stroke-width:0.999999" />
  <g
     id="g1747"
     transform="matrix(0.85351563,0,0,0.85351563,24,30.554855)"
     style="stroke-width:1.17162;fill:#ffffff">
    <g
       id="g1745"
       style="stroke-width:1.17162;fill:#ffffff">
      <path
         d="m 463.84,395.328 -9.598,-32.945 c 2.553,-0.238 5.069,-0.641 7.671,-0.641 9.217,0 16.696,-7.473 16.696,-16.696 0,-9.223 -7.479,-16.696 -16.696,-16.696 -5.825,0 -11.557,0.503 -17.194,1.347 L 365.56,57.997 399.185,49.59 c 8.946,-2.234 14.381,-11.299 12.141,-20.244 -2.228,-8.945 -11.304,-14.397 -20.25,-12.147 L 257.512,50.591 c -8.946,2.234 -14.381,11.298 -12.141,20.244 2.242,8.992 11.373,14.384 20.25,12.147 l 67.516,-16.879 79.608,273.243 c -12,5.596 -22.943,13.182 -32.396,22.397 H 131.65 C 110.307,340.94 81.309,328.352 50.087,328.352 c -9.217,0 -16.696,7.473 -16.696,16.696 0,9.223 7.479,16.696 16.696,16.696 37.446,0 70.544,25.212 80.489,61.326 0.524,1.9 1.272,3.663 1.968,5.456 H 97.097 C 90.182,409.135 71.822,395.135 50.087,395.135 22.468,395.134 0,417.602 0,445.221 c 0,27.619 22.468,50.087 50.087,50.087 21.737,0 40.095,-14 47.01,-33.391 h 235.619 c 22.717,0 42.282,-15.614 48.707,-38.859 6.173,-22.408 21.283,-40.589 40.797,-51.182 l 9.744,33.444 c -12.152,9.147 -20.138,23.553 -20.138,39.901 0,27.619 22.468,50.087 50.087,50.087 27.619,0 50.087,-22.468 50.087,-50.087 0,-26.961 -21.449,-48.853 -48.16,-49.893 z"
         id="path1743"
         style="stroke-width:1.17162;fill:#ffffff" />
    </g>
  </g>
</svg>
