<?xml version="1.0" encoding="UTF-8" standalone="no"?>
<svg
   height="480"
   width="480"
   version="1.1"
   id="svg1097"
   sodipodi:docname="ptaxi.svg"
   inkscape:version="1.1.2 (b8e25be833, 2022-02-05)"
   xmlns:inkscape="http://www.inkscape.org/namespaces/inkscape"
   xmlns:sodipodi="http://sodipodi.sourceforge.net/DTD/sodipodi-0.dtd"
   xmlns="http://www.w3.org/2000/svg"
   xmlns:svg="http://www.w3.org/2000/svg">
  <defs
     id="defs1101" />
  <sodipodi:namedview
     id="namedview1099"
     pagecolor="#ffffff"
     bordercolor="#666666"
     borderopacity="1.0"
     inkscape:pageshadow="2"
     inkscape:pageopacity="0.0"
     inkscape:pagecheckerboard="0"
     showgrid="false"
     inkscape:zoom="1"
     inkscape:cx="329"
     inkscape:cy="126"
     inkscape:window-width="1920"
     inkscape:window-height="1027"
     inkscape:window-x="-8"
     inkscape:window-y="-8"
     inkscape:window-maximized="1"
     inkscape:current-layer="svg1097" />
  <path
     d="m30.856274 5.7720243h420.004816c10.81582.7906802 23.07189 11.8437647 23.66646 24.8647647v418.806511c.04967 10.31854-11.79351 24.19224-25.16434 24.86477h-419.405663c-9.523815-.58318-24.4313132-15.37852-24.8647639-25.16434l.5991509-418.207366c-1.0815617-6.302442 14.286068-25.2982414 25.16434-25.1643397z"
     fill="#fff"
     fill-rule="evenodd"
     stroke="#000"
     stroke-width="2"
     id="path1067" />
  <path
     d="m35.1875 16.78125c-11.760613-.514916-18.473169 7.51921-18.03125 20.375v406.40625c.046553 8.6672 3.728171 19.07043 15.6875 19.28125l414.4375-.03125c11.95933-.2108 15.6722-10.61405 15.71875-19.28125v-406.4375c.44191-12.855791-6.27063-20.88992-18.03125-20.375z"
     fill="#039"
     fill-rule="evenodd"
     id="path1069" />
  <path
     d="m 71.265846,63.862977 v 42.402303 h 29.591404 c 7.39777,7e-5 12.91608,-2.22529 16.55494,-6.676107 3.63869,-4.450656 5.45808,-9.292333 5.45817,-14.525043 -9e-5,-7.939057 -2.85698,-13.773127 -8.57068,-17.502232 -3.66893,-2.465836 -8.39031,-3.698813 -14.16418,-3.698921 z M 51.327737,176.45464 V 45.00748 h 47.725156 c 5.112267,1.31e-4 10.029127,0.541437 14.750587,1.623918 4.72132,1.082741 9.63817,3.608833 14.75059,7.578285 3.96949,3.067521 7.33761,7.292712 10.10438,12.675586 2.76657,5.383091 4.14991,11.623138 4.15002,18.720167 -1.1e-4,9.38272 -3.50356,18.314264 -10.51036,26.794654 -7.007,8.48051 -17.24669,12.72074 -30.71912,12.72069 H 71.265846 v 51.33386 z"
     fill="#ffffff"
     id="path1071"
     style="stroke-width:0.999999" />
  <path
     id="path2256"
     style="fill:#ffffff;fill-rule:evenodd;stroke:none;stroke-width:2;stroke-linecap:butt;stroke-linejoin:miter;stroke-miterlimit:4;stroke-opacity:1"
     d="m 285.72106,99.45079 c 9.88202,1.5057 11.81438,5.45743 12.00795,12.34151 v 20.34682 l 45.02984,0.66711 c 17.01969,-0.60213 31.64906,4.90433 40.69364,24.68302 l 32.68833,81.72083 c 23.79358,6.55988 34.14088,23.84556 34.68965,38.0252 v 107.07095 h -31.35411 v 36.02387 c 1.52059,34.33735 -54.7787,35.68863 -56.03714,-0.33355 l -0.6671,-35.35676 -203.54424,-3.2e-4 -0.6671,35.35676 c -1.25844,36.02218 -57.55773,34.6709 -56.03714,0.33355 V 384.30591 H 71.16953 V 277.23496 c 0.54877,-14.17964 10.89607,-31.46532 34.68965,-38.0252 l 32.68833,-81.72083 c 9.04458,-19.77869 23.67395,-25.28515 40.69364,-24.68302 l 45.02984,-0.66711 v -20.34682 c 0.19357,-6.88408 2.12593,-10.83581 12.00795,-12.34151 z"
     sodipodi:nodetypes="ccccccccccccccccccccccccc" />
  <path
     style="fill:#003399;fill-opacity:1;fill-rule:evenodd;stroke:none;stroke-width:2;stroke-linecap:butt;stroke-linejoin:miter;stroke-miterlimit:4;stroke-dasharray:none;stroke-opacity:1"
     d="m 138.68707,237.5375 244.90212,0.33356 -23.52863,-63.40548 c -5.7464,-12.77582 -11.48808,-13.05163 -25.001,-12.73637 L 187.4121,161.2575 c -12.17477,-0.49383 -21.32877,0.51154 -25.47273,14.62323 z"
     id="path3253"
     sodipodi:nodetypes="ccccccc" />
  <ellipse
     style="fill:#003399;fill-opacity:1;stroke:none;stroke-width:2.00608;stroke-miterlimit:4;stroke-dasharray:none;stroke-dashoffset:0;stroke-opacity:1"
     id="path4224"
     cx="391.88199"
     cy="296.08105"
     rx="26.514458"
     ry="26.51446" />
  <ellipse
     style="fill:#003399;fill-opacity:1;stroke:none;stroke-width:2.00608;stroke-miterlimit:4;stroke-dasharray:none;stroke-dashoffset:0;stroke-opacity:1"
     id="path4226"
     cx="131.56807"
     cy="296.08102"
     rx="26.514458"
     ry="26.51446" />
</svg>
