<?xml version="1.0" encoding="UTF-8" standalone="no"?>
<!-- Generator: Adobe Illustrator 12.0.0, SVG Export Plug-In . SVG Version: 6.00 Build 51448)  -->
<svg xmlns:ns="http://ns.adobe.com/SaveForWeb/1.0/" xmlns:dc="http://purl.org/dc/elements/1.1/" xmlns:cc="http://web.resource.org/cc/" xmlns:rdf="http://www.w3.org/1999/02/22-rdf-syntax-ns#" xmlns:svg="http://www.w3.org/2000/svg" xmlns="http://www.w3.org/2000/svg" xmlns:sodipodi="http://sodipodi.sourceforge.net/DTD/sodipodi-0.dtd" xmlns:inkscape="http://www.inkscape.org/namespaces/inkscape" version="1.1" width="585.798" height="585.798" viewBox="0 0 585.798 585.798" overflow="visible" enable-background="new 0 0 585.798 585.798" xml:space="preserve" id="svg2" sodipodi:version="0.32" inkscape:version="0.45.1" sodipodi:docname="M45.svg" inkscape:output_extension="org.inkscape.output.svg.inkscape" sodipodi:docbase="C:\Documents and Settings\All Users\Documentos"><defs id="defs37">
	

		
			
		
			
		
		
		
		
		
		
		
			
		
	</defs><sodipodi:namedview inkscape:window-height="740" inkscape:window-width="1280" inkscape:pageshadow="2" inkscape:pageopacity="0.0" guidetolerance="10.0" gridtolerance="10.0" objecttolerance="10.0" borderopacity="1.0" bordercolor="#666666" pagecolor="#ffffff" id="base" inkscape:zoom="0.64356658" inkscape:cx="292.89899" inkscape:cy="292.89899" inkscape:window-x="-4" inkscape:window-y="-4" inkscape:current-layer="svg2"/>
<metadata id="metadata4">
	<map_document id="map_document6">
		<map_stylesheets id="map_stylesheets8"/>
		<map_views id="map_views10"/>
	</map_document>
	<ns:sfw>
		<ns:slices/>
		<ns:sliceSourceBounds y="4.739" x="128.045" width="585.799" height="585.798" bottomLeftOrigin="true"/>
	</ns:sfw>
<rdf:RDF><cc:Work rdf:about=""><dc:format>image/svg+xml</dc:format><dc:type rdf:resource="http://purl.org/dc/dcmitype/StillImage"/></cc:Work></rdf:RDF></metadata>
<rect x="-585.46509" y="-585.79303" transform="matrix(-0.9999998,5.6043461e-4,-5.6043461e-4,-0.9999998,0,0)" clip-rule="evenodd" width="585.46112" height="585.46014" id="rect15" style="fill:#ffffff;fill-rule:evenodd"/><rect x="-585.46509" y="-585.79303" transform="matrix(-0.9999998,5.6043461e-4,-5.6043461e-4,-0.9999998,0,0)" stroke-miterlimit="500" width="585.46112" height="585.46014" id="rect17" style="fill:none;stroke:#000000;stroke-width:0.01;stroke-linecap:round;stroke-linejoin:round;stroke-miterlimit:500"/><path clip-rule="evenodd" d="M 32.545,507.55 C 32.484,532.722 52.839,553.177 78.01,553.238 L 507.55,553.255 C 532.721,553.316 553.176,532.96 553.238,507.789 L 553.254,78.248 C 553.315,53.078 532.96,32.623 507.788,32.562 L 78.248,32.546 C 53.077,32.485 32.623,52.84 32.562,78.01 L 32.545,507.55 z " id="path19" style="fill:#007dff;fill-rule:evenodd;fill-opacity:1"/><path clip-rule="evenodd" d="M 65.081,507.562 C 65.166,515.102 71.349,521.146 78.889,521.06 L 507.561,520.717 C 515.102,520.631 521.145,514.45 521.059,506.909 L 520.717,78.237 C 520.631,70.697 514.45,64.654 506.909,64.739 L 78.237,65.081 C 70.696,65.166 64.653,71.349 64.738,78.889 L 65.081,507.562 z " id="path21" style="fill:#ffffff;fill-rule:evenodd"/><path clip-rule="evenodd" d="M 455.092,228.119 L 455.71,130.803 L 335.775,130.235 C 302.458,130.199 271.217,146.418 252.078,173.689 L 193.062,257.68 C 184.835,270.733 179.69,285.488 178.017,300.826 C 177.794,302.925 178.768,304.972 180.537,306.122 C 182.306,307.273 184.571,307.334 186.399,306.28 C 198.812,299.314 212.745,295.502 226.976,295.178 L 288.093,224.343 C 289.901,222.507 292.416,221.545 294.988,221.705 L 317.072,221.123 C 322.83,221.033 328.119,224.287 330.635,229.468 C 333.15,234.649 332.436,240.818 328.804,245.286 L 256.3,331.565 C 250.069,339.041 250.634,350.049 257.596,356.847 C 264.559,363.646 275.578,363.947 282.901,357.538 L 354.17,295.112 C 398.088,294.67 437.632,268.42 455.092,228.119 z " id="path23" style="fill:#007dff;fill-rule:evenodd;fill-opacity:1"/><path clip-rule="evenodd" d="M 387.244,335.81 C 396.006,336.116 404.404,332.289 409.923,325.476 C 415.443,318.662 417.44,309.654 415.319,301.146 C 414.921,299.505 413.801,298.133 412.276,297.412 C 410.751,296.691 408.981,296.696 407.461,297.428 C 396.945,302.483 385.776,306.043 374.277,308.004 C 372.232,308.275 370.493,309.625 369.721,311.537 C 368.95,313.45 369.268,315.629 370.553,317.241 L 387.244,335.81 z " id="path25" style="fill:#007dff;fill-rule:evenodd;fill-opacity:1"/><path clip-rule="evenodd" d="M 316.382,397.161 C 316.112,398.667 316.474,400.217 317.381,401.449 C 318.287,402.681 319.661,403.488 321.179,403.678 C 330.281,404.821 339.146,400.237 343.475,392.15 C 347.804,384.061 346.701,374.143 340.702,367.204 L 321.18,344.62 C 319.39,342.575 316.392,342.111 314.068,343.518 C 311.746,344.924 310.767,347.797 311.749,350.33 C 317.513,365.23 319.116,381.419 316.382,397.161 z " id="path27" style="fill:#007dff;fill-rule:evenodd;fill-opacity:1"/><path clip-rule="evenodd" d="M 235.049,455.502 C 256.783,454.028 276.752,443.013 289.593,425.417 C 302.434,407.819 306.833,385.441 301.606,364.294 C 295.332,373.765 285.081,379.857 273.762,380.842 C 262.445,381.827 251.295,377.599 243.478,369.354 C 235.592,361.177 231.865,349.849 233.355,338.586 C 234.846,327.323 241.391,317.356 251.133,311.511 C 230.246,305.341 207.699,308.727 189.547,320.759 C 171.394,332.793 159.494,352.241 157.045,373.883 C 154.655,395.533 161.967,417.132 177.016,432.88 C 192.066,448.626 213.312,456.909 235.049,455.502 z " id="path29" style="fill:#007dff;fill-rule:evenodd;fill-opacity:1"/><polygon clip-rule="evenodd" stroke-miterlimit="500" points="130.088,454.995 148.587,455.209 149.016,319.496 130.517,319.281 130.088,454.995 " id="polygon31" style="fill:#007dff;fill-rule:evenodd;stroke:#007fff;stroke-width:0.01;stroke-linecap:round;stroke-linejoin:round;stroke-miterlimit:500;fill-opacity:1"/><path clip-rule="evenodd" d="M 338.446,343.101 L 360.943,370.064 C 365.903,376.036 374.764,376.856 380.736,371.896 C 386.709,366.936 387.527,358.074 382.568,352.102 L 360.024,324.877 C 354.992,318.918 346.082,318.168 340.124,323.2 C 334.165,328.232 333.414,337.143 338.446,343.101 z " id="path33" style="fill:#007dff;fill-rule:evenodd;fill-opacity:1"/>
<g id="_x30_">
</g>
</svg>