<?xml version="1.0" encoding="UTF-8" standalone="no"?>
<svg
   xmlns:dc="http://purl.org/dc/elements/1.1/"
   xmlns:cc="http://creativecommons.org/ns#"
   xmlns:rdf="http://www.w3.org/1999/02/22-rdf-syntax-ns#"
   xmlns:svg="http://www.w3.org/2000/svg"
   xmlns="http://www.w3.org/2000/svg"
   xmlns:sodipodi="http://sodipodi.sourceforge.net/DTD/sodipodi-0.dtd"
   xmlns:inkscape="http://www.inkscape.org/namespaces/inkscape"
   enable-background="new 0 0 595.28 841.89"
   version="1.1"
   viewBox="0 0 595.28 841.89"
   xml:space="preserve"
   id="svg893"
   sodipodi:docname="location_parking.svg"
   inkscape:version="1.0.1 (3bc2e813f5, 2020-09-07)"
   inkscape:export-filename="C:\Users\Usuario\Desktop\favicon.png"
   inkscape:export-xdpi="3.6489327"
   inkscape:export-ydpi="3.6489327"><metadata
   id="metadata899"><rdf:RDF><cc:Work
       rdf:about=""><dc:format>image/svg+xml</dc:format><dc:type
         rdf:resource="http://purl.org/dc/dcmitype/StillImage" /><dc:title></dc:title></cc:Work></rdf:RDF></metadata><defs
   id="defs897" /><sodipodi:namedview
   pagecolor="#ffffff"
   bordercolor="#666666"
   borderopacity="1"
   objecttolerance="10"
   gridtolerance="10"
   guidetolerance="10"
   inkscape:pageopacity="0"
   inkscape:pageshadow="2"
   inkscape:window-width="1920"
   inkscape:window-height="1027"
   id="namedview895"
   showgrid="false"
   inkscape:zoom="2"
   inkscape:cx="263.53364"
   inkscape:cy="438.18931"
   inkscape:window-x="-8"
   inkscape:window-y="-8"
   inkscape:window-maximized="1"
   inkscape:current-layer="layer5" />
<g
   display="none"
   id="g871">
	<path
   d="m174.04 270.12c0 2.167-1.756 3.923-3.924 3.923h-90.236c-2.167 0-3.923-1.756-3.923-3.923v-90.237c0-2.167 1.756-3.923 3.923-3.923h90.236c2.168 0 3.924 1.756 3.924 3.923v90.237z"
   display="inline"
   fill="#39B54A"
   id="path867" />
	<path
   d="m125 175.96h-45.119c-2.167 0-3.923 1.756-3.923 3.923v90.237c0 2.167 1.756 3.923 3.923 3.923h45.119v-98.083z"
   display="inline"
   fill="#6FC067"
   id="path869" />
</g>
<g
   display="none"
   id="g879">
	<path
   d="m437 217c0 4.418-3.582 8-8 8h-184c-4.418 0-8-3.582-8-8v-134c0-4.418 3.582-8 8-8h184c4.418 0 8 3.582 8 8v134z"
   display="inline"
   fill="#39B54A"
   id="path873" />
	<path
   d="M297.64,75H245c-4.418,0-8,3.582-8,8v134c0,4.418,3.582,8,8,8h52.64V75z"
   display="inline"
   fill="#6FC067"
   id="path875" />
	<path
   d="M376.359,75H429c4.418,0,8,3.582,8,8v134c0,4.418-3.582,8-8,8h-52.641V75z"
   display="inline"
   fill="#6FC067"
   id="path877" />
</g>


	
	
	
	
<g
   inkscape:groupmode="layer"
   id="layer1"
   inkscape:label="Layer 1"><circle
     cx="297.64001"
     cy="420.21701"
     r="150"
     fill="#d4d0b3"
     id="circle881" /><path
     d="m 298.19999,270.227 v 299.99 c 82.587,-0.3 149.44,-67.335 149.44,-149.99 0,-82.657 -66.858,-149.69 -149.44,-149.99 z"
     fill="#dedbc3"
     id="path883" /><path
     d="m 428.78999,492.587 c -33.736,-8.65 -75.566,-13.771 -120.88,-13.771 -54.476,0 -103.92,7.404 -140.32,19.445 26.154,43.955 74.127,73.412 128.99,73.412 57.19,0 106.9,-32.009 132.2,-79.086 z"
     fill="#57bd84"
     id="path885" /><path
     d="m 307.91999,478.817 c -3.615,0 -7.205,0.035 -10.774,0.1 v 92.748 c 1.396,-0.005 2.786,-0.03 4.173,-0.073 0.654,-0.02 1.305,-0.052 1.957,-0.081 0.92,-0.04 1.84,-0.088 2.756,-0.145 0.674,-0.042 1.348,-0.084 2.018,-0.135 1.092,-0.082 2.178,-0.18 3.26,-0.285 0.789,-0.077 1.576,-0.16 2.361,-0.25 1.053,-0.119 2.104,-0.245 3.148,-0.387 0.658,-0.089 1.314,-0.185 1.971,-0.282 0.906,-0.134 1.809,-0.278 2.709,-0.429 0.613,-0.103 1.227,-0.2 1.838,-0.311 1.369,-0.246 2.732,-0.51 4.09,-0.793 0.568,-0.119 1.131,-0.25 1.697,-0.375 0.922,-0.204 1.842,-0.414 2.756,-0.635 0.621,-0.149 1.24,-0.302 1.857,-0.459 0.98,-0.25 1.955,-0.513 2.93,-0.781 0.498,-0.138 0.998,-0.269 1.494,-0.412 1.313,-0.378 2.617,-0.776 3.914,-1.189 0.564,-0.179 1.123,-0.366 1.684,-0.552 0.902,-0.299 1.801,-0.605 2.695,-0.921 0.541,-0.19 1.084,-0.379 1.621,-0.576 1.316,-0.48 2.627,-0.975 3.924,-1.491 0.387,-0.153 0.768,-0.317 1.154,-0.475 1.004,-0.409 2.006,-0.828 2.998,-1.259 0.512,-0.221 1.021,-0.446 1.529,-0.673 0.961,-0.43 1.916,-0.869 2.867,-1.318 0.4,-0.188 0.803,-0.372 1.199,-0.563 1.283,-0.62 2.555,-1.259 3.818,-1.914 0.406,-0.21 0.807,-0.428 1.211,-0.643 0.943,-0.501 1.883,-1.011 2.814,-1.531 0.426,-0.237 0.852,-0.475 1.273,-0.716 1.205,-0.688 2.402,-1.388 3.586,-2.107 0.111,-0.068 0.225,-0.136 0.336,-0.204 1.219,-0.747 2.424,-1.516 3.621,-2.296 0.365,-0.237 0.729,-0.479 1.092,-0.721 0.963,-0.641 1.92,-1.292 2.867,-1.954 0.295,-0.207 0.594,-0.41 0.889,-0.618 1.213,-0.861 2.414,-1.737 3.602,-2.634 0.199,-0.15 0.396,-0.307 0.596,-0.458 1.012,-0.771 2.012,-1.555 3.002,-2.352 0.295,-0.236 0.59,-0.474 0.883,-0.713 1.088,-0.888 2.166,-1.787 3.229,-2.705 0.07,-0.061 0.143,-0.118 0.211,-0.179 1.16,-1.006 2.303,-2.032 3.434,-3.073 0.211,-0.194 0.418,-0.393 0.629,-0.588 0.949,-0.886 1.889,-1.783 2.814,-2.693 0.195,-0.19 0.391,-0.381 0.586,-0.572 2.191,-2.176 4.316,-4.419 6.371,-6.726 0.178,-0.199 0.354,-0.4 0.531,-0.601 0.963,-1.092 1.912,-2.195 2.842,-3.315 0.051,-0.061 0.104,-0.121 0.154,-0.182 1.021,-1.232 2.023,-2.483 3.006,-3.749 0.074,-0.095 0.146,-0.191 0.219,-0.287 0.889,-1.15 1.76,-2.314 2.615,-3.491 0.123,-0.17 0.248,-0.339 0.371,-0.51 1.848,-2.563 3.615,-5.187 5.303,-7.867 0.094,-0.15 0.186,-0.301 0.279,-0.451 0.793,-1.27 1.568,-2.551 2.322,-3.845 0.047,-0.08 0.096,-0.159 0.143,-0.24 0.822,-1.416 1.623,-2.847 2.4,-4.292 -33.736,-8.65 -75.566,-13.771 -120.88,-13.771 z"
     fill="#67c18c"
     id="path887" /></g><g
   inkscape:groupmode="layer"
   id="layer3"
   inkscape:label="Layer 3"><rect
     style="fill:#000080;stroke-width:17.8523;stroke-linejoin:round"
     id="rect970"
     width="103.5134"
     height="96.206566"
     x="249.21445"
     y="309.66885" /></g><g
   inkscape:groupmode="layer"
   id="layer4"
   inkscape:label="Layer 4" /><g
   inkscape:groupmode="layer"
   id="layer2"
   inkscape:label="Layer 2"><path
     d="m 298.19999,270.237 c -48.76231,0 -88.301,39.52912 -88.301,88.29981 0,48.7647 71.1304,174.14683 88.301,174.14683 19.62457,0 88.301,-125.37854 88.301,-174.14683 -10e-4,-48.77189 -39.53989,-88.29981 -88.301,-88.29981 z m 0,131.21734 c -24.37936,0 -44.14512,-19.76336 -44.14512,-44.14751 0,-24.38295 19.76576,-44.14631 44.14512,-44.14631 24.38295,0 44.15588,19.76456 44.15588,44.14631 0,24.38295 -19.77293,44.14751 -44.15588,44.14751 z"
     fill="#f04e3e"
     id="path889"
     style="stroke-width:1.19647;fill:#000080" /></g><g
   inkscape:groupmode="layer"
   id="layer5"
   inkscape:label="Layer 5"><text
     xml:space="preserve"
     style="font-size:217.301px;line-height:127.325px;font-family:'The Pits';-inkscape-font-specification:'The Pits';letter-spacing:0px;word-spacing:0px;fill:none;stroke:#000000;stroke-width:5.09299px;stroke-linecap:butt;stroke-linejoin:miter;stroke-opacity:1"
     x="233.8632"
     y="456.60205"
     id="text975"
     inkscape:transform-center-x="-134.83457"
     inkscape:transform-center-y="16.180311"><tspan
       sodipodi:role="line"
       id="tspan973"
       x="233.8632"
       y="456.60205"
       style="font-style:normal;font-variant:normal;font-weight:bold;font-stretch:normal;font-family:Arial;-inkscape-font-specification:'Arial Bold';fill:#ffffff;stroke-width:5.09299px">P</tspan></text></g></svg>
